Mazius Display Roman.glyphspackage
{
color = 9;
glyphname = AE;
layers = (
{
anchors = (
{
name = bottom;
position = "{474, 0}";
},
{
name = top;
position = "{474, 700}";
}
);
hints = (
{
origin = "{0, 3}";
scale = "{-0.6, 1}";
type = Corner;
name = _corner.capSerif;
},
{
origin = "{0, 4}";
scale = "{1.1, 1}";
type = Corner;
name = _corner.capSerif;
options = 1;
},
{
origin = "{3, 0}";
scale = "{-1, 1}";
type = Corner;
name = _corner.capSerif;
options = 1;
}
);
layerId = "33C692B7-ECA1-4228-A9DA-44701B454552";
paths = (
{
closed = 1;
nodes = (
"482 679 LINE",
"537 700 LINE",
"436 700 LINE",
"49 0 LINE",
"76 0 LINE",
"452 679 LINE"
);
},
{
closed = 1;
nodes = (
"488 258 LINE",
"488 275 LINE",
"205 275 LINE",
"197 258 LINE"
);
},
{
closed = 1;
nodes = (
"449 700 LINE",
"359 700 LINE",
"359 694 LINE",
"436 680 LINE"
);
},
{
closed = 1;
nodes = (
"462 0 LINE",
"562 0 LINE",
"562 700 LINE",
"462 700 LINE"
);
},
{
closed = 1;
nodes = (
"900 0 LINE",
"898 19 LINE",
"549 19 LINE",
"541 0 LINE"
);
},
{
closed = 1;
nodes = (
"922 185 LINE",
"914 187 LINE",
"896 150 OFFCURVE",
"815 14 OFFCURVE",
"785 15 CURVE",
"900 0 LINE"
);
},
{
closed = 1;
nodes = (
"743 354 LINE",
"786 258 LINE",
"797 258 LINE",
"797 470 LINE",
"786 470 LINE",
"743 373 LINE",
"549 373 LINE",
"541 354 LINE"
);
},
{
closed = 1;
nodes = (
"882 681 LINE",
"882 700 LINE",
"549 700 LINE",
"541 681 LINE"
);
},
{
closed = 1;
nodes = (
"785 689 LINE",
"815 690 OFFCURVE",
"892 553 OFFCURVE",
"910 516 CURVE",
"916 516 LINE",
"900 703 LINE"
);
}
);
width = 947;
},
{
anchors = (
{
name = bottom;
position = "{499, 0}";
},
{
name = top;
position = "{499, 700}";
}
);
hints = (
{
origin = "{0, 3}";
scale = "{-0.6, 1}";
type = Corner;
name = _corner.capSerif;
},
{
origin = "{0, 4}";
scale = "{1.1, 1}";
type = Corner;
name = _corner.capSerif;
options = 1;
},
{
origin = "{3, 0}";
scale = "{-1, 1}";
type = Corner;
name = _corner.capSerif;
},
{
horizontal = 1;
place = "{284, 30}";
type = Stem;
}
);
layerId = "6E858C87-3851-4F0D-A4B8-5C62800DDA3D";
paths = (
{
closed = 1;
nodes = (
"464 679 LINE",
"514 700 LINE",
"432 700 LINE",
"45 0 LINE",
"80 0 LINE",
"456 679 LINE"
);
},
{
closed = 1;
nodes = (
"465 258 LINE",
"465 284 LINE",
"211 284 LINE",
"203 258 LINE"
);
},
{
closed = 1;
nodes = (
"436 700 LINE",
"326 700 LINE",
"326 684 LINE",
"427 656 LINE"
);
},
{
closed = 1;
nodes = (
"454 0 LINE",
"610 0 LINE",
"610 700 LINE",
"454 700 LINE"
);
},
{
closed = 1;
nodes = (
"557 0 LINE",
"934 0 LINE",
"919 25 LINE",
"565 25 LINE"
);
},
{
closed = 1;
nodes = (
"958 185 LINE",
"943 188 LINE",
"921 151 OFFCURVE",
"812 14 OFFCURVE",
"782 15 CURVE",
"936 0 LINE"
);
},
{
closed = 1;
nodes = (
"557 350 LINE",
"755 350 LINE",
"809 235 LINE",
"828 235 LINE",
"828 493 LINE",
"809 493 LINE",
"755 375 LINE",
"565 375 LINE"
);
},
{
closed = 1;
nodes = (
"912 675 LINE",
"914 700 LINE",
"557 700 LINE",
"565 675 LINE"
);
},
{
closed = 1;
nodes = (
"769 689 LINE",
"799 690 OFFCURVE",
"917 553 OFFCURVE",
"938 516 CURVE",
"954 516 LINE",
"938 703 LINE"
);
}
);
width = 998;
}
);
rightKerningGroup = E;
rightMetricsKey = E;
unicode = 00C6;
}
{
color = 8;
glyphname = Eth;
layers = (
{
components = (
{
name = D;
transform = "{1, 0, 0, 1, 2, 0}";
}
);
layerId = "33C692B7-ECA1-4228-A9DA-44701B454552";
paths = (
{
closed = 1;
nodes = (
"22 355 LINE",
"391 355 LINE",
"391 385 LINE",
"22 385 LINE"
);
}
);
width = 758;
},
{
components = (
{
alignment = -1;
name = D;
}
);
layerId = "6E858C87-3851-4F0D-A4B8-5C62800DDA3D";
paths = (
{
closed = 1;
nodes = (
"20 334 LINE",
"389 334 LINE",
"389 395 LINE",
"20 395 LINE"
);
}
);
width = 781;
}
);
leftKerningGroup = H;
leftMetricsKey = D;
rightKerningGroup = O;
rightMetricsKey = D;
unicode = 00D0;
}
{
color = 8;
glyphname = Oslash;
layers = (
{
anchors = (
{
name = bottom;
position = "{437, 0}";
},
{
name = top;
position = "{437, 700}";
}
);
components = (
{
name = O;
}
);
layerId = "33C692B7-ECA1-4228-A9DA-44701B454552";
paths = (
{
closed = 1;
nodes = (
"144 -35 LINE",
"676 708 LINE",
"641 736 LINE",
"109 -6 LINE"
);
}
);
width = 766;
},
{
anchors = (
{
name = bottom;
position = "{434, 0}";
},
{
name = top;
position = "{434, 700}";
}
);
components = (
{
name = O;
}
);
layerId = "6E858C87-3851-4F0D-A4B8-5C62800DDA3D";
paths = (
{
closed = 1;
nodes = (
"140 -23 LINE",
"679 701 LINE",
"632 730 LINE",
"94 6 LINE"
);
}
);
width = 788;
}
);
leftKerningGroup = O;
leftMetricsKey = O;
rightKerningGroup = O;
rightMetricsKey = O;
unicode = 00D8;
}
{
color = 3;
glyphname = Thorn;
layers = (
{
components = (
{
name = I;
}
);
layerId = "33C692B7-ECA1-4228-A9DA-44701B454552";
paths = (
{
closed = 1;
nodes = (
"299 182 LINE",
"337 185 OFFCURVE",
"567 203 OFFCURVE",
"566 416 CURVE",
"566 530 OFFCURVE",
"470 584 OFFCURVE",
"328 581 CURVE SMOOTH",
"198 581 LINE",
"198 186 LINE",
"210 181 LINE"
);
},
{
closed = 1;
nodes = (
"210 550 LINE",
"219 558 OFFCURVE",
"272 563 OFFCURVE",
"303 563 CURVE SMOOTH",
"410 563 OFFCURVE",
"462 486 OFFCURVE",
"462 395 CURVE SMOOTH",
"462 266 OFFCURVE",
"411 204 OFFCURVE",
"321 204 CURVE SMOOTH",
"291 204 OFFCURVE",
"250 209 OFFCURVE",
"210 220 CURVE"
);
}
);
width = 612;
},
{
anchors = (
{
name = bottom;
position = "{330, 0}";
},
{
name = top;
position = "{330, 700}";
}
);
components = (
{
name = I;
}
);
layerId = "6E858C87-3851-4F0D-A4B8-5C62800DDA3D";
paths = (
{
closed = 1;
nodes = (
"341 155 LINE",
"384 158 OFFCURVE",
"629 185 OFFCURVE",
"628 382 CURVE SMOOTH",
"627 516 OFFCURVE",
"477 561 OFFCURVE",
"370 558 CURVE SMOOTH",
"243 558 LINE",
"243 156 LINE",
"266 154 LINE"
);
},
{
closed = 1;
nodes = (
"266 520 LINE",
"275 527 OFFCURVE",
"303 532 OFFCURVE",
"329 532 CURVE SMOOTH",
"405 532 OFFCURVE",
"464 460 OFFCURVE",
"464 351 CURVE SMOOTH",
"464 267 OFFCURVE",
"420 185 OFFCURVE",
"363 185 CURVE SMOOTH",
"328 185 OFFCURVE",
"299 202 OFFCURVE",
"266 229 CURVE"
);
}
);
width = 661;
}
);
leftKerningGroup = H;
rightKerningGroup = Thorn;
rightMetricsKey = O;
unicode = 00DE;
}
{
color = 3;
glyphname = ae;
layers = (
{
anchors = (
{
name = bottom;
position = "{377, 0}";
},
{
name = top;
position = "{377, 470}";
}
);
components = (
{
name = e;
transform = "{0.95, 0, 0, 1, 264, 0}";
}
);
layerId = "33C692B7-ECA1-4228-A9DA-44701B454552";
paths = (
{
closed = 1;
nodes = (
"43 362 LINE",
"84 397 OFFCURVE",
"115 419 OFFCURVE",
"174 419 CURVE SMOOTH",
"253 419 OFFCURVE",
"299 379 OFFCURVE",
"299 284 CURVE SMOOTH",
"299 218 OFFCURVE",
"299 152 OFFCURVE",
"327 101 CURVE",
"388 158 LINE",
"358 320 LINE",
"378 425 OFFCURVE",
"324 484 OFFCURVE",
"189 484 CURVE",
"144 463 OFFCURVE",
"86 417 OFFCURVE",
"38 368 CURVE"
);
},
{
closed = 1;
nodes = (
"174 221 OFFCURVE",
"228 230 OFFCURVE",
"304 212 CURVE",
"304 272 LINE",
"196 250 OFFCURVE",
"77 187 OFFCURVE",
"37 137 CURVE",
"29 43 OFFCURVE",
"79 -14 OFFCURVE",
"175 -14 CURVE",
"222 6 OFFCURVE",
"281 27 OFFCURVE",
"369 153 CURVE",
"322 122 LINE",
"279 72 OFFCURVE",
"246 55 OFFCURVE",
"208 55 CURVE SMOOTH",
"144 55 OFFCURVE",
"118 118 OFFCURVE",
"128 187 CURVE"
);
}
);
width = 719;
},
{
anchors = (
{
name = bottom;
position = "{697, 0}";
},
{
name = top;
position = "{697, 480}";
}
);
components = (
{
name = e;
transform = "{0.98, 0, 0, 1, 273, 0}";
}
);
layerId = "6E858C87-3851-4F0D-A4B8-5C62800DDA3D";
paths = (
{
closed = 1;
nodes = (
"83 389 OFFCURVE",
"122 406 OFFCURVE",
"163 406 CURVE SMOOTH",
"222 406 OFFCURVE",
"293 373 OFFCURVE",
"293 303 CURVE SMOOTH",
"293 248 LINE",
"435 150 LINE",
"417 340 LINE SMOOTH",
"407 446 OFFCURVE",
"342 504 OFFCURVE",
"210 494 CURVE",
"156 461 OFFCURVE",
"104 422 OFFCURVE",
"50 367 CURVE",
"57 357 LINE"
);
},
{
closed = 1;
nodes = (
"196 218 OFFCURVE",
"252 228 OFFCURVE",
"309 210 CURVE",
"309 280 LINE",
"187 258 OFFCURVE",
"76 185 OFFCURVE",
"39 145 CURVE",
"15 61 OFFCURVE",
"64 -14 OFFCURVE",
"184 -14 CURVE",
"232 7 OFFCURVE",
"281 39 OFFCURVE",
"364 135 CURVE",
"359 143 LINE",
"293 86 OFFCURVE",
"256 83 OFFCURVE",
"240 83 CURVE SMOOTH",
"175 83 OFFCURVE",
"138 141 OFFCURVE",
"154 204 CURVE"
);
}
);
width = 767;
}
);
leftKerningGroup = a;
leftMetricsKey = a;
rightKerningGroup = e;
rightMetricsKey = e;
unicode = 00E6;
}
{
color = 3;
glyphname = brokenbar;
layers = (
{
layerId = "33C692B7-ECA1-4228-A9DA-44701B454552";
paths = (
{
closed = 1;
nodes = (
"138 310 LINE",
"138 750 LINE",
"100 750 LINE",
"100 310 LINE"
);
},
{
closed = 1;
nodes = (
"138 -250 LINE",
"138 190 LINE",
"100 190 LINE",
"100 -250 LINE"
);
}
);
width = 238;
},
{
layerId = "6E858C87-3851-4F0D-A4B8-5C62800DDA3D";
paths = (
{
closed = 1;
nodes = (
"181 310 LINE",
"181 750 LINE",
"121 750 LINE",
"121 310 LINE"
);
},
{
closed = 1;
nodes = (
"181 -250 LINE",
"181 190 LINE",
"121 190 LINE",
"121 -250 LINE"
);
}
);
width = 302;
}
);
leftKerningGroup = brokenbar;
leftMetricsKey = bar;
rightKerningGroup = brokenbar;
rightMetricsKey = bar;
unicode = 00A6;
}
{
color = 3;
glyphname = cent;
layers = (
{
components = (
{
name = c;
transform = "{1, 0, 0, 1, 0, 100}";
}
);
layerId = "33C692B7-ECA1-4228-A9DA-44701B454552";
paths = (
{
closed = 1;
nodes = (
"228 788 LINE",
"228 -106 LINE",
"251 -106 LINE",
"251 788 LINE"
);
}
);
width = 467;
},
{
components = (
{
alignment = -1;
name = c;
transform = "{1, 0, 0, 1, 0, 83}";
}
);
layerId = "6E858C87-3851-4F0D-A4B8-5C62800DDA3D";
paths = (
{
closed = 1;
nodes = (
"246 788 LINE",
"246 -106 LINE",
"281 -106 LINE",
"281 788 LINE"
);
}
);
width = 487;
}
);
leftKerningGroup = o;
leftMetricsKey = c;
rightKerningGroup = c;
rightMetricsKey = c;
unicode = 00A2;
}
{
color = 3;
glyphname = copyright;
layers = (
{
anchors = (
{
name = bottom;
position = "{366, 127}";
},
{
name = top;
position = "{385, 574}";
}
);
layerId = "33C692B7-ECA1-4228-A9DA-44701B454552";
paths = (
{
closed = 1;
nodes = (
"602 -14 OFFCURVE",
"766 149 OFFCURVE",
"766 349 CURVE SMOOTH",
"766 551 OFFCURVE",
"602 715 OFFCURVE",
"401 715 CURVE SMOOTH",
"200 715 OFFCURVE",
"36 551 OFFCURVE",
"36 349 CURVE SMOOTH",
"36 149 OFFCURVE",
"200 -14 OFFCURVE",
"401 -14 CURVE SMOOTH"
);
},
{
closed = 1;
nodes = (
"220 29 OFFCURVE",
"83 169 OFFCURVE",
"83 349 CURVE SMOOTH",
"83 531 OFFCURVE",
"220 672 OFFCURVE",
"401 672 CURVE SMOOTH",
"582 672 OFFCURVE",
"719 531 OFFCURVE",
"719 349 CURVE SMOOTH",
"719 169 OFFCURVE",
"582 29 OFFCURVE",
"401 29 CURVE SMOOTH"
);
},
{
closed = 1;
nodes = (
"198 212 OFFCURVE",
"282 126 OFFCURVE",
"419 126 CURVE",
"469 144 OFFCURVE",
"544 205 OFFCURVE",
"561 221 CURVE",
"556 228 LINE",
"458 170 LINE",
"353 165 OFFCURVE",
"270 256 OFFCURVE",
"270 369 CURVE SMOOTH",
"270 479 OFFCURVE",
"320 542 OFFCURVE",
"381 542 CURVE SMOOTH",
"444 542 OFFCURVE",
"501 504 OFFCURVE",
"525 444 CURVE",
"532 445 LINE",
"532 558 LINE",
"491 573 OFFCURVE",
"447 582 OFFCURVE",
"404 580 CURVE",
"280 535 OFFCURVE",
"198 464 OFFCURVE",
"198 331 CURVE SMOOTH"
);
}
);
width = 805;
},
{
layerId = "6E858C87-3851-4F0D-A4B8-5C62800DDA3D";
paths = (
{
closed = 1;
nodes = (
"634 -37 OFFCURVE",
"809 136 OFFCURVE",
"809 349 CURVE SMOOTH",
"809 563 OFFCURVE",
"634 738 OFFCURVE",
"421 738 CURVE SMOOTH",
"208 738 OFFCURVE",
"33 563 OFFCURVE",
"33 349 CURVE SMOOTH",
"33 136 OFFCURVE",
"208 -37 OFFCURVE",
"421 -37 CURVE SMOOTH"
);
},
{
closed = 1;
nodes = (
"240 29 OFFCURVE",
"103 169 OFFCURVE",
"103 349 CURVE SMOOTH",
"103 531 OFFCURVE",
"240 672 OFFCURVE",
"421 672 CURVE SMOOTH",
"602 672 OFFCURVE",
"739 531 OFFCURVE",
"739 349 CURVE SMOOTH",
"739 169 OFFCURVE",
"602 29 OFFCURVE",
"421 29 CURVE SMOOTH"
);
},
{
closed = 1;
nodes = (
"204 203 OFFCURVE",
"295 130 OFFCURVE",
"429 126 CURVE",
"494 159 OFFCURVE",
"551 200 OFFCURVE",
"585 229 CURVE",
"580 238 LINE",
"537 214 OFFCURVE",
"515 203 OFFCURVE",
"474 185 CURVE",
"365 185 OFFCURVE",
"307 283 OFFCURVE",
"307 397 CURVE SMOOTH",
"307 475 OFFCURVE",
"336 526 OFFCURVE",
"411 526 CURVE SMOOTH",
"481 526 OFFCURVE",
"536 485 OFFCURVE",
"558 428 CURVE",
"567 428 LINE",
"565 557 LINE",
"524 568 OFFCURVE",
"493 574 OFFCURVE",
"428 574 CURVE",
"337 546 OFFCURVE",
"204 470 OFFCURVE",
"204 332 CURVE SMOOTH"
);
}
);
width = 844;
}
);
leftKerningGroup = copyright;
leftMetricsKey = o;
rightKerningGroup = copyright;
rightMetricsKey = o;
unicode = 00A9;
}
{
color = 3;
glyphname = currency;
layers = (
{
layerId = "33C692B7-ECA1-4228-A9DA-44701B454552";
paths = (
{
closed = 1;
nodes = (
"269 326 LINE",
"369 428 LINE",
"340 457 LINE",
"240 355 LINE"
);
},
{
closed = 1;
nodes = (
"160 357 LINE",
"60 457 LINE",
"31 428 LINE",
"131 329 LINE"
);
},
{
closed = 1;
nodes = (
"242 212 LINE",
"340 112 LINE",
"370 142 LINE",
"272 240 LINE"
);
},
{
closed = 1;
nodes = (
"134 239 LINE",
"30 142 LINE",
"60 112 LINE",
"162 210 LINE"
);
},
{
closed = 1;
nodes = (
"266 165 OFFCURVE",
"317 216 OFFCURVE",
"317 282 CURVE SMOOTH",
"317 348 OFFCURVE",
"266 399 OFFCURVE",
"200 399 CURVE SMOOTH",
"134 399 OFFCURVE",
"83 348 OFFCURVE",
"83 282 CURVE SMOOTH",
"83 216 OFFCURVE",
"134 165 OFFCURVE",
"200 165 CURVE SMOOTH"
);
},
{
closed = 1;
nodes = (
"159 208 OFFCURVE",
"126 240 OFFCURVE",
"126 282 CURVE SMOOTH",
"126 323 OFFCURVE",
"159 356 OFFCURVE",
"200 356 CURVE SMOOTH",
"241 356 OFFCURVE",
"274 323 OFFCURVE",
"274 282 CURVE SMOOTH",
"274 240 OFFCURVE",
"241 208 OFFCURVE",
"200 208 CURVE SMOOTH"
);
}
);
width = 400;
},
{
layerId = "6E858C87-3851-4F0D-A4B8-5C62800DDA3D";
paths = (
{
closed = 1;
nodes = (
"292 333 LINE",
"405 448 LINE",
"363 490 LINE",
"250 375 LINE"
);
},
{
closed = 1;
nodes = (
"196 377 LINE",
"83 490 LINE",
"41 448 LINE",
"154 336 LINE"
);
},
{
closed = 1;
nodes = (
"252 232 LINE",
"363 119 LINE",
"406 162 LINE",
"295 272 LINE"
);
},
{
closed = 1;
nodes = (
"157 272 LINE",
"40 162 LINE",
"83 119 LINE",
"198 230 LINE"
);
},
{
closed = 1;
nodes = (
"295 177 OFFCURVE",
"350 232 OFFCURVE",
"350 302 CURVE SMOOTH",
"350 372 OFFCURVE",
"295 427 OFFCURVE",
"223 427 CURVE SMOOTH",
"151 427 OFFCURVE",
"96 372 OFFCURVE",
"96 302 CURVE SMOOTH",
"96 232 OFFCURVE",
"151 177 OFFCURVE",
"223 177 CURVE SMOOTH"
);
},
{
closed = 1;
nodes = (
"187 236 OFFCURVE",
"159 263 OFFCURVE",
"159 302 CURVE SMOOTH",
"159 340 OFFCURVE",
"187 368 OFFCURVE",
"223 368 CURVE SMOOTH",
"259 368 OFFCURVE",
"287 340 OFFCURVE",
"287 302 CURVE SMOOTH",
"287 263 OFFCURVE",
"259 236 OFFCURVE",
"223 236 CURVE SMOOTH"
);
}
);
width = 446;
}
);
leftKerningGroup = currency;
rightKerningGroup = currency;
unicode = 00A4;
}
{
color = 3;
glyphname = divide;
layers = (
{
layerId = "33C692B7-ECA1-4228-A9DA-44701B454552";
paths = (
{
closed = 1;
nodes = (
"426 216 LINE",
"426 256 LINE",
"50 256 LINE",
"50 216 LINE"
);
},
{
closed = 1;
nodes = (
"265 317 OFFCURVE",
"285 338 OFFCURVE",
"285 365 CURVE SMOOTH",
"285 390 OFFCURVE",
"265 411 OFFCURVE",
"238 411 CURVE SMOOTH",
"213 411 OFFCURVE",
"191 390 OFFCURVE",
"191 365 CURVE SMOOTH",
"191 338 OFFCURVE",
"213 317 OFFCURVE",
"238 317 CURVE SMOOTH"
);
},
{
closed = 1;
nodes = (
"265 62 OFFCURVE",
"285 83 OFFCURVE",
"285 110 CURVE SMOOTH",
"285 135 OFFCURVE",
"265 156 OFFCURVE",
"238 156 CURVE SMOOTH",
"213 156 OFFCURVE",
"191 135 OFFCURVE",
"191 110 CURVE SMOOTH",
"191 83 OFFCURVE",
"213 62 OFFCURVE",
"238 62 CURVE SMOOTH"
);
}
);
width = 476;
},
{
layerId = "6E858C87-3851-4F0D-A4B8-5C62800DDA3D";
paths = (
{
closed = 1;
nodes = (
"426 207 LINE",
"426 265 LINE",
"50 265 LINE",
"50 207 LINE"
);
},
{
closed = 1;
nodes = (
"269 316 OFFCURVE",
"292 341 OFFCURVE",
"292 371 CURVE SMOOTH",
"292 401 OFFCURVE",
"269 425 OFFCURVE",
"238 425 CURVE SMOOTH",
"209 425 OFFCURVE",
"184 401 OFFCURVE",
"184 371 CURVE SMOOTH",
"184 341 OFFCURVE",
"209 316 OFFCURVE",
"238 316 CURVE SMOOTH"
);
},
{
closed = 1;
nodes = (
"269 46 OFFCURVE",
"292 71 OFFCURVE",
"292 101 CURVE SMOOTH",
"292 131 OFFCURVE",
"269 155 OFFCURVE",
"238 155 CURVE SMOOTH",
"209 155 OFFCURVE",
"184 131 OFFCURVE",
"184 101 CURVE SMOOTH",
"184 71 OFFCURVE",
"209 46 OFFCURVE",
"238 46 CURVE SMOOTH"
);
}
);
width = 476;
}
);
leftKerningGroup = divide;
rightKerningGroup = divide;
unicode = 00F7;
}
{
color = 3;
glyphname = eth;
layers = (
{
anchors = (
{
name = top;
position = "{272, 470}";
}
);
background = {
anchors = (
{
name = bottom;
position = "{264, 0}";
},
{
name = top;
position = "{264, 750}";
}
);
components = (
{
name = endash;
transform = "{-0.86603, -0.5, 0.17235, -0.29852, 394, 775}";
}
);
paths = (
{
closed = 1;
nodes = (
"30 81 OFFCURVE",
"103 -13 OFFCURVE",
"250 -13 CURVE",
"296 -8 OFFCURVE",
"497 88 OFFCURVE",
"497 254 CURVE SMOOTH",
"497 258 LINE",
"495 559 OFFCURVE",
"234 711 OFFCURVE",
"91 750 CURVE",
"86 736 LINE",
"182 721 OFFCURVE",
"274 604 OFFCURVE",
"345 484 CURVE",
"348 480 OFFCURVE",
"367 434 OFFCURVE",
"370 430 CURVE",
"332 477 LINE",
"315 480 OFFCURVE",
"297 482 OFFCURVE",
"278 482 CURVE",
"218 477 OFFCURVE",
"30 373 OFFCURVE",
"30 228 CURVE SMOOTH"
);
},
{
closed = 1;
nodes = (
"122 352 OFFCURVE",
"148 443 OFFCURVE",
"244 443 CURVE SMOOTH",
"318 443 OFFCURVE",
"409 344 OFFCURVE",
"409 206 CURVE SMOOTH",
"409 140 OFFCURVE",
"367 20 OFFCURVE",
"284 20 CURVE SMOOTH",
"217 20 OFFCURVE",
"122 108 OFFCURVE",
"122 256 CURVE SMOOTH"
);
}
);
};
layerId = "33C692B7-ECA1-4228-A9DA-44701B454552";
paths = (
{
closed = 1;
nodes = (
"301 -8 OFFCURVE",
"502 55 OFFCURVE",
"502 252 CURVE SMOOTH",
"502 492 OFFCURVE",
"347 691 OFFCURVE",
"131 750 CURVE",
"126 736 LINE",
"288 661 OFFCURVE",
"342 535 OFFCURVE",
"364 446 CURVE",
"334 465 OFFCURVE",
"302 477 OFFCURVE",
"268 484 CURVE",
"210 466 OFFCURVE",
"36 398 OFFCURVE",
"36 219 CURVE SMOOTH",
"36 86 OFFCURVE",
"115 -19 OFFCURVE",
"258 -14 CURVE"
);
},
{
closed = 1;
nodes = (
"200 12 OFFCURVE",
"134 121 OFFCURVE",
"134 259 CURVE SMOOTH",
"134 371 OFFCURVE",
"178 452 OFFCURVE",
"244 452 CURVE SMOOTH",
"333 452 OFFCURVE",
"402 349 OFFCURVE",
"402 214 CURVE SMOOTH",
"402 101 OFFCURVE",
"357 12 OFFCURVE",
"288 12 CURVE SMOOTH"
);
},
{
closed = 1;
nodes = (
"153 541 LINE",
"394 693 LINE",
"384 706 LINE",
"144 556 LINE"
);
}
);
width = 547;
},
{
anchors = (
{
name = bottom;
position = "{284, 0}";
},
{
name = center;
position = "{289, 240}";
},
{
name = ogonek;
position = "{515, 10}";
},
{
name = top;
position = "{284, 750}";
},
{
name = topright;
position = "{552, 480}";
}
);
background = {
components = (
{
name = o;
transform = "{1, 0, 0, 1, 6, 0}";
}
);
};
layerId = "6E858C87-3851-4F0D-A4B8-5C62800DDA3D";
paths = (
{
closed = 1;
nodes = (
"250 22 OFFCURVE",
"189 132 OFFCURVE",
"189 271 CURVE SMOOTH",
"189 375 OFFCURVE",
"222 462 OFFCURVE",
"266 462 CURVE SMOOTH",
"331 462 OFFCURVE",
"388 343 OFFCURVE",
"388 204 CURVE SMOOTH",
"388 104 OFFCURVE",
"358 27 OFFCURVE",
"318 25 CURVE SMOOTH"
);
},
{
closed = 1;
nodes = (
"197 480 OFFCURVE",
"33 416 OFFCURVE",
"33 226 CURVE SMOOTH",
"33 108 OFFCURVE",
"106 -15 OFFCURVE",
"273 -15 CURVE SMOOTH",
"284 -15 OFFCURVE",
"296 -14 OFFCURVE",
"309 -13 CURVE",
"366 11 OFFCURVE",
"544 73 OFFCURVE",
"544 258 CURVE SMOOTH",
"544 495 OFFCURVE",
"373 698 OFFCURVE",
"160 756 CURVE",
"151 736 LINE",
"264 700 OFFCURVE",
"365 563 OFFCURVE",
"384 452 CURVE",
"353 473 OFFCURVE",
"320 487 OFFCURVE",
"295 494 CURVE"
);
},
{
closed = 1;
nodes = (
"152 537 LINE",
"444 719 LINE",
"431 738 LINE",
"140 558 LINE"
);
}
);
width = 589;
}
);
leftKerningGroup = eth;
leftMetricsKey = d;
rightKerningGroup = eth;
unicode = 00F0;
}
{
color = 3;
glyphname = germandbls;
layers = (
{
anchors = (
{
name = bottom;
position = "{253, 0}";
},
{
name = top;
position = "{253, 750}";
}
);
background = {
hints = (
{
origin = "{0, 23}";
type = Corner;
name = _corner.lcSerif;
}
);
paths = (
{
closed = 1;
nodes = (
"194 680 OFFCURVE",
"221 689 OFFCURVE",
"248 689 CURVE SMOOTH",
"328 689 OFFCURVE",
"364 635 OFFCURVE",
"364 570 CURVE SMOOTH",
"364 534 OFFCURVE",
"353 510 OFFCURVE",
"342 485 CURVE",
"359 491 LINE",
"401 533 OFFCURVE",
"432 569 OFFCURVE",
"432 627 CURVE SMOOTH",
"432 708 OFFCURVE",
"373 750 OFFCURVE",
"263 750 CURVE",
"182 710 OFFCURVE",
"115 637 OFFCURVE",
"85 534 CURVE",
"85 470 LINE",
"18 466 LINE",
"18 452 LINE",
"85 452 LINE",
"85 0 LINE",
"174 0 LINE",
"174 665 LINE"
);
},
{
closed = 1;
nodes = (
"265 16 OFFCURVE",
"322 -16 OFFCURVE",
"392 -16 CURVE",
"501 12 OFFCURVE",
"566 42 OFFCURVE",
"568 126 CURVE SMOOTH",
"569 276 OFFCURVE",
"301 316 OFFCURVE",
"301 431 CURVE SMOOTH",
"301 468 OFFCURVE",
"328 476 OFFCURVE",
"359 495 CURVE",
"358 504 LINE",
"276 473 OFFCURVE",
"236 441 OFFCURVE",
"236 373 CURVE SMOOTH",
"236 221 OFFCURVE",
"491 210 OFFCURVE",
"491 83 CURVE SMOOTH",
"491 32 OFFCURVE",
"446 9 OFFCURVE",
"415 9 CURVE SMOOTH",
"348 9 OFFCURVE",
"280 103 OFFCURVE",
"243 168 CURVE",
"233 163 LINE",
"232 46 LINE"
);
}
);
};
hints = (
{
origin = "{0, 42}";
type = Corner;
name = _corner.lcSerif;
}
);
layerId = "33C692B7-ECA1-4228-A9DA-44701B454552";
paths = (
{
closed = 1;
nodes = (
"194 680 OFFCURVE",
"221 684 OFFCURVE",
"251 684 CURVE SMOOTH",
"327 684 OFFCURVE",
"371 602 OFFCURVE",
"353 498 CURVE",
"256 456 OFFCURVE",
"236 412 OFFCURVE",
"236 372 CURVE SMOOTH",
"236 228 OFFCURVE",
"451 210 OFFCURVE",
"451 73 CURVE SMOOTH",
"451 29 OFFCURVE",
"426 6 OFFCURVE",
"395 6 CURVE SMOOTH",
"328 6 OFFCURVE",
"280 103 OFFCURVE",
"243 168 CURVE",
"233 163 LINE",
"232 46 LINE",
"265 16 OFFCURVE",
"322 -16 OFFCURVE",
"392 -16 CURVE",
"501 12 OFFCURVE",
"548 42 OFFCURVE",
"548 116 CURVE SMOOTH",
"548 287 OFFCURVE",
"301 302 OFFCURVE",
"301 442 CURVE",
"388 494 OFFCURVE",
"437 541 OFFCURVE",
"437 617 CURVE SMOOTH",
"437 698 OFFCURVE",
"380 750 OFFCURVE",
"263 750 CURVE",
"182 710 OFFCURVE",
"115 637 OFFCURVE",
"85 534 CURVE",
"85 470 LINE",
"18 466 LINE",
"18 452 LINE",
"85 452 LINE",
"85 0 LINE",
"174 0 LINE",
"174 665 LINE"
);
}
);
width = 568;
},
{
anchors = (
{
name = bottom;
position = "{330, 0}";
},
{
name = top;
position = "{330, 750}";
}
);
background = {
hints = (
{
origin = "{0, 42}";
type = Corner;
name = _corner.lcSerif;
}
);
paths = (
{
closed = 1;
nodes = (
"233 680 OFFCURVE",
"260 684 OFFCURVE",
"290 684 CURVE SMOOTH",
"377 684 OFFCURVE",
"413 618 OFFCURVE",
"392 498 CURVE",
"295 456 OFFCURVE",
"275 412 OFFCURVE",
"275 372 CURVE SMOOTH",
"275 228 OFFCURVE",
"500 210 OFFCURVE",
"500 73 CURVE SMOOTH",
"500 32 OFFCURVE",
"475 9 OFFCURVE",
"444 9 CURVE SMOOTH",
"377 9 OFFCURVE",
"319 103 OFFCURVE",
"282 168 CURVE",
"272 163 LINE",
"271 46 LINE",
"304 16 OFFCURVE",
"361 -16 OFFCURVE",
"431 -16 CURVE",
"540 12 OFFCURVE",
"587 42 OFFCURVE",
"587 116 CURVE SMOOTH",
"587 287 OFFCURVE",
"340 302 OFFCURVE",
"340 442 CURVE",
"427 494 OFFCURVE",
"476 541 OFFCURVE",
"476 617 CURVE SMOOTH",
"476 698 OFFCURVE",
"419 750 OFFCURVE",
"302 750 CURVE",
"221 710 OFFCURVE",
"154 637 OFFCURVE",
"124 534 CURVE",
"124 470 LINE",
"57 466 LINE",
"57 452 LINE",
"124 452 LINE",
"124 0 LINE",
"213 0 LINE",
"213 665 LINE"
);
}
);
};
hints = (
{
origin = "{0, 39}";
type = Corner;
name = _corner.lcSerif;
}
);
layerId = "6E858C87-3851-4F0D-A4B8-5C62800DDA3D";
paths = (
{
closed = 1;
nodes = (
"343 685 OFFCURVE",
"385 594 OFFCURVE",
"385 469 CURVE",
"344 443 OFFCURVE",
"284 416 OFFCURVE",
"284 352 CURVE SMOOTH",
"284 211 OFFCURVE",
"504 174 OFFCURVE",
"504 64 CURVE SMOOTH",
"504 30 OFFCURVE",
"485 8 OFFCURVE",
"456 8 CURVE SMOOTH",
"388 8 OFFCURVE",
"343 96 OFFCURVE",
"296 186 CURVE",
"283 188 LINE",
"281 43 LINE",
"304 13 OFFCURVE",
"355 -16 OFFCURVE",
"445 -19 CURVE",
"540 18 OFFCURVE",
"621 48 OFFCURVE",
"621 137 CURVE SMOOTH",
"621 286 OFFCURVE",
"388 321 OFFCURVE",
"389 440 CURVE",
"436 459 OFFCURVE",
"501 499 OFFCURVE",
"501 599 CURVE SMOOTH",
"501 721 OFFCURVE",
"404 755 OFFCURVE",
"312 755 CURVE",
"225 735 OFFCURVE",
"96 622 OFFCURVE",
"80 539 CURVE",
"80 480 LINE",
"10 476 LINE",
"10 456 LINE",
"81 456 LINE",
"81 0 LINE",
"225 0 LINE",
"221 677 LINE",
"237 682 OFFCURVE",
"252 685 OFFCURVE",
"267 685 CURVE SMOOTH"
);
}
);
width = 631;
}
);
leftKerningGroup = h;
leftMetricsKey = f;
rightKerningGroup = germandbls;
unicode = 00DF;
}
{
color = 3;
glyphname = logicalnot;
layers = (
{
layerId = "33C692B7-ECA1-4228-A9DA-44701B454552";
paths = (
{
closed = 1;
nodes = (
"472 218 LINE",
"472 256 LINE",
"72 256 LINE",
"72 218 LINE"
);
},
{
closed = 1;
nodes = (
"471 60 LINE",
"472 238 LINE",
"433 238 LINE",
"433 60 LINE"
);
}
);
width = 572;
},
{
layerId = "6E858C87-3851-4F0D-A4B8-5C62800DDA3D";
paths = (
{
closed = 1;
nodes = (
"450 207 LINE",
"450 265 LINE",
"50 265 LINE",
"50 207 LINE"
);
},
{
closed = 1;
nodes = (
"449 60 LINE",
"450 238 LINE",
"386 238 LINE",
"386 60 LINE"
);
}
);
width = 500;
}
);
leftKerningGroup = logicalnot;
rightKerningGroup = logicalnot;
unicode = 00AC;
}
{
color = 3;
glyphname = micro;
layers = (
{
background = {
paths = (
{
closed = 1;
nodes = (
"460 0 LINE",
"460 468 LINE",
"446 470 LINE",
"304 452 LINE",
"304 446 LINE",
"371 442 LINE",
"371 107 LINE",
"338 75 OFFCURVE",
"290 56 OFFCURVE",
"250 56 CURVE SMOOTH",
"188 56 OFFCURVE",
"157 92 OFFCURVE",
"157 187 CURVE SMOOTH",
"157 467 LINE",
"141 470 LINE",
"0 452 LINE",
"0 446 LINE",
"68 441 LINE",
"68 151 LINE SMOOTH",
"68 46 OFFCURVE",
"119 -13 OFFCURVE",
"224 -13 CURVE",
"270 8 OFFCURVE",
"334 55 OFFCURVE",
"374 100 CURVE",
"375 100 LINE",
"375 0 LINE"
);
}
);
};
layerId = "33C692B7-ECA1-4228-A9DA-44701B454552";
paths = (
{
closed = 1;
nodes = (
"66 442 LINE",
"67 -208 LINE",
"156 -149 LINE",
"140 -127 OFFCURVE",
"115 -11 OFFCURVE",
"114 25 CURVE",
"139 3 OFFCURVE",
"174 -9 OFFCURVE",
"222 -12 CURVE",
"241 -11 OFFCURVE",
"333 53 OFFCURVE",
"377 108 CURVE",
"381 108 LINE",
"372 2 LINE",
"384 0 LINE",
"526 0 LINE",
"526 6 LINE",
"458 23 LINE",
"458 470 LINE",
"300 453 LINE",
"300 448 LINE",
"369 445 LINE",
"369 115 LINE",
"329 67 OFFCURVE",
"261 57 OFFCURVE",
"236 57 CURVE SMOOTH",
"192 57 OFFCURVE",
"155 84 OFFCURVE",
"155 187 CURVE SMOOTH",
"155 470 LINE",
"-5 453 LINE",
"-5 448 LINE"
);
}
);
width = 536;
},
{
background = {
paths = (
{
closed = 1;
nodes = (
"97 4 LINE",
"96 12 OFFCURVE",
"95 20 OFFCURVE",
"95 25 CURVE",
"120 3 OFFCURVE",
"155 -9 OFFCURVE",
"203 -12 CURVE",
"222 -11 OFFCURVE",
"314 53 OFFCURVE",
"358 108 CURVE",
"362 108 LINE",
"353 2 LINE",
"365 0 LINE",
"507 0 LINE",
"507 6 LINE",
"439 23 LINE",
"439 470 LINE",
"281 470 LINE",
"281 465 LINE",
"350 454 LINE",
"350 115 LINE",
"310 67 OFFCURVE",
"242 57 OFFCURVE",
"217 57 CURVE SMOOTH",
"173 57 OFFCURVE",
"136 84 OFFCURVE",
"136 187 CURVE SMOOTH",
"136 470 LINE",
"-24 453 LINE",
"-24 448 LINE",
"47 442 LINE",
"48 40 LINE"
);
},
{
closed = 1;
nodes = (
"48 40 LINE",
"48 -208 LINE",
"137 -149 LINE",
"123 -130 OFFCURVE",
"103 -44 OFFCURVE",
"97 4 CURVE"
);
}
);
};
components = (
{
name = u;
}
);
layerId = "6E858C87-3851-4F0D-A4B8-5C62800DDA3D";
paths = (
{
closed = 1;
nodes = (
"56 164 LINE",
"57 -238 LINE",
"178 -149 LINE",
"164 -130 OFFCURVE",
"141 -37 OFFCURVE",
"136 19 CURVE"
);
}
);
width = 566;
}
);
leftKerningGroup = micro;
leftMetricsKey = u;
rightKerningGroup = micro;
rightMetricsKey = u;
unicode = 00B5;
}
{
color = 3;
glyphname = multiply;
layers = (
{
layerId = "33C692B7-ECA1-4228-A9DA-44701B454552";
paths = (
{
closed = 1;
nodes = (
"210 209 LINE",
"342 72 LINE",
"370 100 LINE",
"237 236 LINE",
"369 370 LINE",
"342 397 LINE",
"210 263 LINE",
"78 397 LINE",
"51 370 LINE",
"183 236 LINE",
"50 100 LINE",
"78 72 LINE"
);
}
);
width = 420;
},
{
layerId = "6E858C87-3851-4F0D-A4B8-5C62800DDA3D";
paths = (
{
closed = 1;
nodes = (
"215 197 LINE",
"342 64 LINE",
"382 105 LINE",
"255 235 LINE",
"382 364 LINE",
"344 402 LINE",
"219 275 LINE",
"92 405 LINE",
"52 365 LINE",
"179 237 LINE",
"51 106 LINE",
"90 67 LINE"
);
}
);
width = 434;
}
);
leftKerningGroup = multiply;
rightKerningGroup = multiply;
unicode = 00D7;
}
{
color = 8;
glyphname = oslash;
layers = (
{
anchors = (
{
name = top;
position = "{266, 470}";
}
);
components = (
{
name = o;
}
);
layerId = "33C692B7-ECA1-4228-A9DA-44701B454552";
paths = (
{
closed = 1;
nodes = (
"96 -53 LINE",
"480 495 LINE",
"452 511 LINE",
"68 -37 LINE"
);
}
);
width = 531;
},
{
anchors = (
{
name = top;
position = "{300, 480}";
}
);
components = (
{
name = o;
}
);
layerId = "6E858C87-3851-4F0D-A4B8-5C62800DDA3D";
paths = (
{
closed = 1;
nodes = (
"95 -36 LINE",
"497 504 LINE",
"463 527 LINE",
"62 -13 LINE"
);
}
);
width = 557;
}
);
leftKerningGroup = o;
rightKerningGroup = o;
unicode = 00F8;
}
{
color = 3;
glyphname = paragraph;
layers = (
{
hints = (
{
origin = "{0, 2}";
scale = "{-1, 1}";
type = Corner;
name = _corner.capSerif;
},
{
origin = "{0, 13}";
type = Corner;
name = _corner.capSerif;
},
{
origin = "{0, 12}";
scale = "{-1, 1}";
type = Corner;
name = _corner.capSerif;
}
);
layerId = "33C692B7-ECA1-4228-A9DA-44701B454552";
paths = (
{
closed = 1;
nodes = (
"368 -12 LINE",
"378 716 LINE",
"378 742 LINE",
"141 743 LINE SMOOTH",
"72 743 OFFCURVE",
"-28 672 OFFCURVE",
"-28 558 CURVE SMOOTH",
"-28 411 OFFCURVE",
"84 374 OFFCURVE",
"170 373 CURVE SMOOTH",
"238 372 LINE",
"238 -12 LINE",
"238 -40 LINE",
"368 -40 LINE"
);
},
{
closed = 1;
nodes = (
"329 723 LINE",
"336 -21 LINE",
"269 -21 LINE",
"279 723 LINE"
);
}
);
width = 475;
},
{
hints = (
{
origin = "{0, 9}";
scale = "{-1, 1}";
type = Corner;
name = _corner.capSerif;
},
{
origin = "{0, 10}";
type = Corner;
name = _corner.capSerif;
},
{
origin = "{0, 0}";
scale = "{-1, 1}";
type = Corner;
name = _corner.capSerif;
}
);
layerId = "6E858C87-3851-4F0D-A4B8-5C62800DDA3D";
paths = (
{
closed = 1;
nodes = (
"459 750 LINE",
"215 750 LINE SMOOTH",
"106 750 OFFCURVE",
"6 682 OFFCURVE",
"6 568 CURVE SMOOTH",
"6 402 OFFCURVE",
"118 364 OFFCURVE",
"244 364 CURVE",
"302 363 LINE",
"301 -40 LINE",
"459 -40 LINE"
);
},
{
closed = 1;
nodes = (
"383 723 LINE",
"407 -10 LINE",
"351 -10 LINE",
"361 723 LINE"
);
}
);
width = 600;
}
);
leftKerningGroup = paragraph;
rightKerningGroup = paragraph;
unicode = 00B6;
}
{
color = 3;
glyphname = plusminus;
layers = (
{
layerId = "33C692B7-ECA1-4228-A9DA-44701B454552";
paths = (
{
closed = 1;
nodes = (
"422 56 LINE",
"422 94 LINE",
"54 94 LINE",
"54 56 LINE"
);
},
{
closed = 1;
nodes = (
"422 261 LINE",
"422 298 LINE",
"50 298 LINE",
"50 261 LINE"
);
},
{
closed = 1;
nodes = (
"255 132 LINE",
"255 432 LINE",
"217 432 LINE",
"217 132 LINE"
);
}
);
width = 472;
},
{
components = (
{
name = minus;
transform = "{-0.95155, 0, 0, 0.9, 515, -165}";
}
);
layerId = "6E858C87-3851-4F0D-A4B8-5C62800DDA3D";
paths = (
{
closed = 1;
nodes = (
"254 266 LINE",
"254 133 LINE",
"322 133 LINE",
"322 266 LINE",
"476 266 LINE",
"476 324 LINE",
"322 324 LINE",
"322 455 LINE",
"254 455 LINE",
"254 324 LINE",
"100 324 LINE",
"100 266 LINE"
);
}
);
width = 526;
}
);
leftKerningGroup = emdash;
rightKerningGroup = hyphen;
unicode = 00B1;
}
{
color = 3;
glyphname = registered;
layers = (
{
hints = (
{
origin = "{2, 0}";
scale = "{0.7, 0.7}";
type = Corner;
name = _corner.capSerif;
},
{
origin = "{2, 18}";
scale = "{0.6, 0.7}";
type = Corner;
name = _corner.capSerif;
},
{
origin = "{2, 19}";
scale = "{-0.6, 0.7}";
type = Corner;
name = _corner.capSerif;
}
);
layerId = "33C692B7-ECA1-4228-A9DA-44701B454552";
paths = (
{
closed = 1;
nodes = (
"602 -14 OFFCURVE",
"766 149 OFFCURVE",
"766 349 CURVE SMOOTH",
"766 551 OFFCURVE",
"602 715 OFFCURVE",
"401 715 CURVE SMOOTH",
"200 715 OFFCURVE",
"36 551 OFFCURVE",
"36 349 CURVE SMOOTH",
"36 149 OFFCURVE",
"200 -14 OFFCURVE",
"401 -14 CURVE SMOOTH"
);
},
{
closed = 1;
nodes = (
"220 29 OFFCURVE",
"83 169 OFFCURVE",
"83 349 CURVE SMOOTH",
"83 531 OFFCURVE",
"220 672 OFFCURVE",
"401 672 CURVE SMOOTH",
"582 672 OFFCURVE",
"719 531 OFFCURVE",
"719 349 CURVE SMOOTH",
"719 169 OFFCURVE",
"582 29 OFFCURVE",
"401 29 CURVE SMOOTH"
);
},
{
closed = 1;
nodes = (
"338 149 LINE",
"338 344 LINE",
"394 344 LINE",
"505 149 LINE",
"594 148 LINE",
"620 167 LINE",
"617 173 LINE",
"595 160 LINE",
"558 160 OFFCURVE",
"479 330 OFFCURVE",
"476 338 CURVE",
"419 350 LINE",
"468 356 OFFCURVE",
"555 390 OFFCURVE",
"554 475 CURVE",
"554 546 OFFCURVE",
"496 575 OFFCURVE",
"410 573 CURVE",
"268 572 LINE",
"268 149 LINE"
);
},
{
closed = 1;
nodes = (
"338 551 LINE",
"344 556 OFFCURVE",
"382 559 OFFCURVE",
"392 559 CURVE",
"449 559 OFFCURVE",
"480 518 OFFCURVE",
"480 458 CURVE SMOOTH",
"480 401 OFFCURVE",
"456 363 OFFCURVE",
"402 363 CURVE SMOOTH",
"391 363 OFFCURVE",
"361 363 OFFCURVE",
"338 369 CURVE"
);
}
);
width = 805;
},
{
hints = (
{
origin = "{2, 0}";
scale = "{0.6, 1}";
type = Corner;
name = _corner.capSerif;
},
{
origin = "{2, 9}";
scale = "{0.6, 1}";
type = Corner;
name = _corner.capSerif;
},
{
origin = "{2, 10}";
scale = "{-0.6, 1}";
type = Corner;
name = _corner.capSerif;
}
);
layerId = "6E858C87-3851-4F0D-A4B8-5C62800DDA3D";
paths = (
{
closed = 1;
nodes = (
"634 -37 OFFCURVE",
"809 136 OFFCURVE",
"809 349 CURVE SMOOTH",
"809 563 OFFCURVE",
"634 738 OFFCURVE",
"421 738 CURVE SMOOTH",
"208 738 OFFCURVE",
"33 563 OFFCURVE",
"33 349 CURVE SMOOTH",
"33 136 OFFCURVE",
"208 -37 OFFCURVE",
"421 -37 CURVE SMOOTH"
);
},
{
closed = 1;
nodes = (
"240 29 OFFCURVE",
"103 169 OFFCURVE",
"103 349 CURVE SMOOTH",
"103 531 OFFCURVE",
"240 672 OFFCURVE",
"421 672 CURVE SMOOTH",
"602 672 OFFCURVE",
"739 531 OFFCURVE",
"739 349 CURVE SMOOTH",
"739 169 OFFCURVE",
"602 29 OFFCURVE",
"421 29 CURVE SMOOTH"
);
},
{
closed = 1;
nodes = (
"373 149 LINE",
"373 329 LINE",
"417 329 LINE",
"438 331 OFFCURVE",
"580 348 OFFCURVE",
"579 454 CURVE SMOOTH",
"579 531 OFFCURVE",
"493 556 OFFCURVE",
"433 555 CURVE",
"290 554 LINE",
"290 149 LINE"
);
},
{
closed = 1;
nodes = (
"373 522 LINE",
"379 526 OFFCURVE",
"394 529 OFFCURVE",
"409 529 CURVE SMOOTH",
"452 529 OFFCURVE",
"485 492 OFFCURVE",
"485 447 CURVE SMOOTH",
"485 397 OFFCURVE",
"461 358 OFFCURVE",
"429 358 CURVE SMOOTH",
"407 358 OFFCURVE",
"383 360 OFFCURVE",
"373 362 CURVE"
);
},
{
closed = 1;
nodes = (
"392 329 LINE",
"502 149 LINE",
"601 149 LINE",
"641 176 LINE",
"629 192 LINE",
"594 171 LINE",
"575 171 OFFCURVE",
"499 315 OFFCURVE",
"494 324 CURVE",
"428 332 LINE"
);
}
);
width = 844;
}
);
leftKerningGroup = registered;
leftMetricsKey = o;
rightKerningGroup = registered;
rightMetricsKey = o;
unicode = 00AE;
}
{
color = 3;
glyphname = section;
layers = (
{
layerId = "33C692B7-ECA1-4228-A9DA-44701B454552";
paths = (
{
closed = 1;
nodes = (
"107 -24 OFFCURVE",
"175 -57 OFFCURVE",
"232 -57 CURVE",
"346 -38 OFFCURVE",
"415 12 OFFCURVE",
"415 92 CURVE SMOOTH",
"415 167 OFFCURVE",
"350 204 OFFCURVE",
"282 241 CURVE",
"366 266 OFFCURVE",
"415 315 OFFCURVE",
"415 379 CURVE SMOOTH",
"415 513 OFFCURVE",
"137 554 OFFCURVE",
"137 669 CURVE SMOOTH",
"137 718 OFFCURVE",
"185 746 OFFCURVE",
"225 746 CURVE SMOOTH",
"268 745 OFFCURVE",
"327 716 OFFCURVE",
"379 616 CURVE",
"387 616 LINE",
"384 730 LINE",
"355 745 OFFCURVE",
"269 765 OFFCURVE",
"247 765 CURVE",
"140 746 OFFCURVE",
"77 697 OFFCURVE",
"77 628 CURVE SMOOTH",
"77 557 OFFCURVE",
"143 515 OFFCURVE",
"214 474 CURVE",
"118 454 OFFCURVE",
"60 407 OFFCURVE",
"60 344 CURVE SMOOTH",
"60 212 OFFCURVE",
"333 169 OFFCURVE",
"333 41 CURVE SMOOTH",
"333 -10 OFFCURVE",
"299 -39 OFFCURVE",
"252 -39 CURVE SMOOTH",
"198 -38 OFFCURVE",
"151 -14 OFFCURVE",
"71 134 CURVE",
"63 134 LINE",
"64 9 LINE"
);
},
{
closed = 1;
nodes = (
"128 430 OFFCURVE",
"168 459 OFFCURVE",
"207 459 CURVE SMOOTH",
"222 459 OFFCURVE",
"239 455 OFFCURVE",
"254 451 CURVE",
"302 422 OFFCURVE",
"340 392 OFFCURVE",
"340 344 CURVE SMOOTH",
"340 286 OFFCURVE",
"307 255 OFFCURVE",
"267 249 CURVE",
"197 288 OFFCURVE",
"128 328 OFFCURVE",
"128 388 CURVE SMOOTH"
);
}
);
width = 475;
},
{
layerId = "6E858C87-3851-4F0D-A4B8-5C62800DDA3D";
paths = (
{
closed = 1;
nodes = (
"97 -24 OFFCURVE",
"193 -63 OFFCURVE",
"249 -63 CURVE",
"365 -43 OFFCURVE",
"450 8 OFFCURVE",
"450 93 CURVE SMOOTH",
"450 169 OFFCURVE",
"368 208 OFFCURVE",
"294 250 CURVE",
"383 275 OFFCURVE",
"444 325 OFFCURVE",
"444 401 CURVE SMOOTH",
"444 524 OFFCURVE",
"179 565 OFFCURVE",
"179 686 CURVE SMOOTH",
"179 730 OFFCURVE",
"226 751 OFFCURVE",
"235 751 CURVE SMOOTH",
"323 751 OFFCURVE",
"370 693 OFFCURVE",
"407 613 CURVE",
"422 613 LINE",
"422 742 LINE",
"391 758 OFFCURVE",
"288 778 OFFCURVE",
"265 778 CURVE",
"159 759 OFFCURVE",
"79 708 OFFCURVE",
"79 633 CURVE SMOOTH",
"79 563 OFFCURVE",
"150 516 OFFCURVE",
"222 470 CURVE",
"130 448 OFFCURVE",
"64 400 OFFCURVE",
"64 331 CURVE SMOOTH",
"64 209 OFFCURVE",
"328 157 OFFCURVE",
"328 45 CURVE SMOOTH",
"328 -6 OFFCURVE",
"294 -37 OFFCURVE",
"260 -37 CURVE SMOOTH",
"223 -37 OFFCURVE",
"177 -12 OFFCURVE",
"80 137 CURVE",
"65 137 LINE",
"66 4 LINE"
);
},
{
closed = 1;
nodes = (
"165 429 OFFCURVE",
"212 449 OFFCURVE",
"220 449 CURVE SMOOTH",
"274 449 OFFCURVE",
"322 408 OFFCURVE",
"322 348 CURVE SMOOTH",
"322 299 OFFCURVE",
"292 268 OFFCURVE",
"268 265 CURVE",
"213 299 OFFCURVE",
"165 335 OFFCURVE",
"165 385 CURVE SMOOTH"
);
}
);
width = 480;
}
);
leftKerningGroup = section;
rightKerningGroup = section;
unicode = 00A7;
}
{
color = 3;
glyphname = sterling;
layers = (
{
background = {
paths = (
{
closed = 1;
nodes = (
"165 304 LINE",
"178 271 OFFCURVE",
"186 236 OFFCURVE",
"185 201 CURVE SMOOTH",
"183 151 OFFCURVE",
"121 81 OFFCURVE",
"46 -39 CURVE",
"71 -39 LINE",
"98 3 LINE",
"206 65 OFFCURVE",
"336 5 OFFCURVE",
"408 -29 CURVE",
"447 13 LINE SMOOTH",
"494 64 OFFCURVE",
"541 122 OFFCURVE",
"542 137 CURVE",
"541 184 OFFCURVE",
"525 213 OFFCURVE",
"498 220 CURVE",
"443 137 LINE",
"462 128 OFFCURVE",
"473 116 OFFCURVE",
"475 101 CURVE SMOOTH",
"477 89 OFFCURVE",
"482 71 OFFCURVE",
"454 49 CURVE",
"371 70 OFFCURVE",
"198 111 OFFCURVE",
"141 69 CURVE",
"140 72 LINE",
"202 169 OFFCURVE",
"264 267 OFFCURVE",
"264 304 CURVE",
"435 304 LINE",
"445 323 LINE",
"262 323 LINE",
"260 377 OFFCURVE",
"181 497 OFFCURVE",
"181 563 CURVE SMOOTH",
"181 623 OFFCURVE",
"213 663 OFFCURVE",
"305 663 CURVE SMOOTH",
"362 663 OFFCURVE",
"418 623 OFFCURVE",
"418 594 CURVE",
"421 590 LINE",
"480 672 LINE",
"461 702 OFFCURVE",
"380 714 OFFCURVE",
"329 714 CURVE SMOOTH",
"316 714 LINE SMOOTH",
"250 714 OFFCURVE",
"86 540 OFFCURVE",
"86 515 CURVE SMOOTH",
"86 458 OFFCURVE",
"128 393 OFFCURVE",
"157 323 CURVE",
"32 323 LINE",
"32 304 LINE"
);
}
);
};
layerId = "33C692B7-ECA1-4228-A9DA-44701B454552";
paths = (
{
closed = 1;
nodes = (
"174 326 OFFCURVE",
"171 231 CURVE SMOOTH",
"168 151 OFFCURVE",
"92 81 OFFCURVE",
"21 -26 CURVE",
"39 -39 LINE",
"68 3 LINE",
"192 65 OFFCURVE",
"328 5 OFFCURVE",
"392 -29 CURVE",
"528 123 LINE",
"518 133 LINE",
"425 65 LINE",
"356 98 OFFCURVE",
"215 111 OFFCURVE",
"128 79 CURVE",
"125 82 LINE",
"188 169 OFFCURVE",
"252 239 OFFCURVE",
"252 312 CURVE SMOOTH",
"252 392 OFFCURVE",
"166 496 OFFCURVE",
"166 572 CURVE SMOOTH",
"166 622 OFFCURVE",
"199 663 OFFCURVE",
"282 663 CURVE SMOOTH",
"347 663 OFFCURVE",
"383 623 OFFCURVE",
"397 594 CURVE",
"416 590 LINE",
"478 651 LINE",
"435 700 OFFCURVE",
"393 714 OFFCURVE",
"344 714 CURVE",
"179 686 OFFCURVE",
"95 572 OFFCURVE",
"67 515 CURVE",
"67 398 OFFCURVE"
);
},
{
closed = 1;
nodes = (
"31 337 LINE",
"442 337 LINE",
"442 360 LINE",
"31 360 LINE"
);
}
);
width = 566;
},
{
background = {
paths = (
{
closed = 1;
nodes = (
"39 304 LINE",
"86 302 LINE",
"409 299 LINE",
"419 325 LINE",
"86 329 LINE",
"39 329 LINE"
);
},
{
closed = 1;
nodes = (
"178 298 LINE",
"199 265 OFFCURVE",
"208.21 236.094 OFFCURVE",
"207 201 CURVE SMOOTH",
"205 151 OFFCURVE",
"143 81 OFFCURVE",
"68 -39 CURVE",
"104 -39 LINE",
"131 3 LINE",
"239 78 OFFCURVE",
"379 10 OFFCURVE",
"451 -24 CURVE",
"470 -2 LINE SMOOTH",
"515 51 OFFCURVE",
"572 121 OFFCURVE",
"573 136 CURVE",
"572 183 OFFCURVE",
"545 238 OFFCURVE",
"492 244 CURVE",
"425 157 LINE",
"444 148 OFFCURVE",
"509 117 OFFCURVE",
"509 102 CURVE SMOOTH",
"509 93 OFFCURVE",
"501 84 OFFCURVE",
"495 84 CURVE",
"412 105 OFFCURVE",
"272 156 OFFCURVE",
"215 114 CURVE",
"214 117 LINE",
"296 214 OFFCURVE",
"330 261 OFFCURVE",
"330 298 CURVE",
"457 298 LINE",
"467 333 LINE",
"328 333 LINE",
"326 387 OFFCURVE",
"237 487 OFFCURVE",
"237 553 CURVE SMOOTH",
"237 603 OFFCURVE",
"269 623 OFFCURVE",
"317 623 CURVE SMOOTH",
"394 623 OFFCURVE",
"450 583 OFFCURVE",
"450 554 CURVE",
"453 550 LINE",
"532 672 LINE",
"513 702 OFFCURVE",
"422 714 OFFCURVE",
"351 714 CURVE SMOOTH",
"338 714 LINE SMOOTH",
"272 714 OFFCURVE",
"108 540 OFFCURVE",
"108 515 CURVE SMOOTH",
"108 458 OFFCURVE",
"141 403 OFFCURVE",
"170 333 CURVE",
"54 333 LINE",
"54 298 LINE"
);
}
);
};
layerId = "6E858C87-3851-4F0D-A4B8-5C62800DDA3D";
paths = (
{
closed = 1;
nodes = (
"77 388 OFFCURVE",
"174 326 OFFCURVE",
"171 224 CURVE SMOOTH",
"168 151 OFFCURVE",
"114 72 OFFCURVE",
"40 -25 CURVE",
"60 -39 LINE",
"89 3 LINE",
"211 65 OFFCURVE",
"355 5 OFFCURVE",
"433 -29 CURVE",
"569 141 LINE",
"559 151 LINE",
"486 103 LINE",
"382 116 OFFCURVE",
"281 139 OFFCURVE",
"159 77 CURVE",
"156 80 LINE",
"244 138 OFFCURVE",
"302 208 OFFCURVE",
"302 289 CURVE SMOOTH",
"302 397 OFFCURVE",
"186 471 OFFCURVE",
"186 557 CURVE SMOOTH",
"186 606 OFFCURVE",
"226 633 OFFCURVE",
"275 633 CURVE SMOOTH",
"340 633 OFFCURVE",
"372 584 OFFCURVE",
"386 555 CURVE",
"405 551 LINE",
"508 651 LINE",
"465 700 OFFCURVE",
"410 714 OFFCURVE",
"370 714 CURVE",
"252 691 OFFCURVE",
"107 562 OFFCURVE",
"77 505 CURVE"
);
},
{
closed = 1;
nodes = (
"45 329 LINE",
"469 329 LINE",
"469 359 LINE",
"45 359 LINE"
);
}
);
width = 600;
}
);
leftKerningGroup = sterling;
rightKerningGroup = sterling;
unicode = 00A3;
}
{
color = 3;
glyphname = thorn;
layers = (
{
anchors = (
{
name = bottom;
position = "{254, 0}";
},
{
name = top;
position = "{254, 470}";
}
);
hints = (
{
origin = "{0, 0}";
scale = "{-1.3, 1}";
type = Corner;
name = _corner.lcSerif;
},
{
origin = "{0, 16}";
type = Corner;
name = _corner.topSerif;
},
{
origin = "{0, 17}";
scale = "{1.06742, 1}";
type = Corner;
name = _corner.lcSerif;
}
);
layerId = "33C692B7-ECA1-4228-A9DA-44701B454552";
paths = (
{
closed = 1;
nodes = (
"160 -250 LINE",
"157 -3 LINE",
"182 -10 OFFCURVE",
"212 -14 OFFCURVE",
"249 -14 CURVE",
"315 7 OFFCURVE",
"487 96 OFFCURVE",
"487 252 CURVE SMOOTH",
"487 412 OFFCURVE",
"411 484 OFFCURVE",
"310 484 CURVE",
"264 466 OFFCURVE",
"203 389 OFFCURVE",
"157 330 CURVE",
"154 330 LINE",
"156 750 LINE",
"73 750 LINE",
"70 -249 LINE"
);
},
{
closed = 1;
nodes = (
"157 316 LINE",
"195 366 OFFCURVE",
"239 415 OFFCURVE",
"278 415 CURVE SMOOTH",
"334 415 OFFCURVE",
"402 336 OFFCURVE",
"402 211 CURVE SMOOTH",
"402 86 OFFCURVE",
"363 30 OFFCURVE",
"272 30 CURVE SMOOTH",
"228 30 OFFCURVE",
"157 74 OFFCURVE",
"157 109 CURVE SMOOTH"
);
}
);
width = 543;
},
{
anchors = (
{
name = bottom;
position = "{289, 0}";
},
{
name = top;
position = "{289, 480}";
}
);
background = {
paths = (
{
closed = 1;
nodes = (
"123 723 LINE",
"123 365 LINE",
"120 165 LINE",
"120 -224 LINE",
"37 -243 LINE",
"37 -250 LINE",
"288 -250 LINE",
"287 -243 LINE",
"209 -225 LINE",
"209 -3 LINE",
"234 -10 OFFCURVE",
"264 -14 OFFCURVE",
"303 -14 CURVE",
"370 7 OFFCURVE",
"546 96 OFFCURVE",
"546 252 CURVE SMOOTH",
"546 410 OFFCURVE",
"468 482 OFFCURVE",
"364 482 CURVE",
"316 440 OFFCURVE",
"268 398 OFFCURVE",
"209 329 CURVE",
"207 329 LINE",
"220 751 LINE",
"56 740 LINE",
"56 735 LINE"
);
},
{
closed = 1;
nodes = (
"211 316 LINE",
"249 364 OFFCURVE",
"292 412 OFFCURVE",
"331 413 CURVE SMOOTH",
"389 412 OFFCURVE",
"459 333 OFFCURVE",
"459 211 CURVE SMOOTH",
"459 87 OFFCURVE",
"418 31 OFFCURVE",
"325 30 CURVE SMOOTH",
"288 30 OFFCURVE",
"236 57 OFFCURVE",
"216 88 CURVE SMOOTH",
"213 94 OFFCURVE",
"211 100 OFFCURVE",
"211 107 CURVE SMOOTH"
);
}
);
};
hints = (
{
origin = "{0, 0}";
type = Corner;
name = _corner.lcSerif;
},
{
origin = "{0, 1}";
scale = "{-1.35, 1}";
type = Corner;
name = _corner.lcSerif;
},
{
origin = "{0, 5}";
type = Corner;
name = _corner.topSerif;
}
);
layerId = "6E858C87-3851-4F0D-A4B8-5C62800DDA3D";
paths = (
{
closed = 1;
nodes = (
"72 -270 LINE",
"213 -270 LINE",
"210 34 LINE",
"213 70 LINE",
"214 750 LINE",
"77 750 LINE"
);
},
{
closed = 1;
nodes = (
"209 350 LINE",
"239 380 OFFCURVE",
"267 394 OFFCURVE",
"298 394 CURVE SMOOTH",
"345 394 OFFCURVE",
"386 340 OFFCURVE",
"386 202 CURVE SMOOTH",
"386 86 OFFCURVE",
"354 21 OFFCURVE",
"310 21 CURVE SMOOTH",
"276 21 OFFCURVE",
"228 53 OFFCURVE",
"206 124 CURVE",
"75 38 LINE",
"110 16 OFFCURVE",
"189 -14 OFFCURVE",
"285 -14 CURVE",
"353 7 OFFCURVE",
"535 76 OFFCURVE",
"535 270 CURVE SMOOTH",
"535 387 OFFCURVE",
"452 494 OFFCURVE",
"339 494 CURVE",
"316 475 OFFCURVE",
"208 386 OFFCURVE",
"206 364 CURVE"
);
}
);
width = 566;
}
);
leftKerningGroup = h;
rightKerningGroup = o;
unicode = 00FE;
}
{
glyphname = threesuperior;
layers = (
{
layerId = "33C692B7-ECA1-4228-A9DA-44701B454552";
paths = (
{
closed = 1;
nodes = (
"64 590 LINE",
"98 630 LINE",
"264 629 LINE",
"128 477 LINE",
"136 470 LINE",
"330 682 LINE",
"127 682 LINE",
"57 594 LINE"
);
},
{
closed = 1;
nodes = (
"161 506 LINE",
"223 502 OFFCURVE",
"271 460 OFFCURVE",
"271 388 CURVE SMOOTH",
"271 340 OFFCURVE",
"253 287 OFFCURVE",
"197 287 CURVE SMOOTH",
"147 287 OFFCURVE",
"109 328 OFFCURVE",
"103 373 CURVE",
"96 372 LINE",
"87 360 OFFCURVE",
"65 339 OFFCURVE",
"54 328 CURVE",
"59 280 OFFCURVE",
"99 240 OFFCURVE",
"154 240 CURVE SMOOTH",
"157 240 OFFCURVE",
"161 241 OFFCURVE",
"164 241 CURVE",
"218 273 OFFCURVE",
"325 321 OFFCURVE",
"325 428 CURVE SMOOTH",
"325 503 OFFCURVE",
"274 547 OFFCURVE",
"208 555 CURVE"
);
}
);
width = 378;
},
{
layerId = "6E858C87-3851-4F0D-A4B8-5C62800DDA3D";
paths = (
{
closed = 1;
nodes = (
"56 571 LINE",
"85 607 LINE",
"252 607 LINE",
"138 473 LINE",
"148 465 LINE",
"348 687 LINE",
"131 687 LINE",
"45 578 LINE"
);
},
{
closed = 1;
nodes = (
"159 490 LINE",
"218 481 OFFCURVE",
"264 441 OFFCURVE",
"261 370 CURVE SMOOTH",
"259 317 OFFCURVE",
"236 286 OFFCURVE",
"199 286 CURVE SMOOTH",
"156 286 OFFCURVE",
"118 329 OFFCURVE",
"118 393 CURVE",
"104 396 LINE",
"35 348 LINE",
"42 297 OFFCURVE",
"82 245 OFFCURVE",
"155 245 CURVE",
"222 265 OFFCURVE",
"353 320 OFFCURVE",
"353 432 CURVE SMOOTH",
"353 500 OFFCURVE",
"307 548 OFFCURVE",
"222 559 CURVE"
);
}
);
width = 403;
}
);
leftMetricsKey = three;
rightMetricsKey = three;
unicode = 00B3;
}
{
color = 3;
glyphname = yen;
layers = (
{
components = (
{
name = Y;
}
);
layerId = "33C692B7-ECA1-4228-A9DA-44701B454552";
paths = (
{
closed = 1;
nodes = (
"132 267 LINE",
"506 267 LINE",
"506 290 LINE",
"132 290 LINE"
);
},
{
closed = 1;
nodes = (
"132 197 LINE",
"506 197 LINE",
"506 220 LINE",
"132 220 LINE"
);
}
);
width = 630;
},
{
components = (
{
name = Y;
}
);
layerId = "6E858C87-3851-4F0D-A4B8-5C62800DDA3D";
paths = (
{
closed = 1;
nodes = (
"152 260 LINE",
"576 260 LINE",
"576 290 LINE",
"152 290 LINE"
);
},
{
closed = 1;
nodes = (
"152 190 LINE",
"576 190 LINE",
"576 220 LINE",
"152 220 LINE"
);
}
);
width = 676;
}
);
leftKerningGroup = yen;
rightKerningGroup = yen;
unicode = 00A5;
}
{
color = 3;
glyphname = Germandbls;
layers = (
{
hints = (
{
origin = "{0, 0}";
scale = "{-1, 1}";
type = Corner;
name = _corner.capSerif;
}
);
layerId = "33C692B7-ECA1-4228-A9DA-44701B454552";
paths = (
{
closed = 1;
nodes = (
"112 0 LINE",
"212 0 LINE",
"212 586 OFFCURVE",
"247 669 OFFCURVE",
"362 693 CURVE",
"461 693 LINE",
"325 363 LINE",
"341 353 LINE",
"592 695 LINE",
"584 709 LINE",
"370 709 LINE",
"156 670 OFFCURVE",
"132 575 OFFCURVE",
"112 461 CURVE"
);
},
{
closed = 1;
nodes = (
"269 57 OFFCURVE",
"326 0 OFFCURVE",
"404 0 CURVE SMOOTH",
"409 0 OFFCURVE",
"414 1 OFFCURVE",
"419 1 CURVE",
"495 47 OFFCURVE",
"664 116 OFFCURVE",
"664 268 CURVE SMOOTH",
"664 395 OFFCURVE",
"547 443 OFFCURVE",
"481 443 CURVE",
"339 381 LINE",
"399 380 LINE",
"491 380 OFFCURVE",
"587 324 OFFCURVE",
"587 212 CURVE SMOOTH",
"587 143 OFFCURVE",
"545 67 OFFCURVE",
"465 67 CURVE SMOOTH",
"394 67 OFFCURVE",
"340 126 OFFCURVE",
"332 190 CURVE",
"321 189 LINE",
"308 172 OFFCURVE",
"277 142 OFFCURVE",
"261 126 CURVE"
);
}
);
width = 694;
},
{
background = {
paths = (
{
closed = 1;
nodes = (
"272 664 LINE",
"283 671 OFFCURVE",
"305 680 OFFCURVE",
"325 680 CURVE",
"415 680 OFFCURVE",
"469 609 OFFCURVE",
"469 549 CURVE SMOOTH",
"469 430 OFFCURVE",
"415 381 OFFCURVE",
"335 381 CURVE SMOOTH",
"315 381 OFFCURVE",
"286 381 OFFCURVE",
"272 385 CURVE"
);
},
{
closed = 1;
nodes = (
"378 362 LINE",
"461 375 OFFCURVE",
"634 409 OFFCURVE",
"633 560 CURVE",
"633 670 OFFCURVE",
"496 702 OFFCURVE",
"350 701 CURVE",
"113 700 LINE",
"113 0 LINE",
"272 0 LINE",
"272 372 LINE"
);
},
{
closed = 1;
nodes = (
"242 354 LINE",
"260 360 OFFCURVE",
"297 361 OFFCURVE",
"335 361 CURVE SMOOTH",
"447 360 OFFCURVE",
"499 268 OFFCURVE",
"499 187 CURVE SMOOTH",
"499 90 OFFCURVE",
"438 24 OFFCURVE",
"380 24 CURVE SMOOTH",
"350 24 OFFCURVE",
"269 40 OFFCURVE",
"242 62 CURVE",
"242 0 LINE",
"361 0 LINE SMOOTH",
"472 0 OFFCURVE",
"663 31 OFFCURVE",
"663 194 CURVE",
"663 308 OFFCURVE",
"496 386 OFFCURVE",
"400 383 CURVE",
"242 377 LINE"
);
}
);
};
hints = (
{
origin = "{0, 0}";
scale = "{-1, 1}";
type = Corner;
name = _corner.capSerif;
}
);
layerId = "6E858C87-3851-4F0D-A4B8-5C62800DDA3D";
paths = (
{
closed = 1;
nodes = (
"112 0 LINE",
"270 0 LINE",
"270 586 OFFCURVE",
"302 661 OFFCURVE",
"427 685 CURVE",
"494 685 LINE",
"385 346 LINE",
"401 336 LINE",
"693 695 LINE",
"685 709 LINE",
"441 709 LINE",
"214 660 OFFCURVE",
"133 575 OFFCURVE",
"112 491 CURVE"
);
},
{
closed = 1;
nodes = (
"336 62 OFFCURVE",
"385 -14 OFFCURVE",
"477 -14 CURVE",
"560 26 OFFCURVE",
"724 96 OFFCURVE",
"724 257 CURVE SMOOTH",
"724 368 OFFCURVE",
"651 444 OFFCURVE",
"560 444 CURVE",
"400 351 LINE",
"527 360 OFFCURVE",
"615 301 OFFCURVE",
"610 167 CURVE SMOOTH",
"608 101 OFFCURVE",
"578 56 OFFCURVE",
"532 56 CURVE SMOOTH",
"478 56 OFFCURVE",
"431 118 OFFCURVE",
"431 202 CURVE",
"413 206 LINE",
"327 136 LINE"
);
}
);
width = 744;
}
);
leftMetricsKey = H;
rightMetricsKey = B;
unicode = 1E9E;
}
{
color = 3;
glyphname = asterisk;
layers = (
{
layerId = "33C692B7-ECA1-4228-A9DA-44701B454552";
paths = (
{
closed = 1;
nodes = (
"185 418 LINE",
"207 429 LINE",
"184 578 LINE",
"207 725 LINE",
"185 737 LINE",
"160 726 LINE",
"177 578 LINE",
"160 428 LINE"
);
},
{
closed = 1;
nodes = (
"44 493 LINE",
"65 480 LINE",
"182 574 LINE",
"322 629 LINE",
"321 653 LINE",
"298 671 LINE",
"177 582 LINE",
"40 521 LINE"
);
},
{
closed = 1;
nodes = (
"185 582 LINE",
"64 671 LINE",
"41 653 LINE",
"40 629 LINE",
"180 574 LINE",
"297 480 LINE",
"318 493 LINE",
"322 521 LINE"
);
}
);
width = 362;
},
{
layerId = "6E858C87-3851-4F0D-A4B8-5C62800DDA3D";
paths = (
{
closed = 1;
nodes = (
"185 401 LINE",
"223 417 LINE",
"184 578 LINE",
"223 737 LINE",
"185 750 LINE",
"145 738 LINE",
"177 578 LINE",
"145 416 LINE"
);
},
{
closed = 1;
nodes = (
"33 486 LINE",
"72 472 LINE",
"182 574 LINE",
"333 617 LINE",
"332 659 LINE",
"307 679 LINE",
"177 583 LINE",
"29 533 LINE"
);
},
{
closed = 1;
nodes = (
"185 583 LINE",
"60 679 LINE",
"30 659 LINE",
"29 617 LINE",
"180 574 LINE",
"296 472 LINE",
"329 486 LINE",
"333 534 LINE"
);
}
);
width = 362;
}
);
leftKerningGroup = asterisk;
rightKerningGroup = asterisk;
unicode = 002A;
}
{
color = 3;
glyphname = comma;
layers = (
{
background = {
components = (
{
name = period;
transform = "{1, 0, 0, 1, 8, 0}";
}
);
};
layerId = "33C692B7-ECA1-4228-A9DA-44701B454552";
paths = (
{
closed = 1;
nodes = (
"154 13 LINE",
"151 -62 OFFCURVE",
"108 -114 OFFCURVE",
"78 -140 CURVE",
"84 -147 LINE",
"151 -96 OFFCURVE",
"191 -32 OFFCURVE",
"191 32 CURVE SMOOTH",
"191 111 OFFCURVE",
"150 127 OFFCURVE",
"114 126 CURVE",
"72 111 OFFCURVE",
"45 82 OFFCURVE",
"45 47 CURVE SMOOTH",
"45 24 OFFCURVE",
"56 -5 OFFCURVE",
"107 -16 CURVE"
);
}
);
width = 236;
},
{
background = {
paths = (
{
closed = 1;
nodes = (
"162 2 OFFCURVE",
"187 36 OFFCURVE",
"187 66 CURVE SMOOTH",
"187 104 OFFCURVE",
"154 129 OFFCURVE",
"108 131 CURVE",
"60 110 OFFCURVE",
"35 81 OFFCURVE",
"35 47 CURVE SMOOTH",
"35 7 OFFCURVE",
"68 -14 OFFCURVE",
"113 -19 CURVE"
);
}
);
};
layerId = "6E858C87-3851-4F0D-A4B8-5C62800DDA3D";
paths = (
{
closed = 1;
nodes = (
"144 1 LINE",
"151 -72 OFFCURVE",
"106 -122 OFFCURVE",
"76 -148 CURVE",
"85 -159 LINE",
"152 -108 OFFCURVE",
"201 -42 OFFCURVE",
"201 32 CURVE SMOOTH",
"201 111 OFFCURVE",
"150 126 OFFCURVE",
"114 130 CURVE",
"62 110 OFFCURVE",
"35 82 OFFCURVE",
"35 47 CURVE SMOOTH",
"35 24 OFFCURVE",
"46 -9 OFFCURVE",
"107 -20 CURVE"
);
}
);
width = 236;
}
);
leftKerningGroup = period;
leftMetricsKey = period;
rightKerningGroup = period;
rightMetricsKey = period;
unicode = 002C;
}
{
color = 3;
glyphname = hyphen;
layers = (
{
layerId = "33C692B7-ECA1-4228-A9DA-44701B454552";
paths = (
{
closed = 1;
nodes = (
"297 261 LINE",
"297 301 LINE",
"55 302 LINE",
"55 261 LINE"
);
}
);
width = 352;
},
{
layerId = "6E858C87-3851-4F0D-A4B8-5C62800DDA3D";
paths = (
{
closed = 1;
nodes = (
"40 240 LINE",
"322 240 LINE",
"322 300 LINE",
"40 301 LINE"
);
}
);
width = 362;
}
);
leftKerningGroup = hyphen;
rightKerningGroup = hyphen;
unicode = 002D;
}
{
color = 3;
glyphname = period;
layers = (
{
background = {
components = (
{
name = comma;
transform = "{1, 0, 0, 1, 3, 0}";
}
);
};
layerId = "33C692B7-ECA1-4228-A9DA-44701B454552";
paths = (
{
closed = 1;
nodes = (
"152 2 OFFCURVE",
"177 35 OFFCURVE",
"177 67 CURVE SMOOTH",
"177 105 OFFCURVE",
"144 129 OFFCURVE",
"108 126 CURVE",
"70 110 OFFCURVE",
"45 81 OFFCURVE",
"45 47 CURVE SMOOTH",
"45 7 OFFCURVE",
"78 -14 OFFCURVE",
"113 -14 CURVE"
);
}
);
width = 222;
},
{
layerId = "6E858C87-3851-4F0D-A4B8-5C62800DDA3D";
paths = (
{
closed = 1;
nodes = (
"162 1 OFFCURVE",
"187 36 OFFCURVE",
"187 66 CURVE SMOOTH",
"187 104 OFFCURVE",
"154 128 OFFCURVE",
"108 130 CURVE",
"60 109 OFFCURVE",
"35 81 OFFCURVE",
"35 47 CURVE SMOOTH",
"35 7 OFFCURVE",
"68 -15 OFFCURVE",
"113 -20 CURVE"
);
}
);
width = 222;
}
);
leftKerningGroup = period;
rightKerningGroup = period;
unicode = 002E;
}
{
color = 3;
glyphname = plus;
layers = (
{
layerId = "33C692B7-ECA1-4228-A9DA-44701B454552";
paths = (
{
closed = 1;
nodes = (
"426 217 LINE",
"426 255 LINE",
"50 255 LINE",
"50 217 LINE"
);
},
{
closed = 1;
nodes = (
"257 44 LINE",
"257 426 LINE",
"219 426 LINE",
"219 44 LINE"
);
}
);
width = 476;
},
{
layerId = "6E858C87-3851-4F0D-A4B8-5C62800DDA3D";
paths = (
{
closed = 1;
nodes = (
"426 207 LINE",
"426 265 LINE",
"50 265 LINE",
"50 207 LINE"
);
},
{
closed = 1;
nodes = (
"272 44 LINE",
"272 426 LINE",
"204 426 LINE",
"204 44 LINE"
);
}
);
width = 476;
}
);
leftKerningGroup = plus;
rightKerningGroup = plus;
unicode = 002B;
}
{
color = 3;
glyphname = slash;
layers = (
{
layerId = "33C692B7-ECA1-4228-A9DA-44701B454552";
paths = (
{
closed = 1;
nodes = (
"80 -250 LINE",
"486 750 LINE",
"446 750 LINE",
"40 -250 LINE"
);
}
);
width = 508;
},
{
layerId = "6E858C87-3851-4F0D-A4B8-5C62800DDA3D";
paths = (
{
closed = 1;
nodes = (
"92 -250 LINE",
"498 750 LINE",
"436 750 LINE",
"30 -250 LINE"
);
}
);
width = 518;
}
);
leftKerningGroup = slash;
rightKerningGroup = slash;
unicode = 002F;
}
{
color = 3;
glyphname = greater;
layers = (
{
layerId = "33C692B7-ECA1-4228-A9DA-44701B454552";
paths = (
{
closed = 1;
nodes = (
"398 222 LINE",
"398 238 LINE",
"68 399 LINE",
"52 363 LINE",
"334 231 LINE",
"50 109 LINE",
"66 73 LINE"
);
}
);
width = 448;
},
{
layerId = "6E858C87-3851-4F0D-A4B8-5C62800DDA3D";
paths = (
{
closed = 1;
nodes = (
"403 210 LINE",
"403 251 LINE",
"73 412 LINE",
"52 363 LINE",
"324 231 LINE",
"50 109 LINE",
"71 58 LINE"
);
}
);
width = 453;
}
);
leftKerningGroup = greater;
rightKerningGroup = greater;
unicode = 003E;
}
{
color = 3;
glyphname = question;
layers = (
{
background = {
components = (
{
name = two;
transform = "{1, 0, 0, 1, -12, 226}";
}
);
paths = (
{
closed = 0;
nodes = (
"263 246 LINE"
);
}
);
};
components = (
{
name = period;
transform = "{1, 0, 0, 1, 94, -5}";
}
);
layerId = "33C692B7-ECA1-4228-A9DA-44701B454552";
paths = (
{
closed = 1;
nodes = (
"98 660 OFFCURVE",
"163 688 OFFCURVE",
"220 710 CURVE",
"303 710 OFFCURVE",
"394 665 OFFCURVE",
"394 574 CURVE SMOOTH",
"394 477 OFFCURVE",
"285 372 OFFCURVE",
"216 337 CURVE",
"222 297 OFFCURVE",
"237 272 OFFCURVE",
"263 254 CURVE",
"263 246 LINE",
"194 195 LINE",
"161 215 OFFCURVE",
"146 248 OFFCURVE",
"150 298 CURVE",
"217 356 OFFCURVE",
"285 428 OFFCURVE",
"285 534 CURVE SMOOTH",
"285 616 OFFCURVE",
"239 647 OFFCURVE",
"180 647 CURVE SMOOTH",
"139 647 OFFCURVE",
"88 633 OFFCURVE",
"49 602 CURVE",
"43 611 LINE"
);
}
);
width = 414;
},
{
background = {
paths = (
{
closed = 1;
nodes = (
"108 665 OFFCURVE",
"204 713 OFFCURVE",
"251 713 CURVE SMOOTH",
"346 713 OFFCURVE",
"448 656 OFFCURVE",
"448 577 CURVE SMOOTH",
"448 442 OFFCURVE",
"249 398 OFFCURVE",
"249 340 CURVE SMOOTH",
"249 302 OFFCURVE",
"284 244 OFFCURVE",
"303 244 CURVE",
"305 242 LINE",
"204 174 LINE",
"198 174 OFFCURVE",
"143 234 OFFCURVE",
"143 336 CURVE",
"159 336 OFFCURVE",
"299 429 OFFCURVE",
"299 555 CURVE SMOOTH",
"299 625 OFFCURVE",
"256 661 OFFCURVE",
"223 661 CURVE SMOOTH",
"171 661 OFFCURVE",
"111 623 OFFCURVE",
"84 589 CURVE",
"50 594 LINE"
);
}
);
};
components = (
{
name = period;
transform = "{1, 0, 0, 1, 132, -3}";
}
);
layerId = "6E858C87-3851-4F0D-A4B8-5C62800DDA3D";
paths = (
{
closed = 1;
nodes = (
"108 652 OFFCURVE",
"173 690 OFFCURVE",
"230 712 CURVE",
"358 710 OFFCURVE",
"449 655 OFFCURVE",
"449 550 CURVE SMOOTH",
"449 457 OFFCURVE",
"380 372 OFFCURVE",
"271 337 CURVE",
"277 297 OFFCURVE",
"292 272 OFFCURVE",
"318 254 CURVE",
"318 246 LINE",
"229 195 LINE",
"196 215 OFFCURVE",
"181 248 OFFCURVE",
"175 296 CURVE",
"272 356 OFFCURVE",
"319 408 OFFCURVE",
"319 495 CURVE SMOOTH",
"319 576 OFFCURVE",
"269 622 OFFCURVE",
"190 623 CURVE SMOOTH",
"149 623 OFFCURVE",
"101 611 OFFCURVE",
"62 581 CURVE",
"53 593 LINE"
);
}
);
width = 468;
}
);
leftKerningGroup = question;
rightKerningGroup = question;
unicode = 003F;
}
{
color = 4;
glyphname = J;
layers = (
{
anchors = (
{
name = bottom;
position = "{175, 0}";
},
{
name = top;
position = "{175, 700}";
}
);
background = {
hints = (
{
origin = "{0, 0}";
type = Corner;
name = _corner.capSerif;
},
{
origin = "{0, 15}";
scale = "{-1, 1}";
type = Corner;
name = _corner.capSerif;
}
);
paths = (
{
closed = 1;
nodes = (
"137 700 LINE",
"137 -161 LINE",
"137 -180 OFFCURVE",
"110 -191 OFFCURVE",
"77 -191 CURVE SMOOTH",
"52 -191 OFFCURVE",
"18 -185 OFFCURVE",
"-14 -160 CURVE",
"-75 -233 LINE",
"-50 -254 OFFCURVE",
"-5 -271 OFFCURVE",
"41 -274 CURVE",
"85 -274 OFFCURVE",
"237 -96 OFFCURVE",
"237 -12 CURVE SMOOTH",
"237 700 LINE"
);
}
);
};
hints = (
{
origin = "{0, 11}";
scale = "{-1, 1}";
type = Corner;
name = _corner.capSerif;
},
{
origin = "{0, 12}";
type = Corner;
name = _corner.capSerif;
options = 1;
}
);
layerId = "33C692B7-ECA1-4228-A9DA-44701B454552";
paths = (
{
closed = 1;
nodes = (
"-16 -129 LINE",
"-78 -227 LINE",
"-55 -260 OFFCURVE",
"-13 -280 OFFCURVE",
"34 -280 CURVE SMOOTH",
"42 -280 OFFCURVE",
"50 -279 OFFCURVE",
"58 -278 CURVE",
"134 -216 OFFCURVE",
"208 -135 OFFCURVE",
"241 -21 CURVE",
"241 700 LINE",
"141 700 LINE",
"141 -167 LINE",
"131 -188 OFFCURVE",
"112 -199 OFFCURVE",
"92 -199 CURVE SMOOTH",
"65 -199 OFFCURVE",
"37 -180 OFFCURVE",
"21 -133 CURVE"
);
}
);
width = 349;
},
{
anchors = (
{
name = bottom;
position = "{169, 0}";
},
{
name = top;
position = "{169, 700}";
}
);
background = {
hints = (
{
origin = "{0, 0}";
type = Corner;
name = _corner.capSerif;
},
{
origin = "{0, 15}";
scale = "{-1, 1}";
type = Corner;
name = _corner.capSerif;
}
);
paths = (
{
closed = 1;
nodes = (
"92 700 LINE",
"92 -163 LINE",
"92 -182 OFFCURVE",
"65 -193 OFFCURVE",
"32 -193 CURVE SMOOTH",
"7 -193 OFFCURVE",
"-77 -135 OFFCURVE",
"-109 -110 CURVE",
"-210 -233 LINE",
"-185 -254 OFFCURVE",
"-100 -271 OFFCURVE",
"-4 -274 CURVE",
"40 -274 OFFCURVE",
"246 -96 OFFCURVE",
"246 -12 CURVE SMOOTH",
"246 700 LINE"
);
}
);
};
hints = (
{
origin = "{0, 8}";
scale = "{-1, 1}";
type = Corner;
name = _corner.capSerif;
},
{
origin = "{0, 9}";
type = Corner;
name = _corner.capSerif;
options = 1;
}
);
layerId = "6E858C87-3851-4F0D-A4B8-5C62800DDA3D";
paths = (
{
closed = 1;
nodes = (
"-99 -95 LINE",
"-167 -228 LINE",
"-96 -277 OFFCURVE",
"-45 -273 OFFCURVE",
"9 -256 CURVE",
"102 -214 OFFCURVE",
"234 -112 OFFCURVE",
"247 -1 CURVE",
"250 700 LINE",
"93 700 LINE",
"88 -178 LINE",
"80 -194 OFFCURVE",
"68 -200 OFFCURVE",
"55 -200 CURVE SMOOTH",
"20 -200 OFFCURVE",
"-11 -170 OFFCURVE",
"-45 -93 CURVE"
);
}
);
width = 338;
}
);
leftKerningGroup = J;
rightKerningGroup = J;
unicode = 004A;
}
{
color = 4;
glyphname = K;
layers = (
{
anchors = (
{
name = bottom;
position = "{347, 0}";
},
{
name = top;
position = "{347, 700}";
}
);
hints = (
{
origin = "{1, 1}";
scale = "{-1, 1}";
type = Corner;
name = _corner.capSerif;
},
{
origin = "{1, 2}";
type = Corner;
name = _corner.capSerif;
options = 1;
},
{
origin = "{1, 0}";
type = Corner;
name = _corner.capSerif;
},
{
origin = "{1, 3}";
scale = "{-1, 1}";
type = Corner;
name = _corner.capSerif;
},
{
origin = "{0, 1}";
scale = "{-1, 1}";
type = Corner;
name = _corner.capSerif;
},
{
origin = "{0, 2}";
type = Corner;
name = _corner.capSerif;
options = 1;
}
);
layerId = "33C692B7-ECA1-4228-A9DA-44701B454552";
paths = (
{
closed = 1;
nodes = (
"207 285 LINE",
"583 700 LINE",
"554 700 LINE",
"198 304 LINE"
);
},
{
closed = 1;
nodes = (
"212 0 LINE",
"212 699 LINE",
"112 700 LINE",
"112 0 LINE"
);
},
{
closed = 1;
nodes = (
"482 0 LINE",
"622 -1 LINE",
"691 47 LINE",
"685 56 LINE",
"619 19 LINE",
"583 19 OFFCURVE",
"404 338 OFFCURVE",
"369 413 CURVE",
"275 371 LINE"
);
}
);
width = 664;
},
{
anchors = (
{
name = bottom;
position = "{391, 0}";
},
{
name = top;
position = "{391, 700}";
}
);
hints = (
{
origin = "{0, 3}";
scale = "{-1, 1}";
type = Corner;
name = _corner.capSerif;
},
{
origin = "{0, 4}";
type = Corner;
name = _corner.capSerif;
options = 1;
},
{
origin = "{1, 1}";
scale = "{-0.6, 1}";
type = Corner;
name = _corner.capSerif;
},
{
origin = "{1, 2}";
scale = "{1.2, 1}";
type = Corner;
name = _corner.capSerif;
options = 1;
},
{
origin = "{0, 0}";
scale = "{-1, 1}";
type = Corner;
name = _corner.capSerif;
},
{
origin = "{0, 1}";
scale = "{0.81, 1}";
type = Corner;
name = _corner.capSerif;
options = 1;
}
);
layerId = "6E858C87-3851-4F0D-A4B8-5C62800DDA3D";
paths = (
{
closed = 1;
nodes = (
"112 0 LINE",
"270 0 LINE",
"270 318 LINE",
"270 700 LINE",
"112 700 LINE"
);
},
{
closed = 1;
nodes = (
"132 157 LINE",
"649 700 LINE",
"616 700 LINE",
"125 184 LINE"
);
},
{
closed = 1;
nodes = (
"301 357 LINE",
"504 0 LINE",
"692 -1 LINE",
"761 47 LINE",
"747 62 LINE",
"686 25 LINE",
"654 25 OFFCURVE",
"506 312 OFFCURVE",
"449 406 CURVE"
);
}
);
width = 727;
}
);
leftKerningGroup = H;
leftMetricsKey = H;
rightKerningGroup = K;
unicode = 004B;
}
{
color = 4;
glyphname = L;
layers = (
{
anchors = (
{
name = bottom;
position = "{317, 0}";
},
{
name = top;
position = "{177, 700}";
},
{
name = topright;
position = "{390, 700}";
}
);
background = {
paths = (
{
closed = 1;
nodes = (
"212 0 LINE",
"219 699 LINE",
"31 700 LINE",
"31 694 LINE",
"118 679 LINE",
"112 0 LINE"
);
},
{
closed = 1;
nodes = (
"209 679 LINE",
"304 691 LINE",
"304 700 LINE",
"186 699 LINE"
);
},
{
closed = 1;
nodes = (
"33 0 LINE",
"544 0 LINE",
"544 13 LINE",
"213 15 LINE",
"113 20 LINE",
"33 8 LINE"
);
},
{
closed = 1;
nodes = (
"559 185 LINE",
"551 187 LINE",
"533 150 OFFCURVE",
"459 13 OFFCURVE",
"429 14 CURVE",
"544 0 LINE"
);
}
);
};
hints = (
{
origin = "{0, 3}";
scale = "{-1, 1}";
type = Corner;
name = _corner.capSerif;
},
{
origin = "{0, 2}";
type = Corner;
name = _corner.capSerif;
},
{
origin = "{0, 1}";
scale = "{-1, 1}";
type = Corner;
name = _corner.capSerif;
}
);
layerId = "33C692B7-ECA1-4228-A9DA-44701B454552";
paths = (
{
closed = 1;
nodes = (
"219 0 LINE",
"219 699 LINE",
"118 700 LINE",
"112 0 LINE"
);
},
{
closed = 1;
nodes = (
"150 0 LINE",
"544 0 LINE",
"544 13 LINE",
"213 15 LINE",
"146 20 LINE"
);
},
{
closed = 1;
nodes = (
"559 185 LINE",
"551 187 LINE",
"533 150 OFFCURVE",
"459 13 OFFCURVE",
"429 14 CURVE",
"544 0 LINE"
);
}
);
width = 589;
},
{
anchors = (
{
name = bottom;
position = "{313, 0}";
},
{
name = center;
position = "{313, 350}";
},
{
name = top;
position = "{190, 700}";
},
{
name = topright;
position = "{441, 700}";
}
);
hints = (
{
origin = "{0, 3}";
type = Corner;
name = _corner.capSerif;
},
{
origin = "{0, 2}";
scale = "{-1, 1}";
type = Corner;
name = _corner.capSerif;
},
{
origin = "{0, 0}";
scale = "{-1, 1}";
type = Corner;
name = _corner.capSerif;
}
);
layerId = "6E858C87-3851-4F0D-A4B8-5C62800DDA3D";
paths = (
{
closed = 1;
nodes = (
"112 0 LINE",
"271 0 LINE",
"271 700 LINE",
"112 700 LINE"
);
},
{
closed = 1;
nodes = (
"223 0 LINE",
"592 0 LINE",
"577 35 LINE",
"223 25 LINE"
);
},
{
closed = 1;
nodes = (
"616 225 LINE",
"597 230 LINE",
"579 193 OFFCURVE",
"465 14 OFFCURVE",
"435 15 CURVE",
"594 0 LINE"
);
}
);
width = 626;
}
);
leftKerningGroup = H;
leftMetricsKey = H;
rightKerningGroup = L;
unicode = 004C;
}
{
color = 4;
glyphname = M;
layers = (
{
anchors = (
{
name = bottom;
position = "{434, 0}";
},
{
name = top;
position = "{434, 700}";
}
);
hints = (
{
origin = "{1, 3}";
type = Corner;
name = _corner.capSerif;
},
{
origin = "{2, 1}";
scale = "{-1, 1}";
type = Corner;
name = _corner.capSerif;
},
{
origin = "{1, 0}";
scale = "{-1, 1}";
type = Corner;
name = _corner.capSerif;
},
{
origin = "{1, 1}";
type = Corner;
name = _corner.capSerif;
options = 1;
},
{
origin = "{2, 0}";
type = Corner;
name = _corner.capSerif;
options = 1;
},
{
origin = "{2, 3}";
scale = "{-1, 1}";
type = Corner;
name = _corner.capSerif;
options = 1;
}
);
layerId = "33C692B7-ECA1-4228-A9DA-44701B454552";
paths = (
{
closed = 1;
nodes = (
"424 -2 LINE",
"716 700 LINE",
"690 700 LINE",
"455 140 LINE",
"455 142 LINE",
"226 700 LINE",
"113 700 LINE",
"412 -2 LINE"
);
},
{
closed = 1;
nodes = (
"102 0 LINE",
"129 0 LINE",
"129 700 LINE",
"102 700 LINE"
);
},
{
closed = 1;
nodes = (
"790 0 LINE",
"790 700 LINE",
"690 700 LINE",
"690 0 LINE"
);
}
);
width = 902;
},
{
anchors = (
{
name = bottom;
position = "{434, 0}";
},
{
name = top;
position = "{434, 700}";
}
);
guideLines = (
{
position = "{166, 654}";
showMeasurement = 1;
}
);
hints = (
{
origin = "{1, 0}";
scale = "{-1, 1}";
type = Corner;
name = _corner.capSerif;
},
{
origin = "{1, 1}";
type = Corner;
name = _corner.capSerif;
options = 1;
},
{
origin = "{1, 3}";
type = Corner;
name = _corner.capSerif;
},
{
origin = "{2, 0}";
scale = "{-1, 1}";
type = Corner;
name = _corner.capSerif;
options = 1;
},
{
origin = "{2, 1}";
type = Corner;
name = _corner.capSerif;
},
{
origin = "{2, 2}";
scale = "{-1, 1}";
type = Corner;
name = _corner.capSerif;
}
);
layerId = "6E858C87-3851-4F0D-A4B8-5C62800DDA3D";
paths = (
{
closed = 1;
nodes = (
"449 -2 LINE",
"718 700 LINE",
"683 700 LINE",
"506 236 LINE",
"309 700 LINE",
"126 700 LINE",
"437 -2 LINE"
);
},
{
closed = 1;
nodes = (
"112 -1 LINE",
"146 -1 LINE",
"146 700 LINE",
"112 700 LINE"
);
},
{
closed = 1;
nodes = (
"698 0 LINE",
"856 0 LINE",
"856 700 LINE",
"698 700 LINE"
);
}
);
width = 968;
}
);
leftKerningGroup = M;
leftMetricsKey = N;
rightKerningGroup = H;
rightMetricsKey = H;
unicode = 004D;
}
{
color = 4;
glyphname = N;
layers = (
{
anchors = (
{
name = bottom;
position = "{356, 0}";
},
{
name = top;
position = "{360, 700}";
}
);
hints = (
{
origin = "{0, 0}";
type = Corner;
name = _corner.capSerif;
},
{
origin = "{0, 9}";
scale = "{-1, 1}";
type = Corner;
name = _corner.capSerif;
},
{
origin = "{0, 8}";
type = Corner;
name = _corner.capSerif;
},
{
origin = "{0, 4}";
scale = "{-1, 1}";
type = Corner;
name = _corner.capSerif;
},
{
origin = "{0, 5}";
type = Corner;
name = _corner.capSerif;
options = 1;
}
);
layerId = "33C692B7-ECA1-4228-A9DA-44701B454552";
paths = (
{
closed = 1;
nodes = (
"129 0 LINE",
"129 636 LINE",
"582 0 LINE",
"598 0 LINE",
"599 700 LINE",
"572 700 LINE",
"572 191 LINE",
"209 700 LINE",
"102 700 LINE",
"102 -1 LINE"
);
}
);
width = 701;
},
{
anchors = (
{
name = bottom;
position = "{361, 0}";
},
{
name = top;
position = "{361, 700}";
}
);
hints = (
{
origin = "{1, 0}";
scale = "{-1, 1}";
type = Corner;
name = _corner.capSerif;
},
{
origin = "{1, 1}";
type = Corner;
name = _corner.capSerif;
options = 1;
},
{
origin = "{2, 1}";
scale = "{-1, 1}";
type = Corner;
name = _corner.capSerif;
},
{
origin = "{2, 2}";
type = Corner;
name = _corner.capSerif;
options = 1;
},
{
origin = "{1, 3}";
type = Corner;
name = _corner.capSerif;
}
);
layerId = "6E858C87-3851-4F0D-A4B8-5C62800DDA3D";
paths = (
{
closed = 1;
nodes = (
"634 0 LINE",
"627 246 LINE",
"264 703 LINE",
"122 700 LINE",
"125 616 LINE",
"623 0 LINE"
);
},
{
closed = 1;
nodes = (
"112 0 LINE",
"142 0 LINE",
"137 700 LINE",
"112 700 LINE"
);
},
{
closed = 1;
nodes = (
"646 0 LINE",
"646 702 LINE",
"617 702 LINE",
"623 0 LINE"
);
}
);
width = 748;
}
);
leftKerningGroup = H;
rightKerningGroup = H;
unicode = 004E;
}
{
color = 4;
glyphname = O;
layers = (
{
anchors = (
{
name = top;
position = "{390, 700}";
}
);
background = {
paths = (
{
closed = 1;
nodes = (
"293 29 OFFCURVE",
"139 154 OFFCURVE",
"139 380 CURVE SMOOTH",
"139 533 OFFCURVE",
"219 664 OFFCURVE",
"359 664 CURVE SMOOTH",
"507 664 OFFCURVE",
"612 549 OFFCURVE",
"612 307 CURVE SMOOTH",
"612 154 OFFCURVE",
"531 29 OFFCURVE",
"391 29 CURVE SMOOTH"
);
},
{
closed = 1;
nodes = (
"722 579 OFFCURVE",
"602 708 OFFCURVE",
"396 713 CURVE",
"327 709 OFFCURVE",
"40 571 OFFCURVE",
"40 339 CURVE SMOOTH",
"40 122 OFFCURVE",
"137 -15 OFFCURVE",
"355 -15 CURVE",
"421 -12 OFFCURVE",
"722 107 OFFCURVE",
"722 363 CURVE SMOOTH"
);
}
);
};
layerId = "33C692B7-ECA1-4228-A9DA-44701B454552";
paths = (
{
closed = 1;
nodes = (
"241 37 OFFCURVE",
"148 195 OFFCURVE",
"148 375 CURVE SMOOTH",
"148 549 OFFCURVE",
"237 666 OFFCURVE",
"373 666 CURVE SMOOTH",
"522 666 OFFCURVE",
"614 517 OFFCURVE",
"614 326 CURVE SMOOTH",
"614 138 OFFCURVE",
"523 37 OFFCURVE",
"395 37 CURVE SMOOTH"
);
},
{
closed = 1;
nodes = (
"720 530 OFFCURVE",
"638 719 OFFCURVE",
"385 714 CURVE",
"266 672 OFFCURVE",
"44 555 OFFCURVE",
"44 315 CURVE SMOOTH",
"44 165 OFFCURVE",
"141 -10 OFFCURVE",
"358 -13 CURVE",
"485 22 OFFCURVE",
"720 124 OFFCURVE",
"720 379 CURVE SMOOTH"
);
}
);
width = 766;
},
{
anchors = (
{
name = bottom;
position = "{424, 0}";
},
{
name = center;
position = "{424, 350}";
},
{
name = ogonek;
position = "{740, 10}";
},
{
name = top;
position = "{406, 700}";
},
{
name = topleft;
position = "{48, 700}";
},
{
name = topright;
position = "{799, 700}";
}
);
background = {
paths = (
{
closed = 1;
nodes = (
"320 24 OFFCURVE",
"250 281 OFFCURVE",
"250 420 CURVE SMOOTH",
"250 574 OFFCURVE",
"314 660 OFFCURVE",
"376 665 CURVE SMOOTH",
"463 672 OFFCURVE",
"575 593 OFFCURVE",
"599 322 CURVE SMOOTH",
"611 208 OFFCURVE",
"566 24 OFFCURVE",
"456 24 CURVE SMOOTH"
);
},
{
closed = 1;
nodes = (
"776 579 OFFCURVE",
"657 708 OFFCURVE",
"441 713 CURVE",
"382 699 OFFCURVE",
"75 571 OFFCURVE",
"75 339 CURVE SMOOTH",
"75 129 OFFCURVE",
"192 -18 OFFCURVE",
"400 -18 CURVE",
"466 -5 OFFCURVE",
"776 114 OFFCURVE",
"776 363 CURVE SMOOTH"
);
}
);
};
layerId = "6E858C87-3851-4F0D-A4B8-5C62800DDA3D";
paths = (
{
closed = 1;
nodes = (
"279 36 OFFCURVE",
"204 190 OFFCURVE",
"204 394 CURVE SMOOTH",
"204 520 OFFCURVE",
"233 660 OFFCURVE",
"366 660 CURVE SMOOTH",
"514 660 OFFCURVE",
"588 501 OFFCURVE",
"588 318 CURVE SMOOTH",
"588 190 OFFCURVE",
"560 36 OFFCURVE",
"422 36 CURVE SMOOTH"
);
},
{
closed = 1;
nodes = (
"396 714 CURVE",
"235 659 OFFCURVE",
"39 548 OFFCURVE",
"39 316 CURVE SMOOTH",
"39 128 OFFCURVE",
"184 -17 OFFCURVE",
"366 -17 CURVE",
"568 28 OFFCURVE",
"755 161 OFFCURVE",
"755 383 CURVE SMOOTH",
"755 591 OFFCURVE",
"623 714 OFFCURVE"
);
}
);
width = 788;
},
{
anchors = (
{
name = top;
position = "{401, 700}";
}
);
associatedMasterId = "33C692B7-ECA1-4228-A9DA-44701B454552";
layerId = "588D88F7-4D2F-441E-9785-5A3E5276FFE9";
name = "28 Mar 22, 00:30";
paths = (
{
closed = 1;
nodes = (
"523 32 OFFCURVE",
"612 164 OFFCURVE",
"612 347 CURVE SMOOTH",
"612 559 OFFCURVE",
"518 664 OFFCURVE",
"370 664 CURVE SMOOTH",
"230 664 OFFCURVE",
"139 533 OFFCURVE",
"139 368 CURVE SMOOTH",
"139 154 OFFCURVE",
"285 32 OFFCURVE",
"383 32 CURVE SMOOTH"
);
},
{
closed = 1;
nodes = (
"722 107 OFFCURVE",
"553 25 OFFCURVE",
"355 -15 CURVE",
"137 -15 OFFCURVE",
"32 122 OFFCURVE",
"32 320 CURVE SMOOTH",
"32 571 OFFCURVE",
"194 673 OFFCURVE",
"396 713 CURVE",
"602 708 OFFCURVE",
"722 579 OFFCURVE",
"722 368 CURVE SMOOTH"
);
}
);
width = 762;
}
);
leftKerningGroup = O;
rightKerningGroup = O;
unicode = 004F;
}
{
color = 3;
glyphname = Z;
layers = (
{
anchors = (
{
name = top;
position = "{301, 700}";
}
);
layerId = "33C692B7-ECA1-4228-A9DA-44701B454552";
paths = (
{
closed = 1;
nodes = (
"556 685 LINE",
"558 700 LINE",
"448 700 LINE",
"43 15 LINE",
"41 0 LINE",
"147 0 LINE"
);
},
{
closed = 1;
nodes = (
"57 678 LINE",
"462 685 LINE",
"448 700 LINE",
"57 700 LINE"
);
},
{
closed = 1;
nodes = (
"141 0 LINE",
"564 0 LINE",
"564 25 LINE",
"139 15 LINE"
);
},
{
closed = 1;
nodes = (
"564 205 LINE",
"555 205 LINE",
"462 14 LINE",
"564 0 LINE"
);
},
{
closed = 1;
nodes = (
"57 517 LINE",
"66 517 LINE",
"159 687 LINE",
"57 694 LINE"
);
}
);
width = 605;
},
{
anchors = (
{
name = bottom;
position = "{308, 0}";
},
{
name = center;
position = "{308, 350}";
},
{
name = top;
position = "{308, 700}";
}
);
layerId = "6E858C87-3851-4F0D-A4B8-5C62800DDA3D";
paths = (
{
closed = 1;
nodes = (
"584 670 LINE",
"584 700 LINE",
"425 700 LINE",
"43 18 LINE",
"43 0 LINE",
"212 0 LINE"
);
},
{
closed = 1;
nodes = (
"49 669 LINE",
"474 679 LINE",
"460 700 LINE",
"49 700 LINE"
);
},
{
closed = 1;
nodes = (
"162 0 LINE",
"591 0 LINE",
"591 32 LINE",
"160 22 LINE"
);
},
{
closed = 1;
nodes = (
"591 235 LINE",
"571 235 LINE",
"449 29 LINE",
"591 0 LINE"
);
},
{
closed = 1;
nodes = (
"49 487 LINE",
"69 487 LINE",
"201 685 LINE",
"49 694 LINE"
);
}
);
width = 634;
}
);
leftKerningGroup = Z;
rightKerningGroup = Z;
rightMetricsKey = "=|";
unicode = 005A;
}
{
color = 3;
glyphname = asciicircum;
layers = (
{
layerId = "33C692B7-ECA1-4228-A9DA-44701B454552";
paths = (
{
closed = 1;
nodes = (
"280 772 LINE",
"240 772 LINE",
"60 488 LINE",
"94 470 LINE",
"261 740 LINE",
"426 470 LINE",
"460 488 LINE"
);
}
);
width = 520;
},
{
layerId = "6E858C87-3851-4F0D-A4B8-5C62800DDA3D";
paths = (
{
closed = 1;
nodes = (
"130 466 LINE",
"288 719 LINE",
"445 466 LINE",
"508 496 LINE",
"328 773 LINE",
"247 773 LINE",
"67 496 LINE"
);
}
);
width = 600;
}
);
leftKerningGroup = asciicircum;
rightKerningGroup = asciicircum;
unicode = 005E;
}
{
color = 3;
glyphname = bracketleft;
layers = (
{
layerId = "33C692B7-ECA1-4228-A9DA-44701B454552";
paths = (
{
closed = 1;
nodes = (
"30 -250 LINE",
"110 -250 LINE",
"198 -250 LINE",
"198 -232 LINE",
"122 -224 LINE",
"122 724 LINE",
"207 732 LINE",
"207 750 LINE",
"109 750 LINE",
"30 750 LINE"
);
}
);
width = 235;
},
{
layerId = "6E858C87-3851-4F0D-A4B8-5C62800DDA3D";
paths = (
{
closed = 1;
nodes = (
"47 -250 LINE",
"190 -250 LINE",
"276 -250 LINE",
"276 -232 LINE",
"182 -224 LINE",
"182 724 LINE",
"285 732 LINE",
"285 750 LINE",
"189 750 LINE",
"47 750 LINE"
);
}
);
width = 335;
}
);
leftKerningGroup = bracketleft;
rightKerningGroup = bracketleft;
unicode = 005B;
}
{
color = 3;
glyphname = underscore;
layers = (
{
layerId = "33C692B7-ECA1-4228-A9DA-44701B454552";
paths = (
{
closed = 1;
nodes = (
"30 -62 LINE",
"416 -62 LINE",
"416 -22 LINE",
"30 -22 LINE"
);
}
);
width = 446;
},
{
layerId = "6E858C87-3851-4F0D-A4B8-5C62800DDA3D";
paths = (
{
closed = 1;
nodes = (
"82 -72 LINE",
"504 -72 LINE",
"504 -12 LINE",
"82 -11 LINE"
);
}
);
width = 600;
}
);
leftKerningGroup = underscore;
rightKerningGroup = underscore;
unicode = 005F;
}
{
color = 4;
glyphname = k;
layers = (
{
anchors = (
{
name = bottom;
position = "{278, 0}";
},
{
name = top;
position = "{260, 750}";
}
);
background = {
components = (
{
name = l;
transform = "{1, 0, 0, 1, -5, 0}";
}
);
paths = (
{
closed = 1;
nodes = (
"173 0 LINE",
"173 231 LINE",
"211 266 LINE",
"388 16 LINE",
"390 16 LINE",
"323 5 LINE",
"323 0 LINE",
"557 0 LINE",
"557 5 LINE",
"491 16 LINE",
"270 320 LINE",
"254 304 LINE",
"433 447 LINE",
"516 464 LINE",
"516 470 LINE",
"337 470 LINE",
"337 464 LINE",
"402 448 LINE",
"403 448 LINE",
"167 245 LINE",
"161 245 LINE",
"177 749 LINE",
"165 750 LINE",
"84 741 LINE",
"84 0 LINE"
);
}
);
};
hints = (
{
origin = "{0, 20}";
type = Corner;
name = _corner.topSerif;
},
{
origin = "{0, 0}";
scale = "{-1, 1}";
type = Corner;
name = _corner.lcSerif;
},
{
origin = "{0, 21}";
type = Corner;
name = _corner.lcSerif;
},
{
origin = "{0, 3}";
type = Corner;
name = _corner.lcSerif;
}
);
layerId = "33C692B7-ECA1-4228-A9DA-44701B454552";
paths = (
{
closed = 1;
nodes = (
"173 0 LINE",
"173 225 LINE",
"209 257 LINE",
"399 0 LINE",
"496 0 LINE",
"549 0 LINE",
"549 6 LINE",
"483 27 LINE",
"270 320 LINE",
"254 296 LINE",
"432 446 LINE",
"516 463 LINE",
"516 470 LINE",
"337 470 LINE",
"337 463 LINE",
"402 447 LINE",
"403 447 LINE",
"173 245 LINE",
"172 245 LINE",
"177 750 LINE",
"84 750 LINE",
"84 0 LINE"
);
}
);
width = 559;
},
{
anchors = (
{
name = bottom;
position = "{307, 0}";
},
{
name = top;
position = "{307, 750}";
}
);
hints = (
{
origin = "{0, 19}";
type = Corner;
name = _corner.topSerif;
},
{
origin = "{0, 0}";
scale = "{-1, 1}";
type = Corner;
name = _corner.lcSerif;
},
{
origin = "{0, 20}";
type = Corner;
name = _corner.lcSerif;
},
{
origin = "{0, 3}";
type = Corner;
name = _corner.lcSerif;
}
);
layerId = "6E858C87-3851-4F0D-A4B8-5C62800DDA3D";
paths = (
{
closed = 1;
nodes = (
"222 0 LINE",
"222 215 LINE",
"244 237 LINE",
"405 0 LINE",
"545 0 LINE",
"606 0 LINE",
"606 10 LINE",
"541 45 LINE",
"350 332 LINE",
"483 451 LINE",
"567 466 LINE",
"567 480 LINE",
"388 480 LINE",
"388 466 LINE",
"459 452 LINE",
"454 462 LINE",
"226 260 LINE",
"222 260 LINE",
"226 749 LINE",
"81 750 LINE",
"81 0 LINE"
);
}
);
width = 596;
}
);
leftKerningGroup = h;
leftMetricsKey = l;
rightKerningGroup = k;
unicode = 006B;
}
{
color = 4;
glyphname = l;
layers = (
{
anchors = (
{
name = bottom;
position = "{123, 0}";
},
{
name = top;
position = "{123, 750}";
},
{
name = topright;
position = "{243, 700}";
}
);
hints = (
{
origin = "{0, 0}";
scale = "{-1, 1}";
type = Corner;
name = _corner.lcSerif;
},
{
origin = "{0, 2}";
type = Corner;
name = _corner.topSerif;
},
{
origin = "{0, 3}";
type = Corner;
name = _corner.lcSerif;
}
);
layerId = "33C692B7-ECA1-4228-A9DA-44701B454552";
paths = (
{
closed = 1;
nodes = (
"173 0 LINE",
"173 750 LINE",
"84 750 LINE",
"84 0 LINE"
);
}
);
width = 253;
},
{
anchors = (
{
name = bottom;
position = "{153, 0}";
},
{
name = center;
position = "{153, 375}";
},
{
name = top;
position = "{153, 750}";
},
{
name = topright;
position = "{286, 750}";
}
);
hints = (
{
origin = "{0, 1}";
type = Corner;
name = _corner.topSerif;
options = 1;
},
{
origin = "{0, 2}";
type = Corner;
name = _corner.lcSerif;
},
{
origin = "{0, 3}";
scale = "{-1, 1}";
type = Corner;
name = _corner.lcSerif;
}
);
layerId = "6E858C87-3851-4F0D-A4B8-5C62800DDA3D";
paths = (
{
closed = 1;
nodes = (
"227 750 LINE",
"83 750 LINE",
"83 0 LINE",
"227 0 LINE"
);
}
);
width = 306;
}
);
leftKerningGroup = h;
rightKerningGroup = l;
rightMetricsKey = i;
unicode = 006C;
}
{
color = 4;
glyphname = m;
layers = (
{
anchors = (
{
name = bottom;
position = "{429, 0}";
},
{
name = top;
position = "{429, 470}";
}
);
background = {
paths = (
{
closed = 1;
nodes = (
"114 447 LINE",
"114 0 LINE",
"203 0 LINE",
"203 362 LINE",
"253 410 OFFCURVE",
"311 413 OFFCURVE",
"336 413 CURVE SMOOTH",
"380 413 OFFCURVE",
"417 385 OFFCURVE",
"417 282 CURVE SMOOTH",
"417 0 LINE",
"506 0 LINE",
"506 298 LINE SMOOTH",
"506 412 OFFCURVE",
"464 476 OFFCURVE",
"350 482 CURVE",
"331 481 OFFCURVE",
"249 423 OFFCURVE",
"195 369 CURVE",
"191 369 LINE",
"200 468 LINE",
"188 470 LINE",
"46 470 LINE",
"46 464 LINE"
);
}
);
};
hints = (
{
origin = "{0, 0}";
type = Corner;
name = _corner.topSerif;
},
{
origin = "{0, 1}";
type = Corner;
name = _corner.lcSerif;
},
{
origin = "{0, 2}";
scale = "{-1, 1}";
type = Corner;
name = _corner.lcSerif;
options = 1;
},
{
origin = "{0, 10}";
type = Corner;
name = _corner.lcSerif;
options = 1;
},
{
origin = "{0, 11}";
scale = "{-1, 1}";
type = Corner;
name = _corner.lcSerif;
},
{
origin = "{1, 7}";
type = Corner;
name = _corner.lcSerif;
},
{
origin = "{1, 8}";
scale = "{-1, 1}";
type = Corner;
name = _corner.lcSerif;
options = 1;
}
);
layerId = "33C692B7-ECA1-4228-A9DA-44701B454552";
paths = (
{
closed = 1;
nodes = (
"95 470 LINE",
"95 0 LINE",
"184 0 LINE",
"184 362 LINE",
"217 394 OFFCURVE",
"265 413 OFFCURVE",
"305 413 CURVE SMOOTH",
"367 413 OFFCURVE",
"398 377 OFFCURVE",
"398 282 CURVE SMOOTH",
"398 0 LINE",
"487 0 LINE",
"487 318 LINE SMOOTH",
"487 423 OFFCURVE",
"436 482 OFFCURVE",
"331 482 CURVE",
"285 461 OFFCURVE",
"221 414 OFFCURVE",
"181 369 CURVE",
"180 369 LINE",
"180 470 LINE"
);
},
{
closed = 1;
nodes = (
"470 364 LINE",
"503 395 OFFCURVE",
"550 413 OFFCURVE",
"589 413 CURVE SMOOTH",
"651 413 OFFCURVE",
"682 377 OFFCURVE",
"682 282 CURVE SMOOTH",
"682 0 LINE",
"771 0 LINE",
"771 318 LINE SMOOTH",
"771 423 OFFCURVE",
"720 482 OFFCURVE",
"615 482 CURVE",
"569 461 OFFCURVE",
"506 414 OFFCURVE",
"466 370 CURVE"
);
}
);
width = 856;
},
{
anchors = (
{
name = bottom;
position = "{455, 0}";
},
{
name = top;
position = "{455, 480}";
}
);
background = {
components = (
{
name = n;
transform = "{1, 0, 0, 1, -8, 0}";
}
);
};
hints = (
{
origin = "{0, 6}";
scale = "{0.8, 1}";
type = Corner;
name = _corner.lcSerif;
},
{
origin = "{0, 7}";
scale = "{-0.8, 1}";
type = Corner;
name = _corner.lcSerif;
},
{
origin = "{1, 2}";
type = Corner;
name = _corner.topSerif;
options = 1;
},
{
origin = "{1, 3}";
type = Corner;
name = _corner.lcSerif;
},
{
origin = "{1, 4}";
scale = "{-0.9, 1}";
type = Corner;
name = _corner.lcSerif;
},
{
origin = "{2, 6}";
scale = "{0.9, 1}";
type = Corner;
name = _corner.lcSerif;
},
{
origin = "{2, 7}";
scale = "{-1, 1}";
type = Corner;
name = _corner.lcSerif;
}
);
layerId = "6E858C87-3851-4F0D-A4B8-5C62800DDA3D";
paths = (
{
closed = 1;
nodes = (
"239 389 OFFCURVE",
"268 400 OFFCURVE",
"298 400 CURVE SMOOTH",
"359 400 OFFCURVE",
"389 359 OFFCURVE",
"389 259 CURVE SMOOTH",
"389 0 LINE",
"533 0 LINE",
"533 330 LINE SMOOTH",
"533 446 OFFCURVE",
"483 494 OFFCURVE",
"366 494 CURVE",
"312 461 OFFCURVE",
"254 422 OFFCURVE",
"207 378 CURVE",
"207 365 LINE"
);
},
{
closed = 1;
nodes = (
"231 384 LINE",
"231 480 LINE",
"92 480 LINE",
"92 0 LINE",
"236 0 LINE",
"236 384 LINE"
);
},
{
closed = 1;
nodes = (
"536 389 OFFCURVE",
"565 400 OFFCURVE",
"595 400 CURVE SMOOTH",
"656 400 OFFCURVE",
"686 359 OFFCURVE",
"686 259 CURVE SMOOTH",
"686 0 LINE",
"830 0 LINE",
"830 330 LINE SMOOTH",
"830 446 OFFCURVE",
"780 494 OFFCURVE",
"663 494 CURVE",
"609 461 OFFCURVE",
"551 422 OFFCURVE",
"504 378 CURVE",
"504 365 LINE"
);
}
);
width = 907;
}
);
leftKerningGroup = n;
leftMetricsKey = n;
rightKerningGroup = n;
rightMetricsKey = n;
unicode = 006D;
}
{
color = 4;
glyphname = n;
layers = (
{
anchors = (
{
name = bottom;
position = "{293, 0}";
},
{
name = top;
position = "{287, 470}";
}
);
hints = (
{
origin = "{1, 4}";
type = Corner;
name = _corner.topSerif;
},
{
origin = "{1, 5}";
type = Corner;
name = _corner.lcSerif;
},
{
origin = "{1, 0}";
scale = "{-1, 1}";
type = Corner;
name = _corner.lcSerif;
},
{
origin = "{0, 0}";
type = Corner;
name = _corner.lcSerif;
},
{
origin = "{0, 1}";
scale = "{-1, 1}";
type = Corner;
name = _corner.lcSerif;
options = 1;
}
);
layerId = "33C692B7-ECA1-4228-A9DA-44701B454552";
paths = (
{
closed = 1;
nodes = (
"398 0 LINE",
"487 0 LINE",
"487 320 LINE SMOOTH",
"487 425 OFFCURVE",
"436 484 OFFCURVE",
"331 484 CURVE",
"286 463 OFFCURVE",
"222 417 OFFCURVE",
"174 368 CURVE",
"179 362 LINE",
"220 397 OFFCURVE",
"266 415 OFFCURVE",
"305 415 CURVE SMOOTH",
"367 415 OFFCURVE",
"398 379 OFFCURVE",
"398 284 CURVE SMOOTH"
);
},
{
closed = 1;
nodes = (
"184 0 LINE",
"184 371 LINE",
"180 371 LINE",
"180 470 LINE",
"95 470 LINE",
"95 0 LINE"
);
}
);
width = 572;
},
{
anchors = (
{
name = bottom;
position = "{308, 0}";
},
{
name = top;
position = "{297, 480}";
}
);
hints = (
{
origin = "{1, 5}";
type = Corner;
name = _corner.lcSerif;
},
{
origin = "{1, 0}";
scale = "{-0.9, 1}";
type = Corner;
name = _corner.lcSerif;
},
{
origin = "{1, 4}";
type = Corner;
name = _corner.topSerif;
options = 1;
},
{
origin = "{0, 0}";
scale = "{0.9, 1}";
type = Corner;
name = _corner.lcSerif;
},
{
origin = "{0, 1}";
scale = "{-1, 1}";
type = Corner;
name = _corner.lcSerif;
}
);
layerId = "6E858C87-3851-4F0D-A4B8-5C62800DDA3D";
paths = (
{
closed = 1;
nodes = (
"399 0 LINE",
"543 0 LINE",
"543 330 LINE SMOOTH",
"543 446 OFFCURVE",
"493 494 OFFCURVE",
"376 494 CURVE",
"322 461 OFFCURVE",
"264 422 OFFCURVE",
"217 378 CURVE",
"217 365 LINE",
"249 389 OFFCURVE",
"278 400 OFFCURVE",
"308 400 CURVE SMOOTH",
"369 400 OFFCURVE",
"399 359 OFFCURVE",
"399 259 CURVE SMOOTH"
);
},
{
closed = 1;
nodes = (
"236 0 LINE",
"236 384 LINE",
"231 384 LINE",
"231 480 LINE",
"92 480 LINE",
"92 0 LINE"
);
}
);
width = 620;
}
);
leftKerningGroup = n;
rightKerningGroup = n;
unicode = 006E;
}
{
color = 4;
glyphname = o;
layers = (
{
anchors = (
{
name = top;
position = "{272, 470}";
}
);
layerId = "33C692B7-ECA1-4228-A9DA-44701B454552";
paths = (
{
closed = 1;
nodes = (
"301 4 OFFCURVE",
"502 55 OFFCURVE",
"502 252 CURVE SMOOTH",
"502 389 OFFCURVE",
"414 486 OFFCURVE",
"286 484 CURVE",
"240 471 OFFCURVE",
"36 398 OFFCURVE",
"36 219 CURVE SMOOTH",
"36 86 OFFCURVE",
"115 -14 OFFCURVE",
"258 -14 CURVE"
);
},
{
closed = 1;
nodes = (
"200 17 OFFCURVE",
"134 121 OFFCURVE",
"134 258 CURVE SMOOTH",
"134 368 OFFCURVE",
"178 448 OFFCURVE",
"244 448 CURVE SMOOTH",
"333 448 OFFCURVE",
"402 347 OFFCURVE",
"402 213 CURVE SMOOTH",
"402 102 OFFCURVE",
"357 17 OFFCURVE",
"288 17 CURVE SMOOTH"
);
}
);
width = 541;
},
{
anchors = (
{
name = bottom;
position = "{280, 0}";
},
{
name = center;
position = "{407, 166}";
},
{
name = ogonek;
position = "{506, 10}";
},
{
name = top;
position = "{280, 480}";
},
{
name = topright;
position = "{543, 480}";
}
);
background = {
anchors = (
{
name = top;
position = "{313, 470}";
}
);
};
layerId = "6E858C87-3851-4F0D-A4B8-5C62800DDA3D";
paths = (
{
closed = 1;
nodes = (
"241 26 OFFCURVE",
"183 135 OFFCURVE",
"183 273 CURVE SMOOTH",
"183 377 OFFCURVE",
"213 454 OFFCURVE",
"257 454 CURVE SMOOTH",
"322 454 OFFCURVE",
"375 344 OFFCURVE",
"375 206 CURVE SMOOTH",
"375 107 OFFCURVE",
"349 31 OFFCURVE",
"309 28 CURVE SMOOTH"
);
},
{
closed = 1;
nodes = (
"298 493 CURVE",
"111 435 OFFCURVE",
"33 348 OFFCURVE",
"33 223 CURVE SMOOTH",
"33 79 OFFCURVE",
"128 -13 OFFCURVE",
"260 -13 CURVE",
"446 48 OFFCURVE",
"526 124 OFFCURVE",
"526 264 CURVE SMOOTH",
"526 412 OFFCURVE",
"434 493 OFFCURVE"
);
}
);
width = 561;
}
);
leftKerningGroup = o;
rightKerningGroup = o;
unicode = 006F;
}
{
color = 3;
glyphname = asciitilde;
layers = (
{
layerId = "33C692B7-ECA1-4228-A9DA-44701B454552";
paths = (
{
closed = 1;
nodes = (
"88 176 LINE",
"90 225 OFFCURVE",
"114 256 OFFCURVE",
"150 256 CURVE SMOOTH",
"208 256 OFFCURVE",
"254 176 OFFCURVE",
"326 176 CURVE SMOOTH",
"387 176 OFFCURVE",
"426 223 OFFCURVE",
"426 296 CURVE",
"388 296 LINE",
"387 247 OFFCURVE",
"363 216 OFFCURVE",
"326 216 CURVE SMOOTH",
"268 216 OFFCURVE",
"222 296 OFFCURVE",
"150 296 CURVE SMOOTH",
"89 296 OFFCURVE",
"50 249 OFFCURVE",
"50 176 CURVE"
);
}
);
width = 476;
},
{
layerId = "6E858C87-3851-4F0D-A4B8-5C62800DDA3D";
paths = (
{
closed = 1;
nodes = (
"108 166 LINE",
"110 215 OFFCURVE",
"134 246 OFFCURVE",
"160 246 CURVE SMOOTH",
"218 246 OFFCURVE",
"284 166 OFFCURVE",
"356 166 CURVE SMOOTH",
"427 166 OFFCURVE",
"466 233 OFFCURVE",
"466 306 CURVE",
"408 306 LINE",
"407 257 OFFCURVE",
"383 226 OFFCURVE",
"356 226 CURVE SMOOTH",
"298 226 OFFCURVE",
"232 306 OFFCURVE",
"160 306 CURVE SMOOTH",
"89 306 OFFCURVE",
"50 239 OFFCURVE",
"50 166 CURVE"
);
}
);
width = 516;
}
);
leftKerningGroup = asciitilde;
rightKerningGroup = asciitilde;
unicode = 007E;
}
{
color = 3;
glyphname = bar;
layers = (
{
layerId = "33C692B7-ECA1-4228-A9DA-44701B454552";
paths = (
{
closed = 1;
nodes = (
"138 -250 LINE",
"138 750 LINE",
"100 750 LINE",
"100 -250 LINE"
);
}
);
width = 238;
},
{
layerId = "6E858C87-3851-4F0D-A4B8-5C62800DDA3D";
paths = (
{
closed = 1;
nodes = (
"121 750 LINE",
"121 -251 LINE",
"181 -250 LINE",
"181 750 LINE"
);
}
);
width = 302;
}
);
leftKerningGroup = bar;
rightKerningGroup = bar;
rightMetricsKey = "=|";
unicode = 007C;
}
{
color = 3;
glyphname = braceleft;
layers = (
{
background = {
paths = (
{
closed = 1;
nodes = (
"85 -250 LINE",
"177 -250 LINE",
"177 750 LINE",
"85 750 LINE"
);
}
);
};
layerId = "33C692B7-ECA1-4228-A9DA-44701B454552";
paths = (
{
closed = 1;
nodes = (
"25 282 LINE",
"71 278 OFFCURVE",
"88 255 OFFCURVE",
"88 226 CURVE SMOOTH",
"88 -59 LINE SMOOTH",
"88 -171 OFFCURVE",
"159 -246 OFFCURVE",
"224 -250 CURVE",
"227 -237 LINE",
"186 -229 OFFCURVE",
"176 -185 OFFCURVE",
"176 -92 CURVE SMOOTH",
"176 -40 OFFCURVE",
"176 23 OFFCURVE",
"176 145 CURVE SMOOTH",
"176 222 OFFCURVE",
"122 266 OFFCURVE",
"89 277 CURVE",
"120 293 OFFCURVE",
"176 333 OFFCURVE",
"176 450 CURVE SMOOTH",
"176 564 LINE SMOOTH",
"176 689 OFFCURVE",
"198 731 OFFCURVE",
"240 748 CURVE",
"235 760 LINE",
"159 743 OFFCURVE",
"88 691 OFFCURVE",
"88 509 CURVE SMOOTH",
"88 352 LINE SMOOTH",
"88 313 OFFCURVE",
"70 299 OFFCURVE",
"25 293 CURVE"
);
}
);
width = 267;
},
{
background = {
paths = (
{
closed = 1;
nodes = (
"25 284 LINE",
"61 280 OFFCURVE",
"78 257 OFFCURVE",
"78 228 CURVE SMOOTH",
"78 -138 LINE SMOOTH",
"78 -171 OFFCURVE",
"177 -255 OFFCURVE",
"205 -255 CURVE",
"217 -237 LINE",
"200 -222 OFFCURVE",
"195 -185 OFFCURVE",
"195 -162 CURVE SMOOTH",
"195 -40 OFFCURVE",
"195 25 OFFCURVE",
"195 147 CURVE",
"185 223 OFFCURVE",
"130 262 OFFCURVE",
"108 289 CURVE",
"128 311 OFFCURVE",
"185 354 OFFCURVE",
"195 450 CURVE",
"195 666 LINE SMOOTH",
"195 689 OFFCURVE",
"199 729 OFFCURVE",
"219 739 CURVE",
"206 753 LINE",
"161 753 OFFCURVE",
"78 691 OFFCURVE",
"78 658 CURVE SMOOTH",
"78 354 LINE SMOOTH",
"78 315 OFFCURVE",
"60 301 OFFCURVE",
"25 295 CURVE"
);
}
);
};
layerId = "6E858C87-3851-4F0D-A4B8-5C62800DDA3D";
paths = (
{
closed = 1;
nodes = (
"-5 282 LINE",
"26 278 OFFCURVE",
"43 255 OFFCURVE",
"43 226 CURVE SMOOTH",
"43 -59 LINE SMOOTH",
"43 -171 OFFCURVE",
"114 -246 OFFCURVE",
"204 -250 CURVE",
"207 -237 LINE",
"174 -229 OFFCURVE",
"166 -185 OFFCURVE",
"166 -92 CURVE SMOOTH",
"166 -40 OFFCURVE",
"166 23 OFFCURVE",
"166 145 CURVE SMOOTH",
"166 222 OFFCURVE",
"106 266 OFFCURVE",
"69 277 CURVE",
"104 293 OFFCURVE",
"166 333 OFFCURVE",
"166 450 CURVE SMOOTH",
"166 564 LINE SMOOTH",
"166 689 OFFCURVE",
"188 731 OFFCURVE",
"220 748 CURVE",
"215 760 LINE",
"139 743 OFFCURVE",
"43 691 OFFCURVE",
"43 509 CURVE SMOOTH",
"43 352 LINE SMOOTH",
"43 313 OFFCURVE",
"25 299 OFFCURVE",
"-5 293 CURVE"
);
}
);
width = 249;
}
);
leftKerningGroup = braceleft;
rightKerningGroup = braceleft;
unicode = 007B;
}
{
color = 4;
glyphname = z;
layers = (
{
anchors = (
{
name = top;
position = "{227, 470}";
}
);
background = {
paths = (
{
closed = 1;
nodes = (
"416 458 LINE",
"408 470 LINE",
"323 470 LINE",
"31 14 LINE",
"43 0 LINE",
"135 0 LINE"
);
},
{
closed = 1;
nodes = (
"58 459 LINE",
"340 459 LINE",
"340 470 LINE",
"58 470 LINE"
);
},
{
closed = 1;
nodes = (
"97 0 LINE",
"405 0 LINE",
"405 11 LINE",
"109 11 LINE"
);
},
{
closed = 1;
nodes = (
"407 143 LINE",
"398 145 LINE",
"348 11 LINE",
"405 0 LINE"
);
},
{
closed = 1;
nodes = (
"54 337 LINE",
"63 335 LINE",
"116 461 LINE",
"58 464 LINE"
);
}
);
};
layerId = "33C692B7-ECA1-4228-A9DA-44701B454552";
paths = (
{
closed = 1;
nodes = (
"52 0 LINE",
"405 0 LINE",
"407 143 LINE",
"398 145 LINE",
"335 11 LINE",
"146 11 LINE",
"409 458 LINE",
"401 470 LINE",
"51 470 LINE",
"51 464 LINE",
"47 337 LINE",
"56 335 LINE",
"121 459 LINE",
"313 459 LINE",
"40 14 LINE"
);
}
);
width = 440;
},
{
anchors = (
{
name = bottom;
position = "{233, 0}";
},
{
name = center;
position = "{233, 240}";
},
{
name = top;
position = "{243, 480}";
}
);
layerId = "6E858C87-3851-4F0D-A4B8-5C62800DDA3D";
paths = (
{
closed = 1;
nodes = (
"32 0 LINE",
"445 0 LINE",
"445 153 LINE",
"425 153 LINE",
"335 24 LINE",
"190 20 LINE",
"449 468 LINE",
"441 480 LINE",
"43 480 LINE",
"43 474 LINE",
"43 334 LINE",
"63 334 LINE",
"155 456 LINE",
"289 460 LINE",
"20 14 LINE"
);
}
);
width = 466;
}
);
leftKerningGroup = z;
rightKerningGroup = z;
unicode = 007A;
}
{
color = 3;
glyphname = euro;
layers = (
{
anchors = (
{
name = bottom;
position = "{334, 0}";
},
{
name = top;
position = "{514, 700}";
}
);
layerId = "33C692B7-ECA1-4228-A9DA-44701B454552";
paths = (
{
closed = 1;
nodes = (
"91 126 OFFCURVE",
"210 -12 OFFCURVE",
"420 -13 CURVE",
"484 17 OFFCURVE",
"604 114 OFFCURVE",
"632 139 CURVE",
"626 147 LINE",
"467 44 LINE",
"298 44 OFFCURVE",
"192 195 OFFCURVE",
"192 376 CURVE SMOOTH",
"192 553 OFFCURVE",
"277 663 OFFCURVE",
"354 663 CURVE SMOOTH",
"467 663 OFFCURVE",
"570 602 OFFCURVE",
"584 497 CURVE",
"596 498 LINE",
"595 678 LINE",
"530 701 OFFCURVE",
"460 717 OFFCURVE",
"391 714 CURVE",
"217 642 OFFCURVE",
"91 528 OFFCURVE",
"91 317 CURVE SMOOTH"
);
},
{
closed = 1;
nodes = (
"10 377 LINE",
"473 377 LINE",
"473 400 LINE",
"10 400 LINE"
);
},
{
closed = 1;
nodes = (
"10 307 LINE",
"473 307 LINE",
"473 330 LINE",
"10 330 LINE"
);
}
);
width = 672;
},
{
anchors = (
{
name = bottom;
position = "{342, 0}";
},
{
name = top;
position = "{616, 700}";
}
);
layerId = "6E858C87-3851-4F0D-A4B8-5C62800DDA3D";
paths = (
{
closed = 1;
nodes = (
"69 111 OFFCURVE",
"210 -7 OFFCURVE",
"389 -14 CURVE",
"493 41 OFFCURVE",
"587 107 OFFCURVE",
"642 154 CURVE",
"633 169 LINE",
"563 122 OFFCURVE",
"528 101 OFFCURVE",
"461 66 CURVE",
"314 66 OFFCURVE",
"220 234 OFFCURVE",
"220 426 CURVE SMOOTH",
"220 563 OFFCURVE",
"267 652 OFFCURVE",
"359 652 CURVE SMOOTH",
"472 652 OFFCURVE",
"562 579 OFFCURVE",
"598 476 CURVE",
"612 477 LINE",
"609 685 LINE",
"542 704 OFFCURVE",
"492 714 OFFCURVE",
"387 714 CURVE",
"276 668 OFFCURVE",
"69 544 OFFCURVE",
"69 321 CURVE SMOOTH"
);
},
{
closed = 1;
nodes = (
"0 383 LINE",
"473 383 LINE",
"473 413 LINE",
"0 413 LINE"
);
},
{
closed = 1;
nodes = (
"0 313 LINE",
"473 313 LINE",
"473 343 LINE",
"0 343 LINE"
);
}
);
width = 652;
}
);
leftKerningGroup = euro;
rightKerningGroup = euro;
unicode = 20AC;
}
{
color = 3;
glyphname = exclam;
layers = (
{
components = (
{
name = period;
transform = "{1, 0, 0, 1, 10, 0}";
}
);
layerId = "33C692B7-ECA1-4228-A9DA-44701B454552";
paths = (
{
closed = 1;
nodes = (
"121 195 LINE",
"176 722 LINE",
"136 741 LINE",
"66 723 LINE",
"110 195 LINE"
);
}
);
width = 242;
},
{
components = (
{
name = period;
transform = "{1, 0, 0, 1, 17, 0}";
}
);
layerId = "6E858C87-3851-4F0D-A4B8-5C62800DDA3D";
paths = (
{
closed = 1;
nodes = (
"133 195 LINE",
"206 722 LINE",
"143 760 LINE",
"50 723 LINE",
"113 195 LINE"
);
}
);
width = 256;
}
);
leftKerningGroup = exclam;
rightKerningGroup = exclam;
unicode = 0021;
}
{
color = 3;
glyphname = quotedbl;
layers = (
{
layerId = "33C692B7-ECA1-4228-A9DA-44701B454552";
paths = (
{
closed = 1;
nodes = (
"75 536 LINE",
"130 782 LINE",
"90 801 LINE",
"20 783 LINE",
"64 536 LINE"
);
},
{
closed = 1;
nodes = (
"227 536 LINE",
"282 782 LINE",
"242 801 LINE",
"172 783 LINE",
"216 536 LINE"
);
}
);
width = 302;
},
{
layerId = "6E858C87-3851-4F0D-A4B8-5C62800DDA3D";
paths = (
{
closed = 1;
nodes = (
"92 568 LINE",
"155 824 LINE",
"105 849 LINE",
"25 825 LINE",
"71 568 LINE"
);
},
{
closed = 1;
nodes = (
"254 568 LINE",
"317 824 LINE",
"267 849 LINE",
"187 825 LINE",
"233 568 LINE"
);
}
);
width = 342;
}
);
leftKerningGroup = quotedbl;
rightKerningGroup = quotedbl;
unicode = 0022;
}
{
color = 3;
glyphname = numbersign;
layers = (
{
layerId = "33C692B7-ECA1-4228-A9DA-44701B454552";
paths = (
{
closed = 1;
nodes = (
"146 -88 LINE",
"360 628 LINE",
"322 628 LINE",
"108 -88 LINE"
);
},
{
closed = 1;
nodes = (
"406 -88 LINE",
"620 628 LINE",
"582 628 LINE",
"368 -88 LINE"
);
},
{
closed = 1;
nodes = (
"640 121 LINE",
"640 154 LINE",
"40 154 LINE",
"40 121 LINE"
);
},
{
closed = 1;
nodes = (
"684 381 LINE",
"684 414 LINE",
"84 414 LINE",
"84 381 LINE"
);
}
);
width = 724;
},
{
layerId = "6E858C87-3851-4F0D-A4B8-5C62800DDA3D";
paths = (
{
closed = 1;
nodes = (
"136 -88 LINE",
"350 628 LINE",
"292 628 LINE",
"78 -88 LINE"
);
},
{
closed = 1;
nodes = (
"431 -88 LINE",
"645 628 LINE",
"587 628 LINE",
"373 -88 LINE"
);
},
{
closed = 1;
nodes = (
"650 118 LINE",
"650 168 LINE",
"20 168 LINE",
"20 118 LINE"
);
},
{
closed = 1;
nodes = (
"696 394 LINE",
"696 444 LINE",
"74 444 LINE",
"74 394 LINE"
);
}
);
width = 716;
},
{
associatedMasterId = "33C692B7-ECA1-4228-A9DA-44701B454552";
layerId = "CFCF93B9-582E-4EE0-A2AF-77B3B13FD33D";
name = "10 feb 22, 13:00";
paths = (
{
closed = 1;
nodes = (
"95 -42 LINE",
"162 -42 LINE",
"473 750 LINE",
"411 750 LINE"
);
},
{
closed = 1;
nodes = (
"385 -42 LINE",
"452 -42 LINE",
"763 750 LINE",
"701 750 LINE"
);
},
{
closed = 1;
nodes = (
"3 449 LINE",
"865 449 LINE",
"880 496 LINE",
"19 497 LINE"
);
},
{
closed = 1;
nodes = (
"-35 187 LINE",
"815 187 LINE",
"830 234 LINE",
"-19 235 LINE"
);
}
);
width = 902;
}
);
leftKerningGroup = numbersign;
rightKerningGroup = numbersign;
unicode = 0023;
}
{
color = 3;
glyphname = dollar;
layers = (
{
components = (
{
name = S;
}
);
layerId = "33C692B7-ECA1-4228-A9DA-44701B454552";
paths = (
{
closed = 1;
nodes = (
"268 788 LINE",
"268 -106 LINE",
"291 -106 LINE",
"291 788 LINE"
);
}
);
width = 560;
},
{
components = (
{
name = S;
}
);
layerId = "6E858C87-3851-4F0D-A4B8-5C62800DDA3D";
paths = (
{
closed = 1;
nodes = (
"285 788 LINE",
"285 -106 LINE",
"320 -106 LINE",
"320 788 LINE"
);
}
);
width = 582;
}
);
leftKerningGroup = dollar;
leftMetricsKey = S;
rightKerningGroup = dollar;
rightMetricsKey = S;
unicode = 0024;
}
{
color = 3;
glyphname = ampersand;
layers = (
{
background = {
paths = (
{
closed = 1;
nodes = (
"40 68 OFFCURVE",
"120 -14 OFFCURVE",
"298 -14 CURVE",
"342 11 OFFCURVE",
"386 38 OFFCURVE",
"420 66 CURVE",
"440 42 OFFCURVE",
"513 -23 OFFCURVE",
"567 -41 CURVE",
"609 0 LINE",
"697 91 LINE",
"688 101 LINE",
"617 32 LINE",
"573 51 OFFCURVE",
"519 98 OFFCURVE",
"483 139 CURVE",
"641 349 LINE",
"626 361 LINE",
"474 150 LINE",
"367 266 OFFCURVE",
"219 477 OFFCURVE",
"219 590 CURVE SMOOTH",
"219 653 OFFCURVE",
"272 663 OFFCURVE",
"303 663 CURVE SMOOTH",
"356 663 OFFCURVE",
"389 635 OFFCURVE",
"407 603 CURVE",
"418 599 LINE",
"471 643 LINE",
"447 709 OFFCURVE",
"349 735 OFFCURVE",
"273 709 CURVE",
"134 573 LINE",
"134 530 OFFCURVE",
"161 456 OFFCURVE",
"186 405 CURVE",
"118 361 OFFCURVE",
"40 276 OFFCURVE",
"40 175 CURVE SMOOTH"
);
},
{
closed = 1;
nodes = (
"118 310 OFFCURVE",
"145 358 OFFCURVE",
"192 394 CURVE",
"244 292 OFFCURVE",
"327 167 OFFCURVE",
"411 77 CURVE",
"391 60 OFFCURVE",
"360 56 OFFCURVE",
"326 56 CURVE SMOOTH",
"198 56 OFFCURVE",
"118 138 OFFCURVE",
"118 247 CURVE SMOOTH"
);
}
);
};
layerId = "33C692B7-ECA1-4228-A9DA-44701B454552";
paths = (
{
closed = 1;
nodes = (
"471 129 LINE",
"641 359 LINE",
"626 371 LINE",
"462 140 LINE"
);
},
{
closed = 1;
nodes = (
"411 26 OFFCURVE",
"557 -14 CURVE",
"599 27 LINE",
"687 118 LINE",
"678 128 LINE",
"607 59 LINE",
"473 117 OFFCURVE",
"219 448 OFFCURVE",
"219 590 CURVE SMOOTH",
"219 653 OFFCURVE",
"272 663 OFFCURVE",
"303 663 CURVE SMOOTH",
"356 663 OFFCURVE",
"389 635 OFFCURVE",
"407 603 CURVE",
"418 599 LINE",
"471 643 LINE",
"447 709 OFFCURVE",
"349 735 OFFCURVE",
"292 716 CURVE",
"133 567 LINE",
"134 421 OFFCURVE"
);
},
{
closed = 1;
nodes = (
"419 90 LINE",
"389 60 OFFCURVE",
"359 56 OFFCURVE",
"326 56 CURVE SMOOTH",
"198 56 OFFCURVE",
"118 138 OFFCURVE",
"118 247 CURVE SMOOTH",
"118 309 OFFCURVE",
"144 356 OFFCURVE",
"199 407 CURVE",
"193 418 LINE",
"116 359 OFFCURVE",
"40 275 OFFCURVE",
"40 175 CURVE SMOOTH",
"40 68 OFFCURVE",
"120 -14 OFFCURVE",
"298 -14 CURVE",
"341 10 OFFCURVE",
"384 37 OFFCURVE",
"427 79 CURVE"
);
}
);
width = 692;
},
{
layerId = "6E858C87-3851-4F0D-A4B8-5C62800DDA3D";
paths = (
{
closed = 1;
nodes = (
"509 129 LINE",
"657 359 LINE",
"630 371 LINE",
"490 140 LINE"
);
},
{
closed = 1;
nodes = (
"415 26 OFFCURVE",
"573 -14 CURVE",
"741 118 LINE",
"728 132 LINE",
"643 74 LINE",
"547 150 OFFCURVE",
"251 421 OFFCURVE",
"251 588 CURVE SMOOTH",
"251 622 OFFCURVE",
"262 639 OFFCURVE",
"299 639 CURVE SMOOTH",
"344 639 OFFCURVE",
"383 612 OFFCURVE",
"405 573 CURVE",
"416 569 LINE",
"499 643 LINE",
"475 709 OFFCURVE",
"377 735 OFFCURVE",
"320 716 CURVE",
"137 547 LINE",
"137 380 OFFCURVE"
);
},
{
closed = 1;
nodes = (
"439 88 LINE",
"409 76 OFFCURVE",
"379 74 OFFCURVE",
"357 74 CURVE SMOOTH",
"230 74 OFFCURVE",
"158 149 OFFCURVE",
"158 254 CURVE SMOOTH",
"158 309 OFFCURVE",
"178 356 OFFCURVE",
"219 407 CURVE",
"213 418 LINE",
"121 359 OFFCURVE",
"30 285 OFFCURVE",
"30 182 CURVE SMOOTH",
"30 78 OFFCURVE",
"119 -14 OFFCURVE",
"328 -14 CURVE",
"361 10 OFFCURVE",
"404 37 OFFCURVE",
"447 79 CURVE"
);
}
);
width = 741;
}
);
leftKerningGroup = ampersand;
rightKerningGroup = ampersand;
unicode = 0026;
}
{
color = 3;
glyphname = quotesingle;
layers = (
{
layerId = "33C692B7-ECA1-4228-A9DA-44701B454552";
paths = (
{
closed = 1;
nodes = (
"80 536 LINE",
"135 782 LINE",
"95 801 LINE",
"25 783 LINE",
"69 536 LINE"
);
}
);
width = 160;
},
{
layerId = "6E858C87-3851-4F0D-A4B8-5C62800DDA3D";
paths = (
{
closed = 1;
nodes = (
"92 568 LINE",
"155 824 LINE",
"105 849 LINE",
"25 825 LINE",
"71 568 LINE"
);
}
);
width = 180;
}
);
leftKerningGroup = quotesingle;
rightKerningGroup = quotesingle;
unicode = 0027;
}
{
color = 3;
glyphname = parenleft;
layers = (
{
layerId = "33C692B7-ECA1-4228-A9DA-44701B454552";
paths = (
{
closed = 1;
nodes = (
"149 684 OFFCURVE",
"40 496 OFFCURVE",
"40 268 CURVE SMOOTH",
"40 -3 OFFCURVE",
"156 -206 OFFCURVE",
"336 -250 CURVE",
"342 -233 LINE",
"228 -199 OFFCURVE",
"127 25 OFFCURVE",
"127 298 CURVE SMOOTH",
"127 436 OFFCURVE",
"164 668 OFFCURVE",
"326 735 CURVE",
"318 750 LINE"
);
}
);
width = 347;
},
{
background = {
paths = (
{
closed = 1;
nodes = (
"181 693 OFFCURVE",
"33 476 OFFCURVE",
"30 288 CURVE",
"30 35 OFFCURVE",
"235 -223 OFFCURVE",
"346 -250 CURVE",
"372 -233 LINE",
"280 -210 OFFCURVE",
"185 15 OFFCURVE",
"185 288 CURVE",
"185 426 OFFCURVE",
"216 668 OFFCURVE",
"361 737 CURVE",
"328 750 LINE"
);
}
);
};
layerId = "6E858C87-3851-4F0D-A4B8-5C62800DDA3D";
paths = (
{
closed = 1;
nodes = (
"149 684 OFFCURVE",
"38 495 OFFCURVE",
"38 253 CURVE SMOOTH",
"38 -4 OFFCURVE",
"156 -206 OFFCURVE",
"336 -250 CURVE",
"342 -233 LINE",
"239 -199 OFFCURVE",
"177 24 OFFCURVE",
"177 287 CURVE SMOOTH",
"177 435 OFFCURVE",
"180 668 OFFCURVE",
"326 735 CURVE",
"318 750 LINE"
);
}
);
width = 367;
}
);
leftKerningGroup = parenleft;
rightKerningGroup = parenleft;
unicode = 0028;
}
{
color = 3;
glyphname = parenright;
layers = (
{
background = {
paths = (
{
closed = 1;
nodes = (
"170 -250 LINE",
"262 -250 LINE",
"262 750 LINE",
"170 750 LINE"
);
}
);
};
components = (
{
name = parenleft;
transform = "{-1, 0, 0, -1, 347, 500}";
}
);
layerId = "33C692B7-ECA1-4228-A9DA-44701B454552";
width = 347;
},
{
components = (
{
name = parenleft;
transform = "{-1, 0, 0, -1, 347, 500}";
}
);
layerId = "6E858C87-3851-4F0D-A4B8-5C62800DDA3D";
width = 367;
}
);
leftKerningGroup = parenright;
rightKerningGroup = parenright;
unicode = 0029;
}
{
export = 0;
glyphname = hungarumlautcomb;
layers = (
{
anchors = (
{
name = _top;
position = "{251, 535}";
},
{
name = top;
position = "{251, 744}";
}
);
layerId = "33C692B7-ECA1-4228-A9DA-44701B454552";
paths = (
{
closed = 1;
nodes = (
"292 736 LINE",
"292 737 LINE",
"285 743 LINE",
"208 740 LINE",
"151 593 LINE",
"157 589 LINE"
);
},
{
closed = 1;
nodes = (
"412 726 LINE",
"413 727 LINE",
"406 736 LINE",
"330 744 LINE",
"247 598 LINE",
"252 593 LINE"
);
}
);
width = 400;
},
{
anchors = (
{
name = _top;
position = "{229, 504}";
},
{
name = top;
position = "{229, 752}";
}
);
layerId = "6E858C87-3851-4F0D-A4B8-5C62800DDA3D";
paths = (
{
closed = 1;
nodes = (
"257 719 LINE",
"257 720 LINE",
"249 727 LINE",
"125 724 LINE",
"123 579 LINE",
"140 572 LINE"
);
},
{
closed = 1;
nodes = (
"420 708 LINE",
"420 709 LINE",
"412 717 LINE",
"286 726 LINE",
"232 578 LINE",
"249 569 LINE"
);
}
);
width = 600;
}
);
leftKerningGroup = hungarumlautcomb;
rightKerningGroup = hungarumlautcomb;
unicode = 030B;
}
{
export = 0;
glyphname = ringcomb;
layers = (
{
anchors = (
{
name = _top;
position = "{182, 497}";
},
{
name = top;
position = "{182, 721}";
}
);
layerId = "33C692B7-ECA1-4228-A9DA-44701B454552";
paths = (
{
closed = 1;
nodes = (
"188 557 OFFCURVE",
"263 577 OFFCURVE",
"269 638 CURVE SMOOTH",
"273 683 OFFCURVE",
"244 722 OFFCURVE",
"196 724 CURVE",
"179 721 OFFCURVE",
"101 692 OFFCURVE",
"96 637 CURVE SMOOTH",
"92 594 OFFCURVE",
"119 555 OFFCURVE",
"172 552 CURVE"
);
},
{
closed = 1;
nodes = (
"158 576 OFFCURVE",
"135 608 OFFCURVE",
"135 646 CURVE SMOOTH",
"135 673 OFFCURVE",
"151 698 OFFCURVE",
"174 698 CURVE SMOOTH",
"206 698 OFFCURVE",
"230 668 OFFCURVE",
"230 631 CURVE SMOOTH",
"230 602 OFFCURVE",
"214 576 OFFCURVE",
"190 576 CURVE SMOOTH"
);
}
);
width = 400;
},
{
anchors = (
{
name = _top;
position = "{149, 496}";
},
{
name = top;
position = "{149, 737}";
}
);
layerId = "6E858C87-3851-4F0D-A4B8-5C62800DDA3D";
paths = (
{
closed = 1;
nodes = (
"156 551 OFFCURVE",
"244 573 OFFCURVE",
"251 641 CURVE SMOOTH",
"255 691 OFFCURVE",
"221 734 OFFCURVE",
"165 737 CURVE",
"146 733 OFFCURVE",
"54 701 OFFCURVE",
"48 640 CURVE SMOOTH",
"44 591 OFFCURVE",
"75 548 OFFCURVE",
"138 544 CURVE"
);
},
{
closed = 1;
nodes = (
"132 571 OFFCURVE",
"117 607 OFFCURVE",
"117 649 CURVE SMOOTH",
"117 680 OFFCURVE",
"126 709 OFFCURVE",
"143 709 CURVE SMOOTH",
"166 709 OFFCURVE",
"182 673 OFFCURVE",
"182 632 CURVE SMOOTH",
"182 600 OFFCURVE",
"173 571 OFFCURVE",
"155 571 CURVE SMOOTH"
);
}
);
width = 291;
}
);
leftKerningGroup = ringcomb;
rightKerningGroup = ringcomb;
unicode = 030A;
}
{
color = 3;
glyphname = zero;
layers = (
{
background = {
paths = (
{
closed = 1;
nodes = (
"422 -14 OFFCURVE",
"534 97 OFFCURVE",
"534 236 CURVE SMOOTH",
"534 373 OFFCURVE",
"422 484 OFFCURVE",
"285 484 CURVE SMOOTH",
"147 484 OFFCURVE",
"35 373 OFFCURVE",
"35 236 CURVE SMOOTH",
"35 97 OFFCURVE",
"147 -14 OFFCURVE",
"285 -14 CURVE SMOOTH"
);
}
);
};
layerId = "33C692B7-ECA1-4228-A9DA-44701B454552";
paths = (
{
closed = 1;
nodes = (
"405 -14 OFFCURVE",
"513 101 OFFCURVE",
"513 234 CURVE SMOOTH",
"513 392 OFFCURVE",
"417 494 OFFCURVE",
"277 494 CURVE SMOOTH",
"149 494 OFFCURVE",
"40 376 OFFCURVE",
"40 234 CURVE SMOOTH",
"40 83 OFFCURVE",
"137 -14 OFFCURVE",
"277 -14 CURVE SMOOTH"
);
},
{
closed = 1;
nodes = (
"177 43 OFFCURVE",
"101 129 OFFCURVE",
"102 236 CURVE SMOOTH",
"103 352 OFFCURVE",
"177 437 OFFCURVE",
"277 437 CURVE SMOOTH",
"377 437 OFFCURVE",
"450 352 OFFCURVE",
"451 236 CURVE SMOOTH",
"452 129 OFFCURVE",
"377 43 OFFCURVE",
"277 43 CURVE SMOOTH"
);
}
);
width = 553;
},
{
layerId = "6E858C87-3851-4F0D-A4B8-5C62800DDA3D";
paths = (
{
closed = 1;
nodes = (
"405 -14 OFFCURVE",
"518 101 OFFCURVE",
"518 234 CURVE SMOOTH",
"518 392 OFFCURVE",
"417 494 OFFCURVE",
"277 494 CURVE SMOOTH",
"149 494 OFFCURVE",
"35 376 OFFCURVE",
"35 234 CURVE SMOOTH",
"35 83 OFFCURVE",
"137 -14 OFFCURVE",
"277 -14 CURVE SMOOTH"
);
},
{
closed = 1;
nodes = (
"190 69 OFFCURVE",
"119 143 OFFCURVE",
"120 236 CURVE SMOOTH",
"121 337 OFFCURVE",
"190 411 OFFCURVE",
"277 411 CURVE SMOOTH",
"364 411 OFFCURVE",
"432 337 OFFCURVE",
"433 236 CURVE SMOOTH",
"434 143 OFFCURVE",
"364 69 OFFCURVE",
"277 69 CURVE SMOOTH"
);
}
);
width = 553;
}
);
leftKerningGroup = zero;
rightKerningGroup = zero;
unicode = 0030;
}
{
color = 3;
glyphname = one;
layers = (
{
hints = (
{
origin = "{0, 2}";
scale = "{1.34105, 1}";
type = Corner;
name = _corner.lcSerif;
},
{
origin = "{0, 3}";
scale = "{-1.34105, 1}";
type = Corner;
name = _corner.lcSerif;
},
{
origin = "{0, 1}";
scale = "{-1.34105, 1}";
type = Corner;
name = _corner.lcSerif;
},
{
origin = "{0, 0}";
scale = "{1.34105, 1}";
type = Corner;
name = _corner.lcSerif;
}
);
layerId = "33C692B7-ECA1-4228-A9DA-44701B454552";
paths = (
{
closed = 1;
nodes = (
"232 470 LINE",
"134 470 LINE",
"134 0 LINE",
"232 0 LINE"
);
}
);
width = 366;
},
{
hints = (
{
origin = "{0, 0}";
scale = "{1.34105, 1.1}";
type = Corner;
name = _corner.lcSerif;
},
{
origin = "{0, 1}";
scale = "{-1.34105, 1.1}";
type = Corner;
name = _corner.lcSerif;
},
{
origin = "{0, 2}";
scale = "{1.34105, 1.1}";
type = Corner;
name = _corner.lcSerif;
},
{
origin = "{0, 3}";
scale = "{-1.34105, 1.1}";
type = Corner;
name = _corner.lcSerif;
}
);
layerId = "6E858C87-3851-4F0D-A4B8-5C62800DDA3D";
paths = (
{
closed = 1;
nodes = (
"273 480 LINE",
"123 480 LINE",
"123 0 LINE",
"273 0 LINE"
);
}
);
width = 396;
}
);
leftKerningGroup = one;
rightKerningGroup = one;
unicode = 0031;
}
{
color = 3;
glyphname = two;
layers = (
{
layerId = "33C692B7-ECA1-4228-A9DA-44701B454552";
paths = (
{
closed = 1;
nodes = (
"283 206 OFFCURVE",
"156 100 OFFCURVE",
"83 39 CURVE",
"73 20 LINE",
"222 105 OFFCURVE",
"394 244 OFFCURVE",
"394 355 CURVE SMOOTH",
"394 420 OFFCURVE",
"331 484 OFFCURVE",
"234 484 CURVE",
"199 472 OFFCURVE",
"94 432 OFFCURVE",
"40 382 CURVE",
"50 370 LINE",
"91 402 OFFCURVE",
"137 423 OFFCURVE",
"186 423 CURVE SMOOTH",
"242 423 OFFCURVE",
"283 394 OFFCURVE",
"283 326 CURVE SMOOTH"
);
},
{
closed = 1;
nodes = (
"42 6 LINE",
"42 0 LINE",
"389 0 LINE",
"463 117 LINE",
"452 124 LINE",
"418 79 LINE",
"108 45 LINE",
"83 39 LINE"
);
}
);
width = 498;
},
{
layerId = "6E858C87-3851-4F0D-A4B8-5C62800DDA3D";
paths = (
{
closed = 1;
nodes = (
"253 194 OFFCURVE",
"159 110 OFFCURVE",
"86 49 CURVE",
"78 30 LINE",
"227 115 OFFCURVE",
"420 232 OFFCURVE",
"420 367 CURVE SMOOTH",
"420 443 OFFCURVE",
"353 494 OFFCURVE",
"234 494 CURVE",
"146 480 OFFCURVE",
"77 434 OFFCURVE",
"30 390 CURVE",
"39 375 LINE",
"74 403 OFFCURVE",
"116 415 OFFCURVE",
"154 415 CURVE SMOOTH",
"212 415 OFFCURVE",
"253 382 OFFCURVE",
"253 309 CURVE SMOOTH"
);
},
{
closed = 1;
nodes = (
"32 6 LINE",
"32 0 LINE",
"398 0 LINE",
"504 151 LINE",
"491 160 LINE",
"463 123 LINE",
"169 73 LINE",
"86 49 LINE"
);
}
);
width = 514;
}
);
leftKerningGroup = two;
rightKerningGroup = two;
unicode = 0032;
}
{
color = 3;
glyphname = three;
layers = (
{
background = {
paths = (
{
closed = 1;
nodes = (
"90 488 LINE",
"195 468 OFFCURVE",
"330 470 OFFCURVE",
"451 473 CURVE",
"370 405 LINE",
"125 130 LINE",
"103 132 LINE",
"338 407 LINE",
"48 412 LINE",
"1 361 LINE",
"-9 363 LINE"
);
},
{
closed = 1;
nodes = (
"342 253 OFFCURVE",
"448 185 OFFCURVE",
"448 84 CURVE",
"448 -88 OFFCURVE",
"278 -234 OFFCURVE",
"146 -234 CURVE",
"147 -220 LINE",
"192 -220 OFFCURVE",
"357 -171 OFFCURVE",
"357 11 CURVE",
"357 100 OFFCURVE",
"303 166 OFFCURVE",
"147 166 CURVE",
"240 253 LINE"
);
},
{
closed = 1;
nodes = (
"43 -38 LINE",
"43 -132 OFFCURVE",
"124 -200 OFFCURVE",
"176 -220 CURVE",
"184 -223 OFFCURVE",
"156 -234 OFFCURVE",
"165 -234 CURVE",
"71 -234 OFFCURVE",
"-35 -221 OFFCURVE",
"-35 -104 CURVE",
"-18 -90 OFFCURVE",
"14 -63 OFFCURVE",
"30 -37 CURVE"
);
}
);
};
layerId = "33C692B7-ECA1-4228-A9DA-44701B454552";
paths = (
{
closed = 1;
nodes = (
"69 339 LINE",
"117 396 LINE",
"355 395 LINE",
"130 144 LINE",
"142 134 LINE",
"448 470 LINE",
"158 470 LINE",
"59 345 LINE"
);
},
{
closed = 1;
nodes = (
"62 -173 OFFCURVE",
"119 -230 OFFCURVE",
"197 -230 CURVE SMOOTH",
"202 -230 OFFCURVE",
"207 -229 OFFCURVE",
"212 -229 CURVE",
"288 -183 OFFCURVE",
"442 -114 OFFCURVE",
"442 38 CURVE SMOOTH",
"442 172 OFFCURVE",
"331 234 OFFCURVE",
"205 221 CURVE",
"149 146 LINE",
"264 167 OFFCURVE",
"365 106 OFFCURVE",
"365 -18 CURVE SMOOTH",
"365 -87 OFFCURVE",
"338 -163 OFFCURVE",
"258 -163 CURVE SMOOTH",
"187 -163 OFFCURVE",
"133 -104 OFFCURVE",
"125 -40 CURVE",
"114 -41 LINE",
"101 -58 OFFCURVE",
"70 -88 OFFCURVE",
"54 -104 CURVE"
);
}
);
width = 496;
},
{
layerId = "6E858C87-3851-4F0D-A4B8-5C62800DDA3D";
paths = (
{
closed = 1;
nodes = (
"64 312 LINE",
"106 365 LINE",
"344 364 LINE",
"140 124 LINE",
"154 113 LINE",
"481 480 LINE",
"172 480 LINE",
"49 322 LINE"
);
},
{
closed = 1;
nodes = (
"45 -158 OFFCURVE",
"101 -234 OFFCURVE",
"206 -234 CURVE",
"301 -194 OFFCURVE",
"488 -124 OFFCURVE",
"488 37 CURVE SMOOTH",
"488 148 OFFCURVE",
"404 224 OFFCURVE",
"248 224 CURVE",
"156 123 LINE",
"263 132 OFFCURVE",
"363 73 OFFCURVE",
"357 -53 CURVE SMOOTH",
"354 -119 OFFCURVE",
"321 -164 OFFCURVE",
"269 -164 CURVE SMOOTH",
"207 -164 OFFCURVE",
"153 -102 OFFCURVE",
"153 -18 CURVE",
"133 -14 LINE",
"35 -84 LINE"
);
}
);
width = 538;
}
);
leftKerningGroup = three;
rightKerningGroup = three;
unicode = 0033;
}
{
color = 3;
glyphname = four;
layers = (
{
background = {
paths = (
{
closed = 1;
nodes = (
"412 490 LINE",
"414 487 LINE",
"102 3 LINE",
"20 -10 LINE",
"127 167 OFFCURVE",
"239 353 OFFCURVE",
"294 487 CURVE"
);
},
{
closed = 1;
nodes = (
"513 18 LINE",
"513 -1 LINE",
"20 -10 LINE",
"47 9 LINE"
);
},
{
closed = 1;
nodes = (
"391 -210 LINE",
"304 -244 LINE",
"304 15 LINE",
"309 234 LINE",
"381 250 LINE",
"393 248 LINE",
"393 -204 LINE"
);
}
);
};
layerId = "33C692B7-ECA1-4228-A9DA-44701B454552";
paths = (
{
closed = 1;
nodes = (
"249 353 OFFCURVE",
"137 167 OFFCURVE",
"30 -10 CURVE",
"314 -5 LINE",
"314 -244 LINE",
"396 -212 LINE",
"403 -199 LINE",
"403 -3 LINE",
"523 -1 LINE",
"523 18 LINE",
"403 16 LINE",
"403 144 LINE",
"391 150 LINE",
"319 134 LINE",
"314 -5 LINE",
"403 -3 LINE",
"403 16 LINE",
"42 9 LINE",
"30 -10 LINE",
"112 -8 LINE",
"424 484 LINE",
"422 487 LINE",
"304 487 LINE"
);
}
);
width = 537;
},
{
layerId = "6E858C87-3851-4F0D-A4B8-5C62800DDA3D";
paths = (
{
closed = 1;
nodes = (
"229 356 OFFCURVE",
"117 167 OFFCURVE",
"10 -10 CURVE",
"159 10 LINE",
"449 479 LINE",
"443 490 LINE",
"284 490 LINE"
);
},
{
closed = 1;
nodes = (
"10 -10 LINE",
"552 -1 LINE",
"552 24 LINE",
"37 15 LINE"
);
},
{
closed = 1;
nodes = (
"452 154 LINE",
"429 170 LINE",
"323 147 LINE",
"323 -254 LINE",
"445 -221 LINE",
"452 -214 LINE"
);
}
);
width = 572;
}
);
leftKerningGroup = four;
rightKerningGroup = four;
unicode = 0034;
}
{
color = 3;
glyphname = five;
layers = (
{
background = {
components = (
{
name = three;
transform = "{1, 0, 0, 1, 11, 0}";
}
);
};
layerId = "33C692B7-ECA1-4228-A9DA-44701B454552";
paths = (
{
closed = 1;
nodes = (
"105 149 LINE",
"90 146 LINE",
"140 470 LINE",
"431 470 LINE",
"433 466 LINE",
"373 389 LINE",
"154 391 LINE"
);
},
{
closed = 1;
nodes = (
"51 -88 OFFCURVE",
"82 -58 OFFCURVE",
"95 -41 CURVE",
"106 -40 LINE",
"114 -108 OFFCURVE",
"175 -170 OFFCURVE",
"252 -162 CURVE SMOOTH",
"331 -154 OFFCURVE",
"352 -63 OFFCURVE",
"345 7 CURVE SMOOTH",
"333 118 OFFCURVE",
"231 165 OFFCURVE",
"90 146 CURVE",
"165 221 LINE",
"294 232 OFFCURVE",
"410 184 OFFCURVE",
"422 63 CURVE SMOOTH",
"440 -107 OFFCURVE",
"273 -181 OFFCURVE",
"193 -229 CURVE",
"108 -237 OFFCURVE",
"43 -177 OFFCURVE",
"35 -104 CURVE"
);
}
);
width = 488;
},
{
layerId = "6E858C87-3851-4F0D-A4B8-5C62800DDA3D";
paths = (
{
closed = 1;
nodes = (
"97 141 LINE",
"119 164 LINE",
"157 365 LINE",
"422 363 LINE",
"487 476 LINE",
"485 480 LINE",
"140 480 LINE",
"84 141 LINE"
);
},
{
closed = 1;
nodes = (
"40 -158 OFFCURVE",
"96 -234 OFFCURVE",
"201 -234 CURVE",
"296 -194 OFFCURVE",
"483 -124 OFFCURVE",
"483 37 CURVE SMOOTH",
"483 166 OFFCURVE",
"380 254 OFFCURVE",
"185 254 CURVE",
"93 141 LINE",
"215 152 OFFCURVE",
"359 94 OFFCURVE",
"352 -53 CURVE SMOOTH",
"349 -119 OFFCURVE",
"316 -164 OFFCURVE",
"264 -164 CURVE SMOOTH",
"202 -164 OFFCURVE",
"148 -102 OFFCURVE",
"148 -18 CURVE",
"128 -14 LINE",
"30 -84 LINE"
);
}
);
width = 537;
}
);
leftKerningGroup = five;
rightKerningGroup = five;
unicode = 0035;
}
{
color = 3;
glyphname = six;
layers = (
{
layerId = "33C692B7-ECA1-4228-A9DA-44701B454552";
paths = (
{
closed = 1;
nodes = (
"65 102 OFFCURVE",
"65 254 CURVE SMOOTH",
"65 476 OFFCURVE",
"237 677 OFFCURVE",
"440 764 CURVE",
"447 751 LINE",
"296 705 OFFCURVE",
"159 472 OFFCURVE",
"159 284 CURVE SMOOTH",
"159 186 OFFCURVE",
"222 29 OFFCURVE",
"313 29 CURVE SMOOTH",
"377 29 OFFCURVE",
"407 94 OFFCURVE",
"407 172 CURVE SMOOTH",
"407 233 OFFCURVE",
"380 380 OFFCURVE",
"286 380 CURVE SMOOTH",
"260 380 OFFCURVE",
"222 373 OFFCURVE",
"175 305 CURVE",
"165 313 LINE",
"200 369 OFFCURVE",
"310 446 OFFCURVE",
"320 452 CURVE",
"415 465 OFFCURVE",
"489 366 OFFCURVE",
"489 262 CURVE SMOOTH",
"489 82 OFFCURVE",
"329 -4 OFFCURVE",
"268 -19 CURVE",
"116 0 OFFCURVE"
);
}
);
width = 549;
},
{
layerId = "6E858C87-3851-4F0D-A4B8-5C62800DDA3D";
paths = (
{
closed = 1;
nodes = (
"50 88 OFFCURVE",
"50 242 CURVE SMOOTH",
"50 459 OFFCURVE",
"264 677 OFFCURVE",
"456 776 CURVE",
"470 756 LINE",
"330 703 OFFCURVE",
"191 483 OFFCURVE",
"191 300 CURVE SMOOTH",
"191 174 OFFCURVE",
"238 32 OFFCURVE",
"359 32 CURVE SMOOTH",
"414 32 OFFCURVE",
"427 99 OFFCURVE",
"427 152 CURVE SMOOTH",
"427 380 OFFCURVE",
"253 377 OFFCURVE",
"213 299 CURVE",
"196 304 LINE",
"224 373 OFFCURVE",
"330 448 OFFCURVE",
"340 455 CURVE",
"450 480 OFFCURVE",
"553 399 OFFCURVE",
"553 270 CURVE SMOOTH",
"553 99 OFFCURVE",
"383 2 OFFCURVE",
"341 -12 CURVE",
"139 -55 OFFCURVE"
);
}
);
width = 603;
}
);
leftKerningGroup = six;
rightKerningGroup = six;
unicode = 0036;
}
{
color = 3;
glyphname = seven;
layers = (
{
background = {
paths = (
{
closed = 1;
nodes = (
"256 483 OFFCURVE",
"322 471 OFFCURVE",
"367 490 CURVE",
"369 487 LINE",
"-6 28 LINE",
"-96 -12 LINE",
"11 165 OFFCURVE",
"146 323 OFFCURVE",
"201 487 CURVE"
);
},
{
closed = 1;
nodes = (
"424 18 LINE",
"424 -1 LINE",
"-96 -10 LINE",
"-68 9 LINE"
);
},
{
closed = 1;
nodes = (
"304 -210 LINE",
"217 -244 LINE",
"217 15 LINE",
"222 234 LINE",
"294 250 LINE",
"306 248 LINE",
"306 -204 LINE"
);
}
);
};
layerId = "33C692B7-ECA1-4228-A9DA-44701B454552";
paths = (
{
closed = 1;
nodes = (
"129 470 LINE",
"464 470 LINE",
"187 -238 LINE",
"67 -236 LINE",
"408 385 LINE",
"90 386 LINE",
"35 313 LINE",
"20 322 LINE"
);
}
);
width = 494;
},
{
layerId = "6E858C87-3851-4F0D-A4B8-5C62800DDA3D";
paths = (
{
closed = 1;
nodes = (
"141 480 LINE",
"502 480 LINE",
"226 -238 LINE",
"68 -236 LINE",
"414 340 LINE",
"89 341 LINE",
"35 261 LINE",
"20 270 LINE"
);
}
);
width = 542;
}
);
leftKerningGroup = seven;
rightKerningGroup = seven;
unicode = 0037;
}
{
color = 3;
glyphname = eight;
layers = (
{
background = {
paths = (
{
closed = 1;
nodes = (
"78 355 OFFCURVE",
"414 290 OFFCURVE",
"414 147 CURVE SMOOTH",
"414 73 OFFCURVE",
"366 0 OFFCURVE",
"289 0 CURVE SMOOTH",
"202 0 OFFCURVE",
"140 60 OFFCURVE",
"140 175 CURVE SMOOTH",
"140 295 OFFCURVE",
"208 330 OFFCURVE",
"240 362 CURVE",
"231 366 LINE",
"205 340 OFFCURVE",
"43 290 OFFCURVE",
"43 153 CURVE SMOOTH",
"43 34 OFFCURVE",
"167 -13 OFFCURVE",
"284 -13 CURVE SMOOTH",
"308 -13 OFFCURVE",
"509 16 OFFCURVE",
"509 171 CURVE SMOOTH",
"509 279 OFFCURVE",
"393 342 OFFCURVE",
"326 394 CURVE",
"362 401 OFFCURVE",
"477 469 OFFCURVE",
"477 567 CURVE SMOOTH",
"477 658 OFFCURVE",
"374 712 OFFCURVE",
"277 712 CURVE SMOOTH",
"252 712 OFFCURVE",
"78 675 OFFCURVE",
"78 537 CURVE SMOOTH"
);
},
{
closed = 1;
nodes = (
"181 619 OFFCURVE",
"198 695 OFFCURVE",
"277 695 CURVE SMOOTH",
"342 695 OFFCURVE",
"383 666 OFFCURVE",
"383 553 CURVE SMOOTH",
"383 475 OFFCURVE",
"357 422 OFFCURVE",
"314 398 CURVE",
"281 424 OFFCURVE",
"181 449 OFFCURVE",
"181 572 CURVE SMOOTH"
);
}
);
};
layerId = "33C692B7-ECA1-4228-A9DA-44701B454552";
paths = (
{
closed = 1;
nodes = (
"175 389 OFFCURVE",
"175 583 CURVE SMOOTH",
"175 626 OFFCURVE",
"191 689 OFFCURVE",
"275 689 CURVE SMOOTH",
"337 689 OFFCURVE",
"376 636 OFFCURVE",
"376 550 CURVE SMOOTH",
"376 483 OFFCURVE",
"344 421 OFFCURVE",
"296 391 CURVE",
"305 388 LINE",
"361 408 OFFCURVE",
"465 472 OFFCURVE",
"465 567 CURVE SMOOTH",
"465 658 OFFCURVE",
"367 712 OFFCURVE",
"275 712 CURVE",
"193 689 OFFCURVE",
"86 655 OFFCURVE",
"86 537 CURVE SMOOTH",
"86 335 OFFCURVE",
"403 300 OFFCURVE",
"403 143 CURVE SMOOTH",
"403 83 OFFCURVE",
"366 13 OFFCURVE",
"293 13 CURVE SMOOTH",
"207 13 OFFCURVE",
"152 75 OFFCURVE",
"152 175 CURVE SMOOTH",
"152 244 OFFCURVE",
"189 311 OFFCURVE",
"247 362 CURVE",
"238 366 LINE",
"213 340 OFFCURVE",
"60 290 OFFCURVE",
"60 153 CURVE SMOOTH",
"60 34 OFFCURVE",
"177 -13 OFFCURVE",
"288 -13 CURVE",
"395 21 OFFCURVE",
"493 60 OFFCURVE",
"493 171 CURVE SMOOTH",
"493 371 OFFCURVE"
);
}
);
width = 553;
},
{
layerId = "6E858C87-3851-4F0D-A4B8-5C62800DDA3D";
paths = (
{
closed = 1;
nodes = (
"63 345 OFFCURVE",
"390 233 OFFCURVE",
"390 93 CURVE SMOOTH",
"390 42 OFFCURVE",
"348 3 OFFCURVE",
"293 3 CURVE SMOOTH",
"223 3 OFFCURVE",
"167 76 OFFCURVE",
"167 177 CURVE SMOOTH",
"167 263 OFFCURVE",
"184 307 OFFCURVE",
"218 332 CURVE",
"209 336 LINE",
"182 328 OFFCURVE",
"40 281 OFFCURVE",
"40 145 CURVE SMOOTH",
"40 18 OFFCURVE",
"196 -20 OFFCURVE",
"304 -20 CURVE",
"335 -13 OFFCURVE",
"510 17 OFFCURVE",
"510 178 CURVE SMOOTH",
"510 287 OFFCURVE",
"411 342 OFFCURVE",
"334 394 CURVE",
"382 394 OFFCURVE",
"484 455 OFFCURVE",
"484 563 CURVE SMOOTH",
"484 671 OFFCURVE",
"378 712 OFFCURVE",
"285 712 CURVE",
"251 706 OFFCURVE",
"63 665 OFFCURVE",
"63 527 CURVE SMOOTH"
);
},
{
closed = 1;
nodes = (
"188 643 OFFCURVE",
"221 685 OFFCURVE",
"277 685 CURVE SMOOTH",
"334 685 OFFCURVE",
"373 640 OFFCURVE",
"373 540 CURVE SMOOTH",
"373 475 OFFCURVE",
"354 438 OFFCURVE",
"321 403 CURVE",
"285 425 OFFCURVE",
"188 490 OFFCURVE",
"188 587 CURVE SMOOTH"
);
}
);
width = 550;
}
);
leftKerningGroup = eight;
rightKerningGroup = eight;
unicode = 0038;
}
{
color = 3;
glyphname = nine;
layers = (
{
layerId = "33C692B7-ECA1-4228-A9DA-44701B454552";
paths = (
{
closed = 1;
nodes = (
"486 392 OFFCURVE",
"486 222 CURVE SMOOTH",
"486 3 OFFCURVE",
"323 -191 OFFCURVE",
"121 -277 CURVE",
"114 -263 LINE",
"262 -219 OFFCURVE",
"393 5 OFFCURVE",
"393 192 CURVE SMOOTH",
"393 312 OFFCURVE",
"325 438 OFFCURVE",
"232 438 CURVE SMOOTH",
"229 438 OFFCURVE",
"225 437 OFFCURVE",
"222 437 CURVE",
"168 425 OFFCURVE",
"146 382 OFFCURVE",
"146 315 CURVE SMOOTH",
"146 249 OFFCURVE",
"173 93 OFFCURVE",
"271 93 CURVE SMOOTH",
"293 93 OFFCURVE",
"340 107 OFFCURVE",
"377 173 CURVE",
"387 169 LINE",
"347 95 OFFCURVE",
"231 33 OFFCURVE",
"231 30 CURVE",
"139 19 OFFCURVE",
"65 109 OFFCURVE",
"65 218 CURVE SMOOTH",
"65 399 OFFCURVE",
"216 471 OFFCURVE",
"258 481 CURVE",
"397 503 OFFCURVE"
);
}
);
width = 546;
},
{
layerId = "6E858C87-3851-4F0D-A4B8-5C62800DDA3D";
paths = (
{
closed = 1;
nodes = (
"553 398 OFFCURVE",
"553 244 CURVE SMOOTH",
"553 27 OFFCURVE",
"339 -191 OFFCURVE",
"147 -290 CURVE",
"133 -270 LINE",
"273 -217 OFFCURVE",
"412 3 OFFCURVE",
"412 186 CURVE SMOOTH",
"412 312 OFFCURVE",
"365 454 OFFCURVE",
"244 454 CURVE SMOOTH",
"189 454 OFFCURVE",
"176 387 OFFCURVE",
"176 334 CURVE SMOOTH",
"176 106 OFFCURVE",
"350 109 OFFCURVE",
"390 187 CURVE",
"407 182 LINE",
"379 113 OFFCURVE",
"273 38 OFFCURVE",
"263 31 CURVE",
"153 6 OFFCURVE",
"50 87 OFFCURVE",
"50 216 CURVE SMOOTH",
"50 387 OFFCURVE",
"220 484 OFFCURVE",
"262 498 CURVE",
"464 541 OFFCURVE"
);
}
);
width = 603;
}
);
leftKerningGroup = nine;
leftMetricsKey = six;
rightKerningGroup = nine;
rightMetricsKey = six;
unicode = 0039;
}
{
color = 3;
glyphname = at;
layers = (
{
anchors = (
{
name = top;
position = "{555, 518}";
}
);
layerId = "33C692B7-ECA1-4228-A9DA-44701B454552";
paths = (
{
closed = 1;
nodes = (
"517 48 LINE",
"745 203 OFFCURVE",
"870 287 OFFCURVE",
"870 446 CURVE SMOOTH",
"870 650 OFFCURVE",
"712 751 OFFCURVE",
"496 756 CURVE",
"416 716 OFFCURVE",
"36 569 OFFCURVE",
"36 213 CURVE SMOOTH",
"36 -43 OFFCURVE",
"232 -156 OFFCURVE",
"476 -156 CURVE",
"593 -103 OFFCURVE",
"700 -30 OFFCURVE",
"773 58 CURVE",
"760 66 LINE",
"676 -31 OFFCURVE",
"611 -60 OFFCURVE",
"560 -87 CURVE",
"254 -87 OFFCURVE",
"126 13 OFFCURVE",
"126 253 CURVE SMOOTH",
"126 490 OFFCURVE",
"301 687 OFFCURVE",
"466 687 CURVE SMOOTH",
"676 687 OFFCURVE",
"786 591 OFFCURVE",
"786 407 CURVE SMOOTH",
"786 280 OFFCURVE",
"704 193 OFFCURVE",
"543 91 CURVE"
);
},
{
closed = 1;
nodes = (
"546 89 LINE",
"667 512 LINE",
"633 529 OFFCURVE",
"569 548 OFFCURVE",
"531 548 CURVE",
"371 496 OFFCURVE",
"233 336 OFFCURVE",
"233 192 CURVE SMOOTH",
"233 124 OFFCURVE",
"271 66 OFFCURVE",
"327 50 CURVE",
"411 110 OFFCURVE",
"484 283 OFFCURVE",
"563 459 CURVE",
"567 459 LINE",
"455 76 LINE",
"517 48 LINE"
);
},
{
closed = 1;
nodes = (
"340 136 OFFCURVE",
"323 183 OFFCURVE",
"323 244 CURVE SMOOTH",
"323 354 OFFCURVE",
"377 464 OFFCURVE",
"476 505 CURVE",
"512 505 OFFCURVE",
"531 496 OFFCURVE",
"558 480 CURVE",
"518 381 OFFCURVE",
"428 176 OFFCURVE",
"368 128 CURVE"
);
}
);
width = 909;
},
{
layerId = "6E858C87-3851-4F0D-A4B8-5C62800DDA3D";
paths = (
{
closed = 1;
nodes = (
"572 55 LINE",
"772 188 OFFCURVE",
"917 268 OFFCURVE",
"917 446 CURVE SMOOTH",
"917 650 OFFCURVE",
"746 766 OFFCURVE",
"513 766 CURVE",
"431 706 OFFCURVE",
"33 569 OFFCURVE",
"33 213 CURVE SMOOTH",
"33 -43 OFFCURVE",
"244 -166 OFFCURVE",
"493 -166 CURVE",
"610 -93 OFFCURVE",
"717 -30 OFFCURVE",
"790 58 CURVE",
"777 66 LINE",
"693 -9 OFFCURVE",
"628 -44 OFFCURVE",
"577 -67 CURVE",
"271 -67 OFFCURVE",
"143 30 OFFCURVE",
"143 264 CURVE SMOOTH",
"143 516 OFFCURVE",
"290 667 OFFCURVE",
"503 667 CURVE SMOOTH",
"700 667 OFFCURVE",
"803 578 OFFCURVE",
"803 419 CURVE SMOOTH",
"803 272 OFFCURVE",
"706 171 OFFCURVE",
"551 69 CURVE"
);
},
{
closed = 1;
nodes = (
"572 55 LINE",
"685 139 LINE",
"678 149 LINE",
"597 100 LINE",
"712 528 LINE",
"670 552 OFFCURVE",
"601 572 OFFCURVE",
"545 572 CURVE",
"387 520 OFFCURVE",
"223 372 OFFCURVE",
"223 220 CURVE SMOOTH",
"223 131 OFFCURVE",
"274 64 OFFCURVE",
"336 54 CURVE",
"423 117 OFFCURVE",
"481 272 OFFCURVE",
"561 480 CURVE",
"565 479 LINE",
"459 104 LINE",
"555 50 LINE"
);
},
{
closed = 1;
nodes = (
"372 176 OFFCURVE",
"357 211 OFFCURVE",
"357 265 CURVE SMOOTH",
"357 385 OFFCURVE",
"417 492 OFFCURVE",
"497 532 CURVE",
"515 532 OFFCURVE",
"535 520 OFFCURVE",
"551 504 CURVE",
"511 396 OFFCURVE",
"459 248 OFFCURVE",
"395 164 CURVE"
);
}
);
width = 952;
}
);
leftKerningGroup = at;
leftMetricsKey = o;
rightKerningGroup = at;
rightMetricsKey = o;
unicode = 0040;
}
{
color = 3;
glyphname = A;
layers = (
{
anchors = (
{
name = bottom;
position = "{320, 0}";
},
{
name = ogonek;
position = "{611, 10}";
},
{
name = top;
position = "{340, 700}";
}
);
hints = (
{
origin = "{0, 0}";
scale = "{0.8, 1}";
type = Corner;
name = _corner.capSerif;
options = 1;
},
{
origin = "{0, 6}";
scale = "{-1.2, 1}";
type = Corner;
name = _corner.capSerif;
},
{
origin = "{0, 4}";
scale = "{1.1, 1}";
type = Corner;
name = _corner.capSerif;
options = 1;
},
{
origin = "{0, 3}";
scale = "{-0.8, 1}";
type = Corner;
name = _corner.capSerif;
}
);
layerId = "33C692B7-ECA1-4228-A9DA-44701B454552";
paths = (
{
closed = 1;
nodes = (
"631 0 LINE",
"407 705 LINE",
"311 700 LINE",
"61 0 LINE",
"87 0 LINE",
"320 660 LINE",
"522 0 LINE"
);
},
{
closed = 1;
nodes = (
"466 248 LINE",
"466 265 LINE",
"172 265 LINE",
"164 248 LINE"
);
},
{
closed = 1;
nodes = (
"320 700 LINE",
"230 700 LINE",
"230 694 LINE",
"307 680 LINE"
);
}
);
width = 702;
},
{
anchors = (
{
name = bottom;
position = "{382, 0}";
},
{
name = ogonek;
position = "{624, 10}";
},
{
name = top;
position = "{354, 700}";
}
);
hints = (
{
origin = "{0, 3}";
scale = "{-0.6, 1}";
type = Corner;
name = _corner.capSerif;
},
{
origin = "{0, 4}";
type = Corner;
name = _corner.capSerif;
options = 1;
},
{
origin = "{0, 6}";
scale = "{-1, 1}";
type = Corner;
name = _corner.capSerif;
},
{
origin = "{0, 0}";
scale = "{0.59, 1}";
type = Corner;
name = _corner.capSerif;
options = 1;
}
);
layerId = "6E858C87-3851-4F0D-A4B8-5C62800DDA3D";
paths = (
{
closed = 1;
nodes = (
"691 0 LINE",
"456 710 LINE",
"326 705 LINE",
"70 0 LINE",
"105 0 LINE",
"327 619 LINE",
"515 0 LINE"
);
},
{
closed = 1;
nodes = (
"510 240 LINE",
"505 266 LINE",
"191 266 LINE",
"178 240 LINE"
);
},
{
closed = 1;
nodes = (
"332 705 LINE",
"222 705 LINE",
"222 689 LINE",
"323 661 LINE"
);
}
);
width = 755;
}
);
leftKerningGroup = A;
rightKerningGroup = A;
unicode = 0041;
}
{
color = 4;
glyphname = B;
layers = (
{
anchors = (
{
name = bottom;
position = "{323, 0}";
},
{
name = center;
position = "{323, 350}";
},
{
name = top;
position = "{323, 700}";
}
);
background = {
paths = (
{
closed = 1;
nodes = (
"213 0 LINE",
"213 311 LINE",
"302 312 LINE",
"340 315 OFFCURVE",
"570 333 OFFCURVE",
"569 536 CURVE",
"569 650 OFFCURVE",
"473 704 OFFCURVE",
"331 701 CURVE",
"112 700 LINE",
"113 0 LINE"
);
},
{
closed = 1;
nodes = (
"213 670 LINE",
"222 678 OFFCURVE",
"289 682 OFFCURVE",
"306 683 CURVE",
"413 682 OFFCURVE",
"465 606 OFFCURVE",
"465 515 CURVE SMOOTH",
"465 396 OFFCURVE",
"414 334 OFFCURVE",
"324 334 CURVE SMOOTH",
"294 334 OFFCURVE",
"253 339 OFFCURVE",
"213 350 CURVE"
);
}
);
};
hints = (
{
origin = "{1, 8}";
scale = "{-1, 1}";
type = Corner;
name = _corner.capSerif;
},
{
origin = "{1, 7}";
type = Corner;
name = _corner.capSerif;
}
);
layerId = "33C692B7-ECA1-4228-A9DA-44701B454552";
paths = (
{
closed = 1;
nodes = (
"211 668 LINE",
"220 676 OFFCURVE",
"257 683 OFFCURVE",
"284 683 CURVE SMOOTH",
"396 683 OFFCURVE",
"453 618 OFFCURVE",
"453 539 CURVE SMOOTH",
"453 430 OFFCURVE",
"374 379 OFFCURVE",
"294 379 CURVE SMOOTH",
"264 379 OFFCURVE",
"241 382 OFFCURVE",
"211 384 CURVE"
);
},
{
closed = 1;
nodes = (
"337 362 LINE",
"420 375 OFFCURVE",
"558 409 OFFCURVE",
"557 550 CURVE SMOOTH",
"556 670 OFFCURVE",
"455 701 OFFCURVE",
"309 700 CURVE",
"112 700 LINE",
"112 0 LINE",
"211 0 LINE",
"211 372 LINE"
);
},
{
closed = 1;
nodes = (
"201 352 LINE",
"213 358 OFFCURVE",
"256 361 OFFCURVE",
"294 361 CURVE SMOOTH",
"406 360 OFFCURVE",
"488 268 OFFCURVE",
"488 170 CURVE SMOOTH",
"488 65 OFFCURVE",
"434 18 OFFCURVE",
"339 18 CURVE SMOOTH",
"284 18 OFFCURVE",
"219 30 OFFCURVE",
"201 60 CURVE",
"201 0 LINE",
"320 0 LINE SMOOTH",
"431 0 OFFCURVE",
"594 31 OFFCURVE",
"594 184 CURVE SMOOTH",
"594 308 OFFCURVE",
"465 379 OFFCURVE",
"319 376 CURVE",
"201 380 LINE"
);
}
);
width = 624;
},
{
anchors = (
{
name = bottom;
position = "{352, 0}";
},
{
name = center;
position = "{352, 350}";
},
{
name = top;
position = "{352, 700}";
}
);
hints = (
{
origin = "{1, 7}";
type = Corner;
name = _corner.capSerif;
},
{
origin = "{1, 8}";
scale = "{-1, 1}";
type = Corner;
name = _corner.capSerif;
}
);
layerId = "6E858C87-3851-4F0D-A4B8-5C62800DDA3D";
paths = (
{
closed = 1;
nodes = (
"271 666 LINE",
"288 671 OFFCURVE",
"302 676 OFFCURVE",
"328 676 CURVE SMOOTH",
"405 676 OFFCURVE",
"468 620 OFFCURVE",
"468 548 CURVE SMOOTH",
"468 457 OFFCURVE",
"409 381 OFFCURVE",
"334 381 CURVE SMOOTH",
"307 381 OFFCURVE",
"279 388 OFFCURVE",
"271 390 CURVE"
);
},
{
closed = 1;
nodes = (
"377 362 LINE",
"460 375 OFFCURVE",
"633 409 OFFCURVE",
"632 560 CURVE SMOOTH",
"631 670 OFFCURVE",
"495 702 OFFCURVE",
"349 701 CURVE",
"112 700 LINE",
"112 0 LINE",
"271 0 LINE",
"271 372 LINE"
);
},
{
closed = 1;
nodes = (
"241 348 LINE",
"253 352 OFFCURVE",
"294 360 OFFCURVE",
"334 360 CURVE SMOOTH",
"426 359 OFFCURVE",
"498 282 OFFCURVE",
"498 187 CURVE SMOOTH",
"498 99 OFFCURVE",
"446 26 OFFCURVE",
"379 26 CURVE SMOOTH",
"328 26 OFFCURVE",
"267 43 OFFCURVE",
"241 63 CURVE",
"241 0 LINE",
"360 0 LINE SMOOTH",
"471 0 OFFCURVE",
"662 31 OFFCURVE",
"662 194 CURVE SMOOTH",
"662 332 OFFCURVE",
"495 386 OFFCURVE",
"399 383 CURVE",
"241 377 LINE"
);
}
);
width = 682;
}
);
leftKerningGroup = H;
leftMetricsKey = H;
rightKerningGroup = B;
unicode = 0042;
}
{
color = 4;
glyphname = C;
layers = (
{
anchors = (
{
name = bottom;
position = "{326, 0}";
},
{
name = top;
position = "{356, 700}";
}
);
background = {
components = (
{
name = O;
transform = "{1, 0, 0, 1, -4, 0}";
}
);
};
layerId = "33C692B7-ECA1-4228-A9DA-44701B454552";
paths = (
{
closed = 1;
nodes = (
"44 126 OFFCURVE",
"179 -15 OFFCURVE",
"418 -12 CURVE",
"482 19 OFFCURVE",
"600 119 OFFCURVE",
"628 144 CURVE",
"622 152 LINE",
"569 116 OFFCURVE",
"517 80 OFFCURVE",
"464 46 CURVE",
"267 43 OFFCURVE",
"144 197 OFFCURVE",
"144 383 CURVE SMOOTH",
"144 556 OFFCURVE",
"251 662 OFFCURVE",
"347 662 CURVE SMOOTH",
"456 662 OFFCURVE",
"558 603 OFFCURVE",
"573 500 CURVE",
"585 501 LINE",
"581 681 LINE",
"514 704 OFFCURVE",
"448 718 OFFCURVE",
"377 714 CURVE",
"184 639 OFFCURVE",
"44 525 OFFCURVE",
"44 321 CURVE SMOOTH"
);
}
);
width = 647;
},
{
anchors = (
{
name = bottom;
position = "{342, 0}";
},
{
name = top;
position = "{340, 700}";
}
);
background = {
components = (
{
name = O;
transform = "{1, 0, 0, 1, 18, 3}";
}
);
};
layerId = "6E858C87-3851-4F0D-A4B8-5C62800DDA3D";
paths = (
{
closed = 1;
nodes = (
"39 111 OFFCURVE",
"180 -7 OFFCURVE",
"389 -14 CURVE",
"493 41 OFFCURVE",
"587 107 OFFCURVE",
"642 154 CURVE",
"633 169 LINE",
"563 122 OFFCURVE",
"528 101 OFFCURVE",
"461 66 CURVE",
"284 66 OFFCURVE",
"190 234 OFFCURVE",
"190 426 CURVE SMOOTH",
"190 563 OFFCURVE",
"237 652 OFFCURVE",
"359 652 CURVE SMOOTH",
"472 652 OFFCURVE",
"562 579 OFFCURVE",
"598 476 CURVE",
"612 477 LINE",
"609 685 LINE",
"542 704 OFFCURVE",
"492 714 OFFCURVE",
"387 714 CURVE",
"246 668 OFFCURVE",
"39 544 OFFCURVE",
"39 321 CURVE SMOOTH"
);
}
);
width = 652;
}
);
leftKerningGroup = O;
leftMetricsKey = O;
rightKerningGroup = C;
unicode = 0043;
}
{
color = 4;
glyphname = D;
layers = (
{
anchors = (
{
name = bottom;
position = "{393, 0}";
},
{
name = center;
position = "{393, 350}";
},
{
name = top;
position = "{371, 700}";
}
);
background = {
components = (
{
name = O;
transform = "{1, 0, 0, 1, -20, 0}";
}
);
};
hints = (
{
origin = "{0, 8}";
type = Corner;
name = _corner.capSerif;
},
{
origin = "{0, 9}";
scale = "{-1, 1}";
type = Corner;
name = _corner.capSerif;
options = 1;
}
);
layerId = "33C692B7-ECA1-4228-A9DA-44701B454552";
paths = (
{
closed = 1;
nodes = (
"214 0 LINE",
"348 -5 LINE",
"414 -2 OFFCURVE",
"710 127 OFFCURVE",
"710 383 CURVE SMOOTH",
"710 599 OFFCURVE",
"570 702 OFFCURVE",
"354 701 CURVE SMOOTH",
"112 700 LINE",
"112 0 LINE"
);
},
{
closed = 1;
nodes = (
"212 676 LINE",
"234 681 OFFCURVE",
"278 682 OFFCURVE",
"293 682 CURVE SMOOTH",
"487 682 OFFCURVE",
"597 597 OFFCURVE",
"597 372 CURVE SMOOTH",
"597 161 OFFCURVE",
"497 30 OFFCURVE",
"364 30 CURVE SMOOTH",
"313 30 OFFCURVE",
"255 43 OFFCURVE",
"212 64 CURVE"
);
}
);
width = 756;
},
{
anchors = (
{
name = bottom;
position = "{393, 0}";
},
{
name = center;
position = "{393, 350}";
},
{
name = top;
position = "{393, 700}";
}
);
background = {
components = (
{
name = O;
transform = "{1, 0, 0, 1, -10, 0}";
}
);
};
hints = (
{
origin = "{0, 8}";
type = Corner;
name = _corner.capSerif;
},
{
origin = "{0, 9}";
scale = "{-1, 1}";
type = Corner;
name = _corner.capSerif;
}
);
layerId = "6E858C87-3851-4F0D-A4B8-5C62800DDA3D";
paths = (
{
closed = 1;
nodes = (
"266 0 LINE",
"375 -5 LINE",
"454 -2 OFFCURVE",
"748 92 OFFCURVE",
"748 373 CURVE SMOOTH",
"748 589 OFFCURVE",
"612 700 OFFCURVE",
"383 700 CURVE SMOOTH",
"112 700 LINE",
"112 0 LINE"
);
},
{
closed = 1;
nodes = (
"266 659 LINE",
"286 668 OFFCURVE",
"320 675 OFFCURVE",
"342 675 CURVE SMOOTH",
"469 675 OFFCURVE",
"578 532 OFFCURVE",
"578 362 CURVE SMOOTH",
"578 178 OFFCURVE",
"491 25 OFFCURVE",
"385 25 CURVE SMOOTH",
"345 25 OFFCURVE",
"289 47 OFFCURVE",
"266 69 CURVE"
);
}
);
width = 781;
}
);
leftKerningGroup = H;
leftMetricsKey = H;
rightKerningGroup = O;
rightMetricsKey = O;
unicode = 0044;
}
{
color = 4;
glyphname = E;
layers = (
{
anchors = (
{
name = bottom;
position = "{324, 0}";
},
{
name = ogonek;
position = "{522, 10}";
},
{
name = top;
position = "{324, 700}";
},
{
name = topleft;
position = "{20, 700}";
}
);
hints = (
{
origin = "{0, 2}";
type = Corner;
name = _corner.capSerif;
},
{
origin = "{0, 3}";
scale = "{-1, 1}";
type = Corner;
name = _corner.capSerif;
options = 1;
}
);
layerId = "33C692B7-ECA1-4228-A9DA-44701B454552";
paths = (
{
closed = 1;
nodes = (
"212 0 LINE",
"212 700 LINE",
"112 700 LINE",
"112 0 LINE"
);
},
{
closed = 1;
nodes = (
"570 0 LINE",
"592 185 LINE",
"584 187 LINE",
"568 154 OFFCURVE",
"501 42 OFFCURVE",
"466 19 CURVE",
"199 19 LINE",
"191 0 LINE"
);
},
{
closed = 1;
nodes = (
"413 354 LINE",
"456 258 LINE",
"467 258 LINE",
"467 470 LINE",
"456 470 LINE",
"413 373 LINE",
"199 373 LINE",
"191 354 LINE"
);
},
{
closed = 1;
nodes = (
"471 681 LINE",
"507 651 OFFCURVE",
"565 547 OFFCURVE",
"580 516 CURVE",
"586 516 LINE",
"570 703 LINE",
"545 700 LINE",
"199 700 LINE",
"191 681 LINE"
);
}
);
width = 617;
},
{
anchors = (
{
name = bottom;
position = "{331, 0}";
},
{
name = ogonek;
position = "{538, 10}";
},
{
name = top;
position = "{331, 700}";
},
{
name = topleft;
position = "{25, 700}";
}
);
hints = (
{
origin = "{0, 3}";
type = Corner;
name = _corner.capSerif;
},
{
origin = "{0, 0}";
scale = "{-1, 1}";
type = Corner;
name = _corner.capSerif;
}
);
layerId = "6E858C87-3851-4F0D-A4B8-5C62800DDA3D";
paths = (
{
closed = 1;
nodes = (
"112 0 LINE",
"268 0 LINE",
"268 700 LINE",
"112 700 LINE"
);
},
{
closed = 1;
nodes = (
"215 0 LINE",
"594 0 LINE",
"616 185 LINE",
"601 188 LINE",
"583 157 OFFCURVE",
"504 57 OFFCURVE",
"461 25 CURVE",
"223 25 LINE"
);
},
{
closed = 1;
nodes = (
"215 350 LINE",
"413 350 LINE",
"467 235 LINE",
"486 235 LINE",
"486 493 LINE",
"467 493 LINE",
"413 375 LINE",
"223 375 LINE"
);
},
{
closed = 1;
nodes = (
"454 675 LINE",
"500 639 OFFCURVE",
"579 546 OFFCURVE",
"596 516 CURVE",
"612 516 LINE",
"596 703 LINE",
"560 700 LINE",
"215 700 LINE",
"223 675 LINE"
);
}
);
width = 656;
}
);
leftKerningGroup = H;
leftMetricsKey = H;
rightKerningGroup = E;
unicode = 0045;
}
{
color = 4;
glyphname = F;
layers = (
{
anchors = (
{
name = bottom;
position = "{316, 0}";
},
{
name = top;
position = "{316, 700}";
}
);
background = {
hints = (
{
origin = "{0, 0}";
scale = "{-1, 1}";
type = Corner;
name = _corner.capSerif;
},
{
origin = "{0, 1}";
scale = "{1.3, 1}";
type = Corner;
name = _corner.capSerif;
},
{
origin = "{0, 3}";
type = Corner;
name = _corner.capSerif;
}
);
paths = (
{
closed = 1;
nodes = (
"112 0 LINE",
"212 0 LINE",
"212 700 LINE",
"112 700 LINE"
);
},
{
closed = 1;
nodes = (
"191 681 LINE",
"552 681 LINE",
"552 700 LINE",
"199 700 LINE"
);
},
{
closed = 1;
nodes = (
"191 322 LINE",
"467 322 LINE",
"467 341 LINE",
"199 341 LINE"
);
},
{
closed = 1;
nodes = (
"467 458 LINE",
"456 458 LINE",
"413 341 LINE",
"467 332 LINE"
);
},
{
closed = 1;
nodes = (
"455 689 LINE",
"485 690 OFFCURVE",
"562 553 OFFCURVE",
"580 516 CURVE",
"586 516 LINE",
"570 703 LINE"
);
},
{
closed = 1;
nodes = (
"413 323 LINE",
"456 206 LINE",
"467 206 LINE",
"467 332 LINE"
);
},
{
closed = 1;
nodes = (
"467 458 LINE",
"456 458 LINE",
"413 341 LINE",
"467 332 LINE"
);
},
{
closed = 1;
nodes = (
"413 323 LINE",
"456 206 LINE",
"467 206 LINE",
"467 332 LINE"
);
}
);
};
hints = (
{
origin = "{0, 0}";
scale = "{-1, 1}";
type = Corner;
name = _corner.capSerif;
},
{
origin = "{0, 3}";
type = Corner;
name = _corner.capSerif;
},
{
origin = "{0, 1}";
scale = "{1.3, 1}";
type = Corner;
name = _corner.capSerif;
}
);
layerId = "33C692B7-ECA1-4228-A9DA-44701B454552";
paths = (
{
closed = 1;
nodes = (
"112 0 LINE",
"212 0 LINE",
"212 700 LINE",
"112 700 LINE"
);
},
{
closed = 1;
nodes = (
"191 681 LINE",
"471 681 LINE",
"507 651 OFFCURVE",
"565 547 OFFCURVE",
"580 516 CURVE",
"586 516 LINE",
"570 703 LINE",
"545 700 LINE",
"199 700 LINE"
);
},
{
closed = 1;
nodes = (
"393 327 LINE",
"436 211 LINE",
"447 211 LINE",
"447 443 LINE",
"436 443 LINE",
"393 346 LINE",
"179 346 LINE",
"171 327 LINE"
);
}
);
width = 604;
},
{
anchors = (
{
name = bottom;
position = "{283, 0}";
},
{
name = top;
position = "{283, 700}";
}
);
background = {
components = (
{
name = E;
transform = "{1, 0, 0, 1, 5, 0}";
}
);
};
hints = (
{
origin = "{0, 0}";
scale = "{-1, 1}";
type = Corner;
name = _corner.capSerif;
},
{
origin = "{0, 3}";
type = Corner;
name = _corner.capSerif;
},
{
origin = "{0, 1}";
scale = "{1.3, 1}";
type = Corner;
name = _corner.capSerif;
}
);
layerId = "6E858C87-3851-4F0D-A4B8-5C62800DDA3D";
paths = (
{
closed = 1;
nodes = (
"112 0 LINE",
"268 0 LINE",
"268 700 LINE",
"112 700 LINE"
);
},
{
closed = 1;
nodes = (
"427 689 LINE",
"457 690 OFFCURVE",
"575 553 OFFCURVE",
"596 516 CURVE",
"612 516 LINE",
"596 703 LINE"
);
},
{
closed = 1;
nodes = (
"570 674 LINE",
"572 700 LINE",
"215 700 LINE",
"223 674 LINE"
);
},
{
closed = 1;
nodes = (
"215 330 LINE",
"413 330 LINE",
"467 200 LINE",
"486 200 LINE",
"486 473 LINE",
"467 473 LINE",
"413 355 LINE",
"223 355 LINE"
);
}
);
width = 619;
}
);
leftKerningGroup = H;
leftMetricsKey = H;
rightKerningGroup = F;
unicode = 0046;
}
{
color = 4;
glyphname = G;
layers = (
{
anchors = (
{
name = bottom;
position = "{401, 0}";
},
{
name = top;
position = "{353, 700}";
}
);
background = {
components = (
{
name = C;
}
);
};
hints = (
{
origin = "{0, 1}";
scale = "{-0.7, 1}";
type = Corner;
name = _corner.capSerif;
},
{
origin = "{0, 2}";
type = Corner;
name = _corner.capSerif;
options = 1;
}
);
layerId = "33C692B7-ECA1-4228-A9DA-44701B454552";
paths = (
{
closed = 1;
nodes = (
"635 143 LINE",
"632 316 LINE",
"537 315 LINE",
"539 79 LINE"
);
},
{
closed = 1;
nodes = (
"44 124 OFFCURVE",
"167 -14 OFFCURVE",
"394 -12 CURVE",
"457 19 OFFCURVE",
"596 117 OFFCURVE",
"624 143 CURVE",
"621 151 LINE",
"443 41 LINE",
"257 39 OFFCURVE",
"145 196 OFFCURVE",
"145 381 CURVE SMOOTH",
"145 552 OFFCURVE",
"248 661 OFFCURVE",
"343 662 CURVE SMOOTH",
"463 664 OFFCURVE",
"567 604 OFFCURVE",
"582 499 CURVE",
"594 500 LINE",
"591 680 LINE",
"519 704 OFFCURVE",
"455 718 OFFCURVE",
"379 714 CURVE",
"184 640 OFFCURVE",
"44 525 OFFCURVE",
"44 317 CURVE SMOOTH"
);
}
);
width = 694;
},
{
anchors = (
{
name = bottom;
position = "{364, 0}";
},
{
name = top;
position = "{364, 700}";
}
);
hints = (
{
origin = "{0, 1}";
scale = "{-0.7, 1}";
type = Corner;
name = _corner.capSerif;
},
{
origin = "{0, 2}";
type = Corner;
name = _corner.capSerif;
options = 1;
}
);
layerId = "6E858C87-3851-4F0D-A4B8-5C62800DDA3D";
paths = (
{
closed = 1;
nodes = (
"648 154 LINE",
"648 328 LINE",
"522 328 LINE",
"523 75 LINE"
);
},
{
closed = 1;
nodes = (
"39 111 OFFCURVE",
"175 -7 OFFCURVE",
"394 -14 CURVE",
"498 41 OFFCURVE",
"592 107 OFFCURVE",
"647 154 CURVE",
"638 169 LINE",
"570 117 OFFCURVE",
"545 96 OFFCURVE",
"476 59 CURVE",
"268 69 OFFCURVE",
"190 216 OFFCURVE",
"190 427 CURVE SMOOTH",
"190 564 OFFCURVE",
"242 653 OFFCURVE",
"364 653 CURVE SMOOTH",
"483 653 OFFCURVE",
"573 579 OFFCURVE",
"609 476 CURVE",
"623 477 LINE",
"620 685 LINE",
"553 704 OFFCURVE",
"503 714 OFFCURVE",
"392 714 CURVE",
"251 668 OFFCURVE",
"39 544 OFFCURVE",
"39 321 CURVE SMOOTH"
);
}
);
width = 722;
}
);
leftKerningGroup = O;
leftMetricsKey = O;
rightKerningGroup = G;
unicode = 0047;
}
{
color = 4;
glyphname = H;
layers = (
{
anchors = (
{
name = bottom;
position = "{390, 0}";
},
{
name = center;
position = "{390, 350}";
},
{
name = top;
position = "{390, 700}";
},
{
name = topleft;
position = "{35, 700}";
}
);
hints = (
{
origin = "{0, 1}";
type = Corner;
name = _corner.capSerif;
},
{
origin = "{1, 2}";
type = Corner;
name = _corner.capSerif;
},
{
origin = "{0, 0}";
scale = "{-1, 1}";
type = Corner;
name = _corner.capSerif;
},
{
origin = "{1, 1}";
scale = "{-1, 1}";
type = Corner;
name = _corner.capSerif;
},
{
origin = "{1, 3}";
scale = "{-1, 1}";
type = Corner;
name = _corner.capSerif;
},
{
origin = "{1, 0}";
type = Corner;
name = _corner.capSerif;
},
{
origin = "{0, 2}";
scale = "{-1, 1}";
type = Corner;
name = _corner.capSerif;
},
{
origin = "{0, 3}";
type = Corner;
name = _corner.capSerif;
}
);
layerId = "33C692B7-ECA1-4228-A9DA-44701B454552";
paths = (
{
closed = 1;
nodes = (
"112 0 LINE",
"212 0 LINE",
"212 700 LINE",
"112 700 LINE"
);
},
{
closed = 1;
nodes = (
"566 700 LINE",
"566 0 LINE",
"666 0 LINE",
"666 700 LINE"
);
},
{
closed = 1;
nodes = (
"199 353 LINE",
"583 353 LINE",
"583 370 LINE",
"199 370 LINE"
);
}
);
width = 778;
},
{
anchors = (
{
name = bottom;
position = "{390, 0}";
},
{
name = center;
position = "{390, 350}";
},
{
name = top;
position = "{390, 700}";
},
{
name = topleft;
position = "{63, 700}";
}
);
background = {
paths = (
{
closed = 1;
nodes = (
"678 0 LINE",
"649 195 LINE",
"290 703 LINE",
"166 700 LINE",
"169 616 LINE",
"576 0 LINE"
);
},
{
closed = 1;
nodes = (
"147 0 LINE",
"189 0 LINE",
"189 700 LINE",
"151 700 LINE"
);
},
{
closed = 1;
nodes = (
"180 29 LINE",
"150 28 LINE"
);
},
{
closed = 1;
nodes = (
"690 0 LINE",
"689 700 LINE",
"643 700 LINE",
"651 0 LINE"
);
},
{
closed = 1;
nodes = (
"166 700 LINE",
"61 700 LINE",
"61 681 LINE",
"171 653 LINE"
);
}
);
};
hints = (
{
origin = "{0, 3}";
type = Corner;
name = _corner.capSerif;
},
{
origin = "{2, 3}";
type = Corner;
name = _corner.capSerif;
},
{
origin = "{0, 1}";
type = Corner;
name = _corner.capSerif;
},
{
origin = "{2, 1}";
type = Corner;
name = _corner.capSerif;
},
{
origin = "{2, 0}";
scale = "{-1, 1}";
type = Corner;
name = _corner.capSerif;
},
{
origin = "{2, 2}";
scale = "{-1, 1}";
type = Corner;
name = _corner.capSerif;
},
{
origin = "{0, 2}";
scale = "{-1, 1}";
type = Corner;
name = _corner.capSerif;
},
{
origin = "{0, 0}";
scale = "{-1, 1}";
type = Corner;
name = _corner.capSerif;
}
);
layerId = "6E858C87-3851-4F0D-A4B8-5C62800DDA3D";
paths = (
{
closed = 1;
nodes = (
"112 0 LINE",
"270 0 LINE",
"270 700 LINE",
"112 700 LINE"
);
},
{
closed = 1;
nodes = (
"191 344 LINE",
"619 344 LINE",
"619 370 LINE",
"199 370 LINE"
);
},
{
closed = 1;
nodes = (
"547 0 LINE",
"705 0 LINE",
"705 700 LINE",
"547 700 LINE"
);
}
);
width = 817;
}
);
leftKerningGroup = H;
rightKerningGroup = H;
unicode = 0048;
}
{
color = 4;
glyphname = I;
layers = (
{
anchors = (
{
name = bottom;
position = "{162, 0}";
},
{
name = ogonek;
position = "{252, 10}";
},
{
name = top;
position = "{162, 700}";
},
{
name = topleft;
position = "{20, 700}";
}
);
hints = (
{
origin = "{0, 0}";
scale = "{-1, 1}";
type = Corner;
name = _corner.capSerif;
},
{
origin = "{0, 1}";
type = Corner;
name = _corner.capSerif;
},
{
origin = "{0, 2}";
scale = "{-1, 1}";
type = Corner;
name = _corner.capSerif;
},
{
origin = "{0, 3}";
type = Corner;
name = _corner.capSerif;
}
);
layerId = "33C692B7-ECA1-4228-A9DA-44701B454552";
paths = (
{
closed = 1;
nodes = (
"112 0 LINE",
"212 0 LINE",
"212 700 LINE",
"112 700 LINE"
);
}
);
width = 324;
},
{
anchors = (
{
name = bottom;
position = "{191, 0}";
},
{
name = ogonek;
position = "{295, 10}";
},
{
name = top;
position = "{191, 700}";
},
{
name = topleft;
position = "{25, 700}";
}
);
hints = (
{
origin = "{0, 0}";
scale = "{-1, 1}";
type = Corner;
name = _corner.capSerif;
},
{
origin = "{0, 1}";
type = Corner;
name = _corner.capSerif;
},
{
origin = "{0, 2}";
scale = "{-1, 1}";
type = Corner;
name = _corner.capSerif;
},
{
origin = "{0, 3}";
type = Corner;
name = _corner.capSerif;
}
);
layerId = "6E858C87-3851-4F0D-A4B8-5C62800DDA3D";
paths = (
{
closed = 1;
nodes = (
"112 0 LINE",
"270 0 LINE",
"270 700 LINE",
"112 700 LINE"
);
}
);
width = 382;
}
);
leftKerningGroup = H;
leftMetricsKey = H;
rightKerningGroup = H;
rightMetricsKey = H;
unicode = 0049;
}
{
color = 3;
glyphname = P;
layers = (
{
anchors = (
{
name = bottom;
position = "{297, 0}";
},
{
name = top;
position = "{297, 700}";
}
);
background = {
paths = (
{
closed = 0;
nodes = (
"694 829 LINE",
"694 830 OFFCURVE",
"694 830 OFFCURVE",
"694 831 CURVE"
);
},
{
closed = 1;
nodes = (
"336 701 LINE",
"25 700 LINE",
"25 694 LINE",
"112 674 LINE",
"112 26 LINE",
"15 6 LINE",
"15 0 LINE",
"212 0 LINE",
"212 70 LINE",
"212 672 LINE",
"222 681 OFFCURVE",
"258 685 OFFCURVE",
"273 685 CURVE",
"279 685 OFFCURVE",
"285 685 OFFCURVE",
"291 685 CURVE"
);
},
{
closed = 1;
nodes = (
"89 0 LINE",
"323 0 LINE",
"323 6 LINE",
"212 26 LINE",
"89 6 LINE"
);
},
{
closed = 1;
nodes = (
"318 700 OFFCURVE",
"259 688 OFFCURVE",
"253 685 CURVE",
"350 685 OFFCURVE",
"463 682 OFFCURVE",
"463 529 CURVE",
"463 376 OFFCURVE",
"415 318 OFFCURVE",
"336 318 CURVE",
"298 318 OFFCURVE",
"224 326 OFFCURVE",
"185 344 CURVE",
"183 299 LINE",
"299 297 LINE",
"394 297 OFFCURVE",
"557 408 OFFCURVE",
"557 534 CURVE",
"557 655 OFFCURVE",
"417 704 OFFCURVE",
"325 701 CURVE"
);
},
{
closed = 1;
nodes = (
"111 0 LINE",
"211 0 LINE",
"211 700 LINE",
"111 700 LINE"
);
},
{
closed = 1;
nodes = (
"24 700 LINE",
"24 694 LINE",
"111 681 LINE",
"131 700 LINE"
);
},
{
closed = 1;
nodes = (
"111 19 LINE",
"34 6 LINE",
"34 0 LINE",
"131 0 LINE"
);
},
{
closed = 1;
nodes = (
"328 0 LINE",
"328 6 LINE",
"211 19 LINE",
"191 0 LINE"
);
},
{
closed = 1;
nodes = (
"190 681 LINE",
"551 681 LINE",
"551 700 LINE",
"198 700 LINE"
);
},
{
closed = 1;
nodes = (
"190 324 LINE",
"461 324 LINE",
"461 343 LINE",
"198 343 LINE"
);
},
{
closed = 1;
nodes = (
"461 440 LINE",
"455 440 LINE",
"412 343 LINE",
"461 334 LINE"
);
},
{
closed = 1;
nodes = (
"454 689 LINE",
"484 690 OFFCURVE",
"561 553 OFFCURVE",
"579 516 CURVE",
"585 516 LINE",
"569 703 LINE"
);
},
{
closed = 1;
nodes = (
"412 325 LINE",
"455 228 LINE",
"461 228 LINE",
"461 334 LINE"
);
}
);
};
hints = (
{
origin = "{0, 9}";
type = Corner;
name = _corner.capSerif;
},
{
origin = "{0, 0}";
type = Corner;
name = _corner.capSerif;
},
{
origin = "{0, 10}";
scale = "{-1, 1}";
type = Corner;
name = _corner.capSerif;
}
);
layerId = "33C692B7-ECA1-4228-A9DA-44701B454552";
paths = (
{
closed = 1;
nodes = (
"212 0 LINE",
"212 301 LINE",
"301 302 LINE",
"339 305 OFFCURVE",
"569 323 OFFCURVE",
"568 526 CURVE SMOOTH",
"567 650 OFFCURVE",
"472 702 OFFCURVE",
"330 701 CURVE SMOOTH",
"112 700 LINE",
"112 0 LINE"
);
},
{
closed = 1;
nodes = (
"212 670 LINE",
"221 678 OFFCURVE",
"288 683 OFFCURVE",
"305 683 CURVE SMOOTH",
"412 683 OFFCURVE",
"464 606 OFFCURVE",
"464 505 CURVE SMOOTH",
"464 386 OFFCURVE",
"413 324 OFFCURVE",
"323 324 CURVE SMOOTH",
"293 324 OFFCURVE",
"252 329 OFFCURVE",
"212 340 CURVE"
);
}
);
width = 588;
},
{
anchors = (
{
name = bottom;
position = "{326, 0}";
},
{
name = top;
position = "{326, 700}";
}
);
hints = (
{
origin = "{0, 9}";
type = Corner;
name = _corner.capSerif;
},
{
origin = "{0, 0}";
type = Corner;
name = _corner.capSerif;
},
{
origin = "{0, 10}";
scale = "{-1, 1}";
type = Corner;
name = _corner.capSerif;
}
);
layerId = "6E858C87-3851-4F0D-A4B8-5C62800DDA3D";
paths = (
{
closed = 1;
nodes = (
"256 0 LINE",
"256 297 LINE",
"331 298 LINE",
"374 301 OFFCURVE",
"619 328 OFFCURVE",
"618 525 CURVE SMOOTH",
"617 659 OFFCURVE",
"467 704 OFFCURVE",
"360 701 CURVE",
"112 700 LINE",
"112 0 LINE"
);
},
{
closed = 1;
nodes = (
"256 663 LINE",
"265 670 OFFCURVE",
"293 675 OFFCURVE",
"319 675 CURVE SMOOTH",
"395 675 OFFCURVE",
"454 603 OFFCURVE",
"454 494 CURVE SMOOTH",
"454 410 OFFCURVE",
"410 328 OFFCURVE",
"353 328 CURVE SMOOTH",
"318 328 OFFCURVE",
"289 339 OFFCURVE",
"256 350 CURVE"
);
}
);
width = 628;
}
);
leftKerningGroup = H;
leftMetricsKey = H;
rightKerningGroup = P;
unicode = 0050;
}
{
color = 1;
glyphname = Q;
layers = (
{
anchors = (
{
name = bottom;
position = "{377, 0}";
},
{
name = top;
position = "{377, 700}";
}
);
background = {
paths = (
{
closed = 1;
nodes = (
"421 -81 OFFCURVE",
"505 -113 OFFCURVE",
"636 -168 CURVE SMOOTH",
"645 -172 LINE",
"788 -74 LINE",
"781 -64 LINE",
"706 -105 LINE",
"681 -122 OFFCURVE",
"527 -5 OFFCURVE",
"400 -5 CURVE",
"307 -56 LINE"
);
},
{
closed = 1;
nodes = (
"418 -17 LINE",
"397 -3 LINE",
"300 -60 LINE",
"233 -88 LINE",
"241 -95 OFFCURVE",
"251 -98 OFFCURVE",
"262 -96 CURVE"
);
}
);
};
components = (
{
name = O;
}
);
layerId = "33C692B7-ECA1-4228-A9DA-44701B454552";
paths = (
{
closed = 1;
nodes = (
"300 -61 LINE",
"402 -87 OFFCURVE",
"481 -121 OFFCURVE",
"603 -172 CURVE SMOOTH",
"612 -176 LINE",
"758 -74 LINE",
"751 -64 LINE",
"676 -105 LINE",
"651 -122 OFFCURVE",
"497 -5 OFFCURVE",
"370 -5 CURVE",
"367 -3 LINE",
"270 -60 LINE",
"203 -88 LINE",
"211 -95 OFFCURVE",
"221 -98 OFFCURVE",
"232 -96 CURVE"
);
}
);
width = 773;
},
{
anchors = (
{
name = bottom;
position = "{377, 0}";
},
{
name = top;
position = "{377, 700}";
}
);
components = (
{
name = O;
}
);
layerId = "6E858C87-3851-4F0D-A4B8-5C62800DDA3D";
paths = (
{
closed = 1;
nodes = (
"309 -83 LINE",
"412 -108 OFFCURVE",
"510 -157 OFFCURVE",
"630 -215 CURVE",
"806 -65 LINE",
"798 -54 LINE",
"711 -105 LINE",
"686 -122 OFFCURVE",
"527 -5 OFFCURVE",
"400 -5 CURVE",
"397 -3 LINE",
"300 -60 LINE",
"233 -88 LINE",
"236 -99 OFFCURVE",
"249 -106 OFFCURVE",
"260 -104 CURVE"
);
}
);
width = 791;
}
);
leftKerningGroup = O;
leftMetricsKey = O;
rightKerningGroup = O;
unicode = 0051;
}
{
color = 3;
glyphname = R;
layers = (
{
anchors = (
{
name = bottom;
position = "{342, 0}";
},
{
name = top;
position = "{336, 700}";
}
);
hints = (
{
origin = "{0, 0}";
type = Corner;
name = _corner.capSerif;
},
{
origin = "{0, 19}";
scale = "{-1, 1}";
type = Corner;
name = _corner.capSerif;
},
{
origin = "{0, 18}";
type = Corner;
name = _corner.capSerif;
}
);
layerId = "33C692B7-ECA1-4228-A9DA-44701B454552";
paths = (
{
closed = 1;
nodes = (
"212 0 LINE",
"212 322 LINE",
"309 323 LINE",
"492 0 LINE",
"634 -1 LINE",
"703 47 LINE",
"697 56 LINE",
"636 19 LINE",
"576 19 OFFCURVE",
"445 299 OFFCURVE",
"439 312 CURVE",
"345 332 LINE",
"427 343 OFFCURVE",
"570 400 OFFCURVE",
"569 543 CURVE SMOOTH",
"568 657 OFFCURVE",
"472 704 OFFCURVE",
"330 701 CURVE",
"112 700 LINE",
"112 0 LINE"
);
},
{
closed = 1;
nodes = (
"212 672 LINE",
"243 683 OFFCURVE",
"280 685 OFFCURVE",
"305 685 CURVE",
"401 685 OFFCURVE",
"465 614 OFFCURVE",
"465 519 CURVE SMOOTH",
"465 414 OFFCURVE",
"415 347 OFFCURVE",
"323 347 CURVE SMOOTH",
"303 347 OFFCURVE",
"252 348 OFFCURVE",
"212 358 CURVE"
);
}
);
width = 673;
},
{
anchors = (
{
name = bottom;
position = "{353, 0}";
},
{
name = top;
position = "{326, 700}";
}
);
hints = (
{
origin = "{0, 0}";
type = Corner;
name = _corner.capSerif;
},
{
origin = "{0, 10}";
scale = "{-1, 1}";
type = Corner;
name = _corner.capSerif;
},
{
origin = "{0, 9}";
type = Corner;
name = _corner.capSerif;
}
);
layerId = "6E858C87-3851-4F0D-A4B8-5C62800DDA3D";
paths = (
{
closed = 1;
nodes = (
"256 0 LINE",
"256 311 LINE",
"331 312 LINE",
"369 315 OFFCURVE",
"614 344 OFFCURVE",
"613 527 CURVE SMOOTH",
"612 661 OFFCURVE",
"462 704 OFFCURVE",
"360 701 CURVE",
"112 700 LINE",
"112 0 LINE"
);
},
{
closed = 1;
nodes = (
"256 663 LINE",
"267 669 OFFCURVE",
"292 674 OFFCURVE",
"319 674 CURVE SMOOTH",
"392 674 OFFCURVE",
"449 604 OFFCURVE",
"449 515 CURVE SMOOTH",
"449 419 OFFCURVE",
"407 343 OFFCURVE",
"353 343 CURVE SMOOTH",
"315 343 OFFCURVE",
"272 347 OFFCURVE",
"256 350 CURVE"
);
},
{
closed = 1;
nodes = (
"289 312 LINE",
"479 0 LINE",
"650 -1 LINE",
"719 47 LINE",
"705 62 LINE",
"644 25 LINE",
"612 25 OFFCURVE",
"473 287 OFFCURVE",
"465 302 CURVE",
"350 316 LINE"
);
}
);
width = 699;
}
);
leftKerningGroup = H;
leftMetricsKey = H;
rightKerningGroup = R;
unicode = 0052;
}
{
color = 3;
glyphname = S;
layers = (
{
anchors = (
{
name = bottom;
position = "{286, 0}";
},
{
name = top;
position = "{294, 700}";
}
);
background = {
paths = (
{
closed = 1;
nodes = (
"145 78 LINE",
"69 247 LINE",
"59 246 LINE",
"56 76 LINE"
);
},
{
closed = 1;
nodes = (
"81 51 OFFCURVE",
"197 -14 OFFCURVE",
"274 -14 CURVE",
"430 12 OFFCURVE",
"533 80 OFFCURVE",
"533 218 CURVE",
"536 371 OFFCURVE",
"144 425 OFFCURVE",
"144 599 CURVE",
"144 658 OFFCURVE",
"179 682 OFFCURVE",
"251 686 CURVE",
"321 685 OFFCURVE",
"370 655 OFFCURVE",
"411 614 CURVE",
"500 510 LINE",
"511 510 LINE",
"480 664 LINE",
"439 695 OFFCURVE",
"373 714 OFFCURVE",
"292 714 CURVE",
"148 688 OFFCURVE",
"61 620 OFFCURVE",
"61 518 CURVE",
"61 362 OFFCURVE",
"432 303 OFFCURVE",
"432 155 CURVE",
"432 51 OFFCURVE",
"374 11 OFFCURVE",
"311 11 CURVE",
"251 12 OFFCURVE",
"172 62 OFFCURVE",
"129 103 CURVE",
"56 76 LINE"
);
}
);
};
layerId = "33C692B7-ECA1-4228-A9DA-44701B454552";
paths = (
{
closed = 1;
nodes = (
"76 41 OFFCURVE",
"202 -14 OFFCURVE",
"279 -14 CURVE",
"435 27 OFFCURVE",
"525 90 OFFCURVE",
"525 184 CURVE SMOOTH",
"525 441 OFFCURVE",
"147 388 OFFCURVE",
"147 580 CURVE SMOOTH",
"147 649 OFFCURVE",
"208 687 OFFCURVE",
"271 687 CURVE SMOOTH",
"362 687 OFFCURVE",
"437 645 OFFCURVE",
"481 511 CURVE",
"492 511 LINE",
"492 675 LINE",
"447 696 OFFCURVE",
"331 713 OFFCURVE",
"291 713 CURVE",
"147 688 OFFCURVE",
"67 619 OFFCURVE",
"67 532 CURVE SMOOTH",
"67 291 OFFCURVE",
"427 376 OFFCURVE",
"427 135 CURVE SMOOTH",
"427 51 OFFCURVE",
"369 17 OFFCURVE",
"306 17 CURVE SMOOTH",
"219 17 OFFCURVE",
"120 83 OFFCURVE",
"61 236 CURVE",
"50 236 LINE",
"51 66 LINE"
);
}
);
width = 560;
},
{
anchors = (
{
name = bottom;
position = "{288, 0}";
},
{
name = top;
position = "{288, 700}";
}
);
layerId = "6E858C87-3851-4F0D-A4B8-5C62800DDA3D";
paths = (
{
closed = 1;
nodes = (
"92 26 OFFCURVE",
"183 -14 OFFCURVE",
"293 -14 CURVE",
"458 12 OFFCURVE",
"558 82 OFFCURVE",
"558 199 CURVE SMOOTH",
"558 410 OFFCURVE",
"196 452 OFFCURVE",
"196 599 CURVE SMOOTH",
"196 651 OFFCURVE",
"241 686 OFFCURVE",
"284 686 CURVE SMOOTH",
"384 686 OFFCURVE",
"460 625 OFFCURVE",
"496 502 CURVE",
"524 502 LINE",
"523 676 LINE",
"479 697 OFFCURVE",
"384 716 OFFCURVE",
"298 716 CURVE",
"147 690 OFFCURVE",
"63 613 OFFCURVE",
"63 513 CURVE SMOOTH",
"63 332 OFFCURVE",
"402 316 OFFCURVE",
"402 139 CURVE SMOOTH",
"402 68 OFFCURVE",
"364 16 OFFCURVE",
"303 16 CURVE SMOOTH",
"228 16 OFFCURVE",
"143 98 OFFCURVE",
"79 247 CURVE",
"50 247 LINE",
"50 66 LINE"
);
}
);
width = 582;
}
);
leftKerningGroup = S;
rightKerningGroup = S;
unicode = 0053;
}
{
color = 4;
glyphname = T;
layers = (
{
anchors = (
{
name = bottom;
position = "{329, 0}";
},
{
name = top;
position = "{329, 700}";
}
);
background = {
paths = (
{
closed = 1;
nodes = (
"278 0 LINE",
"378 0 LINE",
"378 700 LINE",
"278 700 LINE"
);
},
{
closed = 1;
nodes = (
"278 36 LINE",
"161 6 LINE",
"161 0 LINE",
"298 0 LINE"
);
},
{
closed = 1;
nodes = (
"495 0 LINE",
"495 6 LINE",
"378 36 LINE",
"358 0 LINE"
);
},
{
closed = 1;
nodes = (
"122 681 LINE",
"329 681 LINE",
"329 700 LINE",
"122 700 LINE"
);
},
{
closed = 1;
nodes = (
"40 515 LINE",
"46 515 LINE",
"64 552 OFFCURVE",
"148 700 OFFCURVE",
"178 699 CURVE",
"135 700 LINE SMOOTH",
"125 700 OFFCURVE",
"89 702 OFFCURVE",
"76 704 CURVE",
"63 704 LINE"
);
},
{
closed = 1;
nodes = (
"329 700 LINE",
"329 681 LINE",
"536 681 LINE",
"536 700 LINE"
);
},
{
closed = 1;
nodes = (
"582 704 LINE",
"569 702 OFFCURVE",
"533 700 OFFCURVE",
"523 700 CURVE SMOOTH",
"480 699 LINE",
"510 700 OFFCURVE",
"594 552 OFFCURVE",
"612 515 CURVE",
"618 515 LINE",
"595 704 LINE"
);
}
);
};
hints = (
{
origin = "{0, 0}";
type = Corner;
name = _corner.capSerif;
},
{
origin = "{0, 3}";
scale = "{-1, 1}";
type = Corner;
name = _corner.capSerif;
}
);
layerId = "33C692B7-ECA1-4228-A9DA-44701B454552";
paths = (
{
closed = 1;
nodes = (
"378 0 LINE",
"378 700 LINE",
"278 700 LINE",
"278 0 LINE"
);
},
{
closed = 1;
nodes = (
"36 515 LINE",
"168 699 LINE",
"125 700 LINE",
"53 704 LINE",
"30 515 LINE"
);
},
{
closed = 1;
nodes = (
"329 681 LINE",
"329 700 LINE",
"112 700 LINE",
"112 681 LINE"
);
},
{
closed = 1;
nodes = (
"546 681 LINE",
"546 700 LINE",
"329 700 LINE",
"329 681 LINE"
);
},
{
closed = 1;
nodes = (
"628 515 LINE",
"605 704 LINE",
"533 700 LINE",
"490 699 LINE",
"622 515 LINE"
);
}
);
width = 658;
},
{
anchors = (
{
name = bottom;
position = "{350, 0}";
},
{
name = center;
position = "{350, 350}";
},
{
name = top;
position = "{350, 700}";
}
);
hints = (
{
origin = "{4, 0}";
scale = "{-1, 1}";
type = Corner;
name = _corner.capSerif;
},
{
origin = "{4, 1}";
type = Corner;
name = _corner.capSerif;
options = 1;
}
);
layerId = "6E858C87-3851-4F0D-A4B8-5C62800DDA3D";
paths = (
{
closed = 1;
nodes = (
"123 677 LINE",
"350 680 LINE",
"350 700 LINE",
"123 700 LINE"
);
},
{
closed = 1;
nodes = (
"15 495 LINE",
"40 495 LINE",
"192 699 LINE",
"116 700 LINE",
"38 704 LINE"
);
},
{
closed = 1;
nodes = (
"350 700 LINE",
"350 680 LINE",
"564 677 LINE",
"564 700 LINE"
);
},
{
closed = 1;
nodes = (
"571 700 LINE",
"495 699 LINE",
"647 495 LINE",
"672 495 LINE",
"649 704 LINE"
);
},
{
closed = 1;
nodes = (
"265 0 LINE",
"423 0 LINE",
"423 700 LINE",
"265 700 LINE"
);
}
);
width = 690;
}
);
leftKerningGroup = T;
rightKerningGroup = T;
unicode = 0054;
}
{
color = 3;
glyphname = U;
layers = (
{
anchors = (
{
name = bottom;
position = "{332, 0}";
},
{
name = ogonek;
position = "{401, 10}";
},
{
name = top;
position = "{362, 700}";
},
{
name = topright;
position = "{644, 700}";
}
);
hints = (
{
origin = "{0, 0}";
type = Corner;
name = _corner.capSerif;
},
{
origin = "{0, 8}";
scale = "{-1, 1.2}";
type = Corner;
name = _corner.capSerif;
},
{
origin = "{0, 9}";
scale = "{1, 1.2}";
type = Corner;
name = _corner.capSerif;
options = 1;
},
{
origin = "{0, 17}";
scale = "{-1, 1}";
type = Corner;
name = _corner.capSerif;
options = 1;
}
);
layerId = "33C692B7-ECA1-4228-A9DA-44701B454552";
paths = (
{
closed = 1;
nodes = (
"94 700 LINE",
"94 225 LINE SMOOTH",
"94 63 OFFCURVE",
"189 -12 OFFCURVE",
"339 -12 CURVE",
"471 8 OFFCURVE",
"576 53 OFFCURVE",
"577 213 CURVE SMOOTH",
"579 700 LINE",
"547 700 LINE",
"549 217 LINE SMOOTH",
"550 90 OFFCURVE",
"479 28 OFFCURVE",
"371 28 CURVE SMOOTH",
"263 28 OFFCURVE",
"199 89 OFFCURVE",
"199 262 CURVE SMOOTH",
"199 700 LINE"
);
}
);
width = 664;
},
{
anchors = (
{
name = bottom;
position = "{360, 0}";
},
{
name = ogonek;
position = "{499, 10}";
},
{
name = top;
position = "{360, 700}";
},
{
name = topright;
position = "{699, 700}";
}
);
hints = (
{
origin = "{0, 0}";
scale = "{0.9, 1}";
type = Corner;
name = _corner.capSerif;
},
{
origin = "{0, 8}";
scale = "{-1, 1}";
type = Corner;
name = _corner.capSerif;
},
{
origin = "{0, 9}";
type = Corner;
name = _corner.capSerif;
options = 1;
},
{
origin = "{0, 17}";
scale = "{-1, 1}";
type = Corner;
name = _corner.capSerif;
options = 1;
}
);
layerId = "6E858C87-3851-4F0D-A4B8-5C62800DDA3D";
paths = (
{
closed = 1;
nodes = (
"97 700 LINE",
"97 201 LINE SMOOTH",
"97 69 OFFCURVE",
"188 -18 OFFCURVE",
"364 -18 CURVE",
"519 10 OFFCURVE",
"618 47 OFFCURVE",
"618 220 CURVE SMOOTH",
"619 700 LINE",
"581 700 LINE",
"581 208 LINE SMOOTH",
"581 65 OFFCURVE",
"489 22 OFFCURVE",
"409 22 CURVE SMOOTH",
"319 22 OFFCURVE",
"263 73 OFFCURVE",
"263 220 CURVE SMOOTH",
"263 700 LINE"
);
}
);
width = 719;
}
);
leftKerningGroup = U;
rightKerningGroup = U;
unicode = 0055;
}
{
color = 3;
glyphname = V;
layers = (
{
anchors = (
{
name = bottom;
position = "{334, 0}";
},
{
name = top;
position = "{334, 700}";
}
);
hints = (
{
origin = "{0, 1}";
scale = "{-0.7, 1}";
type = Corner;
name = _corner.capSerif;
},
{
origin = "{0, 2}";
scale = "{1.3, 1}";
type = Corner;
name = _corner.capSerif;
options = 1;
},
{
origin = "{0, 5}";
scale = "{-1.3, 1}";
type = Corner;
name = _corner.capSerif;
},
{
origin = "{0, 6}";
scale = "{0.7, 1}";
type = Corner;
name = _corner.capSerif;
options = 1;
}
);
layerId = "33C692B7-ECA1-4228-A9DA-44701B454552";
paths = (
{
closed = 1;
nodes = (
"397 0 LINE",
"607 700 LINE",
"581 700 LINE",
"384 46 LINE",
"381 46 LINE",
"166 700 LINE",
"55 700 LINE",
"289 -9 LINE"
);
}
);
width = 667;
},
{
anchors = (
{
name = bottom;
position = "{384, 0}";
},
{
name = top;
position = "{384, 700}";
}
);
hints = (
{
origin = "{0, 0}";
scale = "{-0.8, 1}";
type = Corner;
name = _corner.capSerif;
},
{
origin = "{0, 1}";
scale = "{1.2, 1}";
type = Corner;
name = _corner.capSerif;
options = 1;
},
{
origin = "{0, 4}";
scale = "{-1.2, 1}";
type = Corner;
name = _corner.capSerif;
},
{
origin = "{0, 5}";
scale = "{0.7, 1}";
type = Corner;
name = _corner.capSerif;
options = 1;
}
);
layerId = "6E858C87-3851-4F0D-A4B8-5C62800DDA3D";
paths = (
{
closed = 1;
nodes = (
"679 700 LINE",
"641 700 LINE",
"459 51 LINE",
"455 51 LINE",
"240 700 LINE",
"64 700 LINE",
"299 -9 LINE",
"479 0 LINE"
);
}
);
width = 758;
}
);
leftKerningGroup = V;
rightKerningGroup = V;
unicode = 0056;
}
{
color = 3;
glyphname = W;
layers = (
{
anchors = (
{
name = bottom;
position = "{530, 0}";
},
{
name = top;
position = "{530, 700}";
}
);
hints = (
{
origin = "{0, 3}";
scale = "{-1.3, 1}";
type = Corner;
name = _corner.capSerif;
},
{
origin = "{0, 4}";
scale = "{0.7, 1}";
type = Corner;
name = _corner.capSerif;
options = 1;
},
{
origin = "{1, 1}";
scale = "{-0.8, 1}";
type = Corner;
name = _corner.capSerif;
},
{
origin = "{1, 2}";
scale = "{1.4, 1}";
type = Corner;
name = _corner.capSerif;
options = 1;
}
);
layerId = "33C692B7-ECA1-4228-A9DA-44701B454552";
paths = (
{
closed = 1;
nodes = (
"578 700 LINE",
"547 700 LINE",
"360 51 LINE",
"154 700 LINE",
"43 700 LINE",
"268 -7 LINE",
"376 0 LINE"
);
},
{
closed = 1;
nodes = (
"788 0 LINE",
"985 700 LINE",
"954 700 LINE",
"775 52 LINE",
"578 700 LINE",
"472 700 LINE",
"685 -7 LINE"
);
}
);
width = 1032;
},
{
anchors = (
{
name = bottom;
position = "{579, 0}";
},
{
name = top;
position = "{579, 700}";
}
);
hints = (
{
origin = "{0, 3}";
scale = "{-1.2, 1}";
type = Corner;
name = _corner.capSerif;
},
{
origin = "{0, 4}";
scale = "{0.7, 1}";
type = Corner;
name = _corner.capSerif;
options = 1;
},
{
origin = "{1, 0}";
scale = "{-0.7, 1}";
type = Corner;
name = _corner.capSerif;
},
{
origin = "{1, 1}";
scale = "{1.2, 1}";
type = Corner;
name = _corner.capSerif;
options = 1;
}
);
layerId = "6E858C87-3851-4F0D-A4B8-5C62800DDA3D";
paths = (
{
closed = 1;
nodes = (
"629 580 LINE",
"621 679 LINE",
"444 59 LINE",
"240 700 LINE",
"84 700 LINE",
"310 -9 LINE",
"461 0 LINE"
);
},
{
closed = 1;
nodes = (
"1053 700 LINE",
"1014 700 LINE",
"838 66 LINE",
"656 700 LINE",
"502 700 LINE",
"708 -9 LINE",
"855 0 LINE"
);
}
);
width = 1133;
}
);
leftKerningGroup = W;
rightKerningGroup = W;
unicode = 0057;
}
{
color = 3;
glyphname = X;
layers = (
{
anchors = (
{
name = bottom;
position = "{353, 0}";
},
{
name = top;
position = "{353, 700}";
}
);
hints = (
{
origin = "{0, 0}";
scale = "{0.7, 1}";
type = Corner;
name = _corner.capSerif;
options = 1;
},
{
origin = "{0, 3}";
scale = "{-1.3, 1}";
type = Corner;
name = _corner.capSerif;
},
{
origin = "{2, 2}";
scale = "{-0.7, 1}";
type = Corner;
name = _corner.capSerif;
},
{
origin = "{2, 3}";
scale = "{1.3, 1}";
type = Corner;
name = _corner.capSerif;
options = 1;
},
{
origin = "{0, 1}";
scale = "{-1.2, 1}";
type = Corner;
name = _corner.capSerif;
},
{
origin = "{0, 2}";
scale = "{0.7, 1}";
type = Corner;
name = _corner.capSerif;
options = 1;
},
{
origin = "{1, 0}";
scale = "{-0.75, 1}";
type = Corner;
name = _corner.capSerif;
},
{
origin = "{1, 1}";
scale = "{1.3, 1}";
type = Corner;
name = _corner.capSerif;
options = 1;
}
);
layerId = "33C692B7-ECA1-4228-A9DA-44701B454552";
paths = (
{
closed = 1;
nodes = (
"641 0 LINE",
"179 700 LINE",
"68 700 LINE",
"530 0 LINE"
);
},
{
closed = 1;
nodes = (
"596 700 LINE",
"565 700 LINE",
"359 400 LINE",
"375 379 LINE"
);
},
{
closed = 1;
nodes = (
"337 355 LINE",
"313 367 LINE",
"68 0 LINE",
"100 0 LINE"
);
}
);
width = 703;
},
{
anchors = (
{
name = bottom;
position = "{358, 0}";
},
{
name = top;
position = "{358, 700}";
}
);
hints = (
{
origin = "{2, 2}";
scale = "{-0.6, 1}";
type = Corner;
name = _corner.capSerif;
},
{
origin = "{2, 3}";
scale = "{1.4, 1}";
type = Corner;
name = _corner.capSerif;
options = 1;
},
{
origin = "{1, 0}";
scale = "{-0.7, 1}";
type = Corner;
name = _corner.capSerif;
},
{
origin = "{1, 1}";
scale = "{1.4, 1}";
type = Corner;
name = _corner.capSerif;
options = 1;
},
{
origin = "{0, 0}";
scale = "{0.65, 1}";
type = Corner;
name = _corner.capSerif;
options = 1;
},
{
origin = "{0, 3}";
scale = "{-1, 1}";
type = Corner;
name = _corner.capSerif;
},
{
origin = "{0, 1}";
scale = "{-1, 1}";
type = Corner;
name = _corner.capSerif;
},
{
origin = "{0, 2}";
scale = "{0.6, 1}";
type = Corner;
name = _corner.capSerif;
options = 1;
}
);
layerId = "6E858C87-3851-4F0D-A4B8-5C62800DDA3D";
paths = (
{
closed = 1;
nodes = (
"682 0 LINE",
"235 700 LINE",
"60 700 LINE",
"505 0 LINE"
);
},
{
closed = 1;
nodes = (
"624 700 LINE",
"581 700 LINE",
"375 376 LINE",
"406 363 LINE"
);
},
{
closed = 1;
nodes = (
"348 355 LINE",
"310 365 LINE",
"64 0 LINE",
"108 0 LINE"
);
}
);
width = 747;
}
);
leftKerningGroup = X;
rightKerningGroup = X;
unicode = 0058;
}
{
color = 3;
glyphname = Y;
layers = (
{
anchors = (
{
name = bottom;
position = "{310, 0}";
},
{
name = top;
position = "{310, 700}";
},
{
name = topleft;
position = "{20, 700}";
}
);
hints = (
{
origin = "{0, 4}";
scale = "{-1.1, 1}";
type = Corner;
name = _corner.capSerif;
},
{
origin = "{0, 5}";
scale = "{0.5, 1}";
type = Corner;
name = _corner.capSerif;
options = 1;
},
{
origin = "{0, 1}";
scale = "{-0.5, 1}";
type = Corner;
name = _corner.capSerif;
},
{
origin = "{0, 2}";
scale = "{1.1, 1}";
type = Corner;
name = _corner.capSerif;
options = 1;
},
{
origin = "{1, 0}";
type = Corner;
name = _corner.capSerif;
},
{
origin = "{1, 3}";
scale = "{-1, 1}";
type = Corner;
name = _corner.capSerif;
}
);
layerId = "33C692B7-ECA1-4228-A9DA-44701B454552";
paths = (
{
closed = 1;
nodes = (
"366 292 LINE",
"575 700 LINE",
"547 700 LINE",
"354 320 LINE",
"142 700 LINE",
"38 700 LINE",
"270 285 LINE"
);
},
{
closed = 1;
nodes = (
"369 0 LINE",
"369 314 LINE",
"269 301 LINE",
"269 0 LINE"
);
}
);
width = 630;
},
{
anchors = (
{
name = bottom;
position = "{340, 0}";
},
{
name = top;
position = "{378, 700}";
},
{
name = topleft;
position = "{10, 700}";
}
);
hints = (
{
origin = "{1, 0}";
scale = "{-1, 1}";
type = Corner;
name = _corner.capSerif;
},
{
origin = "{1, 1}";
type = Corner;
name = _corner.capSerif;
options = 1;
},
{
origin = "{0, 0}";
scale = "{-0.6, 1}";
type = Corner;
name = _corner.capSerif;
},
{
origin = "{0, 1}";
scale = "{1.2, 1}";
type = Corner;
name = _corner.capSerif;
options = 1;
},
{
origin = "{0, 4}";
scale = "{-1.2, 1}";
type = Corner;
name = _corner.capSerif;
},
{
origin = "{0, 5}";
scale = "{0.6, 1}";
type = Corner;
name = _corner.capSerif;
options = 1;
}
);
layerId = "6E858C87-3851-4F0D-A4B8-5C62800DDA3D";
paths = (
{
closed = 1;
nodes = (
"616 700 LINE",
"586 700 LINE",
"401 307 LINE",
"439 330 LINE",
"233 700 LINE",
"69 700 LINE",
"293 276 LINE",
"421 286 LINE"
);
},
{
closed = 1;
nodes = (
"291 0 LINE",
"435 0 LINE",
"439 330 LINE",
"291 292 LINE"
);
}
);
width = 676;
}
);
leftKerningGroup = Y;
rightKerningGroup = Y;
unicode = 0059;
}
{
color = 4;
glyphname = a;
layers = (
{
anchors = (
{
name = bottom;
position = "{270, 0}";
},
{
name = ogonek;
position = "{480, 10}";
},
{
name = top;
position = "{270, 470}";
}
);
hints = (
{
origin = "{0, 8}";
scale = "{-1, 1}";
type = Corner;
name = _corner.lcSerif;
}
);
layerId = "33C692B7-ECA1-4228-A9DA-44701B454552";
paths = (
{
closed = 1;
nodes = (
"36 83 OFFCURVE",
"106 -14 OFFCURVE",
"226 -14 CURVE",
"259 6 OFFCURVE",
"329 56 OFFCURVE",
"374 111 CURVE",
"363 107 LINE",
"363 0 LINE",
"457 0 LINE",
"452 456 LINE",
"416 468 OFFCURVE",
"336 481 OFFCURVE",
"277 484 CURVE",
"186 463 OFFCURVE",
"36 363 OFFCURVE",
"36 221 CURVE SMOOTH"
);
},
{
closed = 1;
nodes = (
"121 379 OFFCURVE",
"182 454 OFFCURVE",
"254 454 CURVE SMOOTH",
"297 454 OFFCURVE",
"331 441 OFFCURVE",
"361 414 CURVE",
"361 113 LINE",
"325 72 OFFCURVE",
"282 50 OFFCURVE",
"246 50 CURVE SMOOTH",
"183 50 OFFCURVE",
"121 134 OFFCURVE",
"121 258 CURVE SMOOTH"
);
}
);
width = 537;
},
{
anchors = (
{
name = bottom;
position = "{280, 0}";
},
{
name = ogonek;
position = "{502, 10}";
},
{
name = top;
position = "{280, 480}";
}
);
background = {
components = (
{
name = n;
transform = "{-1, 0, 0, -1, 604, 481}";
}
);
};
hints = (
{
origin = "{0, 7}";
scale = "{-1, 1}";
type = Corner;
name = _corner.lcSerif;
}
);
layerId = "6E858C87-3851-4F0D-A4B8-5C62800DDA3D";
paths = (
{
closed = 1;
nodes = (
"33 89 OFFCURVE",
"107 -14 OFFCURVE",
"220 -14 CURVE",
"250 5 OFFCURVE",
"336 78 OFFCURVE",
"352 109 CURVE",
"352 0 LINE",
"490 0 LINE",
"485 468 LINE",
"415 490 OFFCURVE",
"375 494 OFFCURVE",
"277 494 CURVE",
"209 473 OFFCURVE",
"33 404 OFFCURVE",
"33 210 CURVE SMOOTH"
);
},
{
closed = 1;
nodes = (
"173 410 OFFCURVE",
"206 458 OFFCURVE",
"264 458 CURVE SMOOTH",
"299 458 OFFCURVE",
"329 441 OFFCURVE",
"348 424 CURVE",
"348 126 LINE",
"317 92 OFFCURVE",
"286 85 OFFCURVE",
"265 85 CURVE SMOOTH",
"201 85 OFFCURVE",
"173 166 OFFCURVE",
"173 273 CURVE SMOOTH"
);
}
);
width = 560;
}
);
leftKerningGroup = o;
leftMetricsKey = o;
rightKerningGroup = n;
rightMetricsKey = u;
unicode = 0061;
}
{
color = 4;
glyphname = b;
layers = (
{
anchors = (
{
name = bottom;
position = "{247, 0}";
},
{
name = center;
position = "{247, 235}";
},
{
name = top;
position = "{247, 470}";
}
);
background = {
components = (
{
name = n;
transform = "{1, 0, 0, 1, -33, 0}";
}
);
};
hints = (
{
origin = "{0, 13}";
scale = "{1.06742, 1}";
type = Corner;
name = _corner.topSerif;
}
);
layerId = "33C692B7-ECA1-4228-A9DA-44701B454552";
paths = (
{
closed = 1;
nodes = (
"82 7 OFFCURVE",
"168 -14 OFFCURVE",
"226 -14 CURVE",
"285 0 OFFCURVE",
"468 87 OFFCURVE",
"468 247 CURVE SMOOTH",
"468 407 OFFCURVE",
"392 484 OFFCURVE",
"287 484 CURVE",
"247 468 OFFCURVE",
"187 428 OFFCURVE",
"142 375 CURVE",
"146 750 LINE",
"54 750 LINE",
"57 53 LINE",
"56 52 LINE",
"42 41 LINE"
);
},
{
closed = 1;
nodes = (
"383 91 OFFCURVE",
"317 19 OFFCURVE",
"249 19 CURVE SMOOTH",
"206 19 OFFCURVE",
"175 37 OFFCURVE",
"145 74 CURVE",
"145 364 LINE",
"181 405 OFFCURVE",
"221 420 OFFCURVE",
"257 420 CURVE SMOOTH",
"316 420 OFFCURVE",
"383 336 OFFCURVE",
"383 211 CURVE SMOOTH"
);
}
);
width = 507;
},
{
anchors = (
{
name = bottom;
position = "{239, 0}";
},
{
name = center;
position = "{239, 240}";
},
{
name = top;
position = "{239, 480}";
}
);
background = {
components = (
{
name = n;
transform = "{1, 0, 0, 1, -58, 0}";
}
);
};
hints = (
{
origin = "{0, 14}";
type = Corner;
name = _corner.topSerif;
}
);
layerId = "6E858C87-3851-4F0D-A4B8-5C62800DDA3D";
paths = (
{
closed = 1;
nodes = (
"73 7 OFFCURVE",
"148 -14 OFFCURVE",
"249 -14 CURVE",
"303 0 OFFCURVE",
"501 56 OFFCURVE",
"501 278 CURVE SMOOTH",
"501 386 OFFCURVE",
"456 494 OFFCURVE",
"328 494 CURVE",
"288 478 OFFCURVE",
"222 432 OFFCURVE",
"186 397 CURVE",
"186 749 LINE",
"188 750 LINE",
"50 750 LINE",
"50 53 LINE",
"33 41 LINE"
);
},
{
closed = 1;
nodes = (
"355 100 OFFCURVE",
"324 21 OFFCURVE",
"272 21 CURVE SMOOTH",
"248 21 OFFCURVE",
"216 34 OFFCURVE",
"185 72 CURVE",
"186 382 LINE",
"214 396 OFFCURVE",
"238 404 OFFCURVE",
"261 404 CURVE SMOOTH",
"309 404 OFFCURVE",
"355 329 OFFCURVE",
"355 211 CURVE SMOOTH"
);
}
);
width = 536;
}
);
leftKerningGroup = b;
rightKerningGroup = o;
rightMetricsKey = o;
unicode = 0062;
}
{
color = 4;
glyphname = c;
layers = (
{
anchors = (
{
name = bottom;
position = "{240, 0}";
},
{
name = top;
position = "{252, 470}";
}
);
background = {
components = (
{
name = o;
transform = "{1, 0, 0, 1, -8, 0}";
}
);
};
layerId = "33C692B7-ECA1-4228-A9DA-44701B454552";
paths = (
{
closed = 1;
nodes = (
"386 320 LINE",
"440 347 LINE",
"440 438 OFFCURVE",
"347 484 OFFCURVE",
"273 484 CURVE",
"181 460 OFFCURVE",
"36 388 OFFCURVE",
"36 218 CURVE SMOOTH",
"36 72 OFFCURVE",
"144 -13 OFFCURVE",
"264 -14 CURVE",
"325 14 OFFCURVE",
"428 100 OFFCURVE",
"448 120 CURVE",
"441 126 LINE",
"404 95 OFFCURVE",
"364 70 OFFCURVE",
"321 49 CURVE",
"213 49 OFFCURVE",
"130 123 OFFCURVE",
"130 259 CURVE SMOOTH",
"130 374 OFFCURVE",
"181 450 OFFCURVE",
"237 450 CURVE SMOOTH",
"278 450 OFFCURVE",
"333 416 OFFCURVE",
"352 324 CURVE"
);
}
);
width = 467;
},
{
anchors = (
{
name = bottom;
position = "{237, 0}";
},
{
name = top;
position = "{237, 480}";
}
);
background = {
components = (
{
name = o;
transform = "{1, 0, 0, 1, -1, 0}";
}
);
};
layerId = "6E858C87-3851-4F0D-A4B8-5C62800DDA3D";
paths = (
{
closed = 1;
nodes = (
"382 317 LINE",
"472 360 LINE",
"472 445 OFFCURVE",
"372 494 OFFCURVE",
"275 494 CURVE",
"155 463 OFFCURVE",
"33 377 OFFCURVE",
"33 218 CURVE SMOOTH",
"33 96 OFFCURVE",
"104 -14 OFFCURVE",
"278 -14 CURVE",
"350 29 OFFCURVE",
"419 80 OFFCURVE",
"472 129 CURVE",
"465 139 LINE",
"422 110 OFFCURVE",
"380 84 OFFCURVE",
"337 59 CURVE",
"229 84 OFFCURVE",
"173 164 OFFCURVE",
"173 288 CURVE SMOOTH",
"173 393 OFFCURVE",
"209 460 OFFCURVE",
"249 460 CURVE SMOOTH",
"286 460 OFFCURVE",
"323 416 OFFCURVE",
"337 325 CURVE"
);
}
);
width = 487;
}
);
leftKerningGroup = o;
leftMetricsKey = o;
rightKerningGroup = c;
unicode = 0063;
}
{
color = 4;
glyphname = d;
layers = (
{
anchors = (
{
name = topright;
position = "{520, 700}";
}
);
background = {
components = (
{
name = a;
transform = "{1, 0, 0, 1, 10, 0}";
},
{
name = a;
transform = "{1, 0, 0, 1, 10, 0}";
}
);
};
hints = (
{
origin = "{0, 2}";
scale = "{1.02151, 1}";
type = Corner;
name = _corner.topSerif;
},
{
origin = "{0, 0}";
scale = "{-1, 1}";
type = Corner;
name = _corner.lcSerif;
}
);
layerId = "33C692B7-ECA1-4228-A9DA-44701B454552";
paths = (
{
closed = 1;
nodes = (
"445 0 LINE",
"453 750 LINE",
"363 750 LINE",
"361 0 LINE"
);
},
{
closed = 1;
nodes = (
"364 121 LINE",
"328 80 OFFCURVE",
"285 51 OFFCURVE",
"249 51 CURVE SMOOTH",
"186 51 OFFCURVE",
"121 135 OFFCURVE",
"121 258 CURVE SMOOTH",
"121 377 OFFCURVE",
"185 449 OFFCURVE",
"257 449 CURVE SMOOTH",
"300 449 OFFCURVE",
"334 431 OFFCURVE",
"364 394 CURVE",
"432 436 LINE",
"417 458 OFFCURVE",
"376 482 OFFCURVE",
"280 482 CURVE",
"218 468 OFFCURVE",
"36 401 OFFCURVE",
"36 221 CURVE SMOOTH",
"36 84 OFFCURVE",
"109 -13 OFFCURVE",
"219 -13 CURVE",
"261 4 OFFCURVE",
"330 60 OFFCURVE",
"375 115 CURVE"
);
}
);
width = 525;
},
{
anchors = (
{
name = bottom;
position = "{292, 0}";
},
{
name = center;
position = "{292, 240}";
},
{
name = top;
position = "{292, 750}";
},
{
name = topright;
position = "{552, 750}";
}
);
background = {
components = (
{
name = a;
transform = "{1, 0, 0, 1, -2, 0}";
}
);
};
hints = (
{
origin = "{0, 1}";
type = Corner;
name = _corner.topSerif;
options = 1;
},
{
origin = "{0, 3}";
scale = "{-1, 1}";
type = Corner;
name = _corner.lcSerif;
}
);
layerId = "6E858C87-3851-4F0D-A4B8-5C62800DDA3D";
paths = (
{
closed = 1;
nodes = (
"493 750 LINE",
"352 750 LINE",
"359 0 LINE",
"496 0 LINE"
);
},
{
closed = 1;
nodes = (
"33 89 OFFCURVE",
"107 -14 OFFCURVE",
"220 -14 CURVE",
"242 0 OFFCURVE",
"310 45 OFFCURVE",
"360 109 CURVE",
"365 110 LINE",
"485 468 LINE",
"415 490 OFFCURVE",
"375 494 OFFCURVE",
"277 494 CURVE",
"209 473 OFFCURVE",
"33 404 OFFCURVE",
"33 210 CURVE SMOOTH"
);
},
{
closed = 1;
nodes = (
"173 410 OFFCURVE",
"206 458 OFFCURVE",
"264 458 CURVE SMOOTH",
"299 458 OFFCURVE",
"329 441 OFFCURVE",
"348 424 CURVE",
"348 126 LINE",
"317 92 OFFCURVE",
"287 85 OFFCURVE",
"267 85 CURVE SMOOTH",
"202 85 OFFCURVE",
"173 166 OFFCURVE",
"173 273 CURVE SMOOTH"
);
}
);
width = 575;
}
);
leftKerningGroup = o;
leftMetricsKey = o;
rightKerningGroup = l;
rightMetricsKey = l;
unicode = 0064;
}
{
color = 3;
glyphname = e;
layers = (
{
anchors = (
{
name = ogonek;
position = "{326, 0}";
},
{
name = top;
position = "{261, 470}";
}
);
background = {
components = (
{
name = c;
transform = "{1, 0, 0, 1, 6, 0}";
}
);
};
layerId = "33C692B7-ECA1-4228-A9DA-44701B454552";
paths = (
{
closed = 1;
nodes = (
"440 281 LINE",
"442 391 OFFCURVE",
"393 482 OFFCURVE",
"262 482 CURVE",
"132 462 OFFCURVE",
"36 352 OFFCURVE",
"36 222 CURVE SMOOTH",
"36 77 OFFCURVE",
"130 -12 OFFCURVE",
"284 -13 CURVE",
"351 30 OFFCURVE",
"402 72 OFFCURVE",
"458 121 CURVE",
"451 127 LINE",
"425 104 OFFCURVE",
"362 64 OFFCURVE",
"334 49 CURVE",
"196 53 OFFCURVE",
"130 136 OFFCURVE",
"130 258 CURVE SMOOTH",
"130 354 OFFCURVE",
"161 454 OFFCURVE",
"235 454 CURVE SMOOTH",
"309 454 OFFCURVE",
"342 336 OFFCURVE",
"342 263 CURVE",
"409 263 LINE"
);
},
{
closed = 1;
nodes = (
"107 261 LINE",
"395 264 LINE",
"413 286 LINE",
"107 273 LINE"
);
}
);
width = 478;
},
{
anchors = (
{
name = bottom;
position = "{254, 0}";
},
{
name = ogonek;
position = "{339, 10}";
},
{
name = top;
position = "{254, 480}";
}
);
background = {
components = (
{
name = c;
transform = "{1, 0, 0, 1, 2, 0}";
}
);
};
layerId = "6E858C87-3851-4F0D-A4B8-5C62800DDA3D";
paths = (
{
closed = 1;
nodes = (
"145 261 LINE",
"417 263 LINE",
"417 298 LINE",
"145 274 LINE"
);
},
{
closed = 1;
nodes = (
"482 281 LINE",
"481 430 OFFCURVE",
"399 494 OFFCURVE",
"284 494 CURVE",
"174 467 OFFCURVE",
"33 384 OFFCURVE",
"33 226 CURVE SMOOTH",
"33 93 OFFCURVE",
"127 -14 OFFCURVE",
"291 -14 CURVE",
"356 25 OFFCURVE",
"419 74 OFFCURVE",
"484 129 CURVE",
"477 139 LINE",
"436 113 OFFCURVE",
"394 86 OFFCURVE",
"350 63 CURVE",
"239 81 OFFCURVE",
"174 161 OFFCURVE",
"174 267 CURVE SMOOTH",
"174 389 OFFCURVE",
"208 459 OFFCURVE",
"250 459 CURVE SMOOTH",
"289 459 OFFCURVE",
"338 408 OFFCURVE",
"338 295 CURVE SMOOTH",
"338 286 OFFCURVE",
"338 270 OFFCURVE",
"338 263 CURVE",
"454 263 LINE"
);
}
);
width = 504;
}
);
leftKerningGroup = o;
leftMetricsKey = o;
rightKerningGroup = e;
unicode = 0065;
}
{
color = 3;
glyphname = f;
layers = (
{
anchors = (
{
name = bottom;
position = "{160, 0}";
},
{
name = top;
position = "{160, 750}";
}
);
background = {
paths = (
{
closed = 1;
nodes = (
"162 616 LINE",
"198 660 OFFCURVE",
"216 670 OFFCURVE",
"236 670 CURVE SMOOTH",
"257 670 OFFCURVE",
"276 652 OFFCURVE",
"286 626 CURVE",
"308 627 LINE",
"363 662 LINE",
"362 704 OFFCURVE",
"314 753 OFFCURVE",
"259 756 CURVE",
"251 750 OFFCURVE",
"190 671 OFFCURVE",
"157 621 CURVE"
);
}
);
};
hints = (
{
origin = "{0, 13}";
scale = "{-1.3, 1}";
type = Corner;
name = _corner.lcSerif;
},
{
origin = "{0, 12}";
type = Corner;
name = _corner.lcSerif;
}
);
layerId = "33C692B7-ECA1-4228-A9DA-44701B454552";
paths = (
{
closed = 1;
nodes = (
"303 638 LINE",
"366 681 LINE",
"351 719 OFFCURVE",
"311 746 OFFCURVE",
"263 750 CURVE",
"182 710 OFFCURVE",
"115 637 OFFCURVE",
"85 534 CURVE",
"85 470 LINE",
"18 466 LINE",
"18 452 LINE",
"85 452 LINE",
"85 0 LINE",
"174 0 LINE",
"174 456 LINE",
"280 453 LINE",
"318 458 LINE",
"318 470 LINE",
"174 470 LINE",
"174 665 LINE",
"190 687 OFFCURVE",
"205 692 OFFCURVE",
"219 692 CURVE SMOOTH",
"238 692 OFFCURVE",
"261 682 OFFCURVE",
"271 648 CURVE"
);
}
);
width = 319;
},
{
anchors = (
{
name = bottom;
position = "{149, 0}";
},
{
name = top;
position = "{149, 750}";
}
);
background = {
hints = (
{
origin = "{0, 11}";
type = Corner;
name = _corner.lcSerif;
},
{
origin = "{0, 12}";
scale = "{-1.3, 1}";
type = Corner;
name = _corner.lcSerif;
}
);
paths = (
{
closed = 1;
nodes = (
"420 710 LINE",
"388 746 OFFCURVE",
"342 762 OFFCURVE",
"299 762 CURVE",
"201 725 OFFCURVE",
"68 580 OFFCURVE",
"68 533 CURVE SMOOTH",
"68 480 LINE",
"1 476 LINE",
"1 453 LINE",
"68 453 LINE",
"68 0 LINE",
"212 0 LINE",
"212 457 LINE",
"308 454 LINE",
"346 467 LINE",
"346 479 LINE",
"212 479 LINE",
"212 681 LINE",
"228 701 OFFCURVE",
"293 662 OFFCURVE",
"336 628 CURVE",
"420 690 LINE"
);
}
);
};
hints = (
{
origin = "{0, 12}";
type = Corner;
name = _corner.lcSerif;
},
{
origin = "{0, 13}";
scale = "{-1.3, 1}";
type = Corner;
name = _corner.lcSerif;
}
);
layerId = "6E858C87-3851-4F0D-A4B8-5C62800DDA3D";
paths = (
{
closed = 1;
nodes = (
"375 626 LINE",
"453 710 LINE",
"400 766 OFFCURVE",
"354 771 OFFCURVE",
"303 766 CURVE",
"215 733 OFFCURVE",
"100 642 OFFCURVE",
"80 539 CURVE",
"80 480 LINE",
"10 476 LINE",
"10 456 LINE",
"81 456 LINE",
"81 0 LINE",
"225 0 LINE",
"225 458 LINE",
"292 453 LINE",
"346 460 LINE",
"346 480 LINE",
"224 480 LINE",
"224 691 LINE",
"235 702 OFFCURVE",
"245 708 OFFCURVE",
"259 708 CURVE SMOOTH",
"279 708 OFFCURVE",
"300 696 OFFCURVE",
"327 633 CURVE"
);
}
);
width = 383;
}
);
leftKerningGroup = f;
rightKerningGroup = f;
unicode = 0066;
}
{
color = 3;
glyphname = g;
layers = (
{
anchors = (
{
name = bottom;
position = "{257, -250}";
},
{
name = top;
position = "{257, 470}";
}
);
background = {
paths = (
{
closed = 1;
nodes = (
"451 409 OFFCURVE",
"383 482 OFFCURVE",
"254 482 CURVE",
"193 482 OFFCURVE",
"47 409 OFFCURVE",
"47 288 CURVE SMOOTH",
"47 199 OFFCURVE",
"115 132 OFFCURVE",
"245 132 CURVE",
"301 132 OFFCURVE",
"451 219 OFFCURVE",
"451 333 CURVE SMOOTH"
);
},
{
closed = 1;
nodes = (
"174 149 OFFCURVE",
"138 217 OFFCURVE",
"138 317 CURVE SMOOTH",
"138 414 OFFCURVE",
"180 465 OFFCURVE",
"247 465 CURVE",
"317 465 OFFCURVE",
"360 413 OFFCURVE",
"360 303 CURVE SMOOTH",
"360 211 OFFCURVE",
"314 149 OFFCURVE",
"247 149 CURVE"
);
},
{
closed = 1;
nodes = (
"129 133 OFFCURVE",
"95 111 OFFCURVE",
"73 72 CURVE",
"72 40 OFFCURVE",
"110 -2 OFFCURVE",
"133 -2 CURVE SMOOTH",
"315 -2 OFFCURVE",
"414 -14 OFFCURVE",
"414 -92 CURVE SMOOTH",
"414 -161 OFFCURVE",
"341 -188 OFFCURVE",
"266 -188 CURVE SMOOTH",
"182 -188 OFFCURVE",
"114 -143 OFFCURVE",
"114 -83 CURVE SMOOTH",
"114 -50 OFFCURVE",
"133 -20 OFFCURVE",
"184 18 CURVE",
"174 21 LINE",
"130 -15 OFFCURVE",
"66 -42 OFFCURVE",
"21 -79 CURVE",
"21 -207 OFFCURVE",
"160 -226 OFFCURVE",
"262 -226 CURVE",
"322 -207 OFFCURVE",
"489 -163 OFFCURVE",
"489 -49 CURVE SMOOTH",
"489 136 OFFCURVE",
"126 34 OFFCURVE",
"126 91 CURVE SMOOTH",
"126 111 OFFCURVE",
"147 138 OFFCURVE",
"168 161 CURVE",
"151 162 LINE"
);
},
{
closed = 1;
nodes = (
"436 512 LINE",
"436 462 OFFCURVE",
"403 458 OFFCURVE",
"380 458 CURVE SMOOTH",
"335 458 OFFCURVE",
"321 465 OFFCURVE",
"274 478 CURVE",
"385 436 LINE",
"388 439 OFFCURVE",
"397 440 OFFCURVE",
"408 440 CURVE SMOOTH",
"420 440 OFFCURVE",
"484 421 OFFCURVE",
"501 421 CURVE",
"514 422 OFFCURVE",
"526 436 OFFCURVE",
"533 484 CURVE"
);
}
);
};
layerId = "33C692B7-ECA1-4228-A9DA-44701B454552";
paths = (
{
closed = 1;
nodes = (
"266 149 OFFCURVE",
"430 184 OFFCURVE",
"430 322 CURVE SMOOTH",
"430 418 OFFCURVE",
"357 486 OFFCURVE",
"255 485 CURVE",
"218 476 OFFCURVE",
"52 424 OFFCURVE",
"52 299 CURVE SMOOTH",
"52 206 OFFCURVE",
"117 136 OFFCURVE",
"232 136 CURVE"
);
},
{
closed = 1;
nodes = (
"190 162 OFFCURVE",
"140 233 OFFCURVE",
"140 326 CURVE SMOOTH",
"140 400 OFFCURVE",
"173 455 OFFCURVE",
"223 455 CURVE SMOOTH",
"288 455 OFFCURVE",
"340 387 OFFCURVE",
"340 295 CURVE SMOOTH",
"340 219 OFFCURVE",
"307 162 OFFCURVE",
"255 162 CURVE SMOOTH"
);
},
{
closed = 1;
nodes = (
"118 133 OFFCURVE",
"81 106 OFFCURVE",
"59 67 CURVE",
"58 35 OFFCURVE",
"99 -5 OFFCURVE",
"122 -5 CURVE SMOOTH",
"304 -5 OFFCURVE",
"403 -14 OFFCURVE",
"403 -92 CURVE SMOOTH",
"403 -161 OFFCURVE",
"330 -188 OFFCURVE",
"255 -188 CURVE SMOOTH",
"171 -188 OFFCURVE",
"103 -143 OFFCURVE",
"103 -83 CURVE SMOOTH",
"103 -50 OFFCURVE",
"122 -20 OFFCURVE",
"153 18 CURVE",
"143 21 LINE",
"119 -15 OFFCURVE",
"55 -42 OFFCURVE",
"10 -79 CURVE",
"10 -207 OFFCURVE",
"149 -226 OFFCURVE",
"251 -226 CURVE",
"311 -207 OFFCURVE",
"478 -163 OFFCURVE",
"478 -49 CURVE SMOOTH",
"478 136 OFFCURVE",
"117 40 OFFCURVE",
"117 97 CURVE SMOOTH",
"117 117 OFFCURVE",
"136 138 OFFCURVE",
"157 161 CURVE",
"140 162 LINE"
);
},
{
closed = 1;
nodes = (
"416 529 LINE",
"405 473 OFFCURVE",
"386 461 OFFCURVE",
"343 461 CURVE",
"367 436 LINE",
"379 452 LINE",
"453 422 LINE",
"465 422 LINE",
"497 493 LINE"
);
}
);
width = 512;
},
{
anchors = (
{
name = bottom;
position = "{274, -250}";
},
{
name = top;
position = "{263, 480}";
}
);
background = {
paths = (
{
closed = 1;
nodes = (
"5 -230 OFFCURVE",
"131 -241 OFFCURVE",
"241 -241 CURVE",
"302 -225 OFFCURVE",
"508 -189 OFFCURVE",
"508 -66 CURVE SMOOTH",
"508 122 OFFCURVE",
"144 29 OFFCURVE",
"144 104 CURVE SMOOTH",
"144 119 OFFCURVE",
"150 130 OFFCURVE",
"161 143 CURVE",
"194 136 OFFCURVE",
"221 132 OFFCURVE",
"249 132 CURVE SMOOTH",
"319 132 OFFCURVE",
"473 196 OFFCURVE",
"473 319 CURVE SMOOTH",
"473 375 OFFCURVE",
"439 413 OFFCURVE",
"401 444 CURVE",
"405 445 OFFCURVE",
"511 397 OFFCURVE",
"528 397 CURVE",
"541 398 OFFCURVE",
"556 434 OFFCURVE",
"563 485 CURVE",
"455 522 LINE",
"455 481 OFFCURVE",
"432 461 OFFCURVE",
"409 461 CURVE SMOOTH",
"333 461 OFFCURVE",
"354 485 OFFCURVE",
"258 485 CURVE SMOOTH",
"163 485 OFFCURVE",
"33 394 OFFCURVE",
"33 283 CURVE SMOOTH",
"33 219 OFFCURVE",
"73 170 OFFCURVE",
"137 147 CURVE",
"107 125 OFFCURVE",
"74 94 OFFCURVE",
"49 57 CURVE",
"41 23 OFFCURVE",
"74 -22 OFFCURVE",
"113 -22 CURVE SMOOTH",
"119 -22 LINE",
"68 -51 OFFCURVE",
"41 -72 OFFCURVE",
"5 -93 CURVE"
);
},
{
closed = 1;
nodes = (
"124 -72 OFFCURVE",
"131 -48 OFFCURVE",
"144 -26 CURVE",
"320 -38 OFFCURVE",
"391 -66 OFFCURVE",
"391 -118 CURVE SMOOTH",
"391 -168 OFFCURVE",
"337 -203 OFFCURVE",
"257 -203 CURVE SMOOTH",
"168 -203 OFFCURVE",
"124 -155 OFFCURVE",
"124 -93 CURVE SMOOTH"
);
},
{
closed = 1;
nodes = (
"176 411 OFFCURVE",
"199 469 OFFCURVE",
"241 469 CURVE SMOOTH",
"286 469 OFFCURVE",
"329 410 OFFCURVE",
"329 303 CURVE SMOOTH",
"329 218 OFFCURVE",
"303 148 OFFCURVE",
"261 148 CURVE SMOOTH",
"214 148 OFFCURVE",
"176 223 OFFCURVE",
"176 316 CURVE SMOOTH"
);
}
);
};
layerId = "6E858C87-3851-4F0D-A4B8-5C62800DDA3D";
paths = (
{
closed = 1;
nodes = (
"508 448 LINE",
"536 522 LINE",
"434 559 LINE",
"423 510 OFFCURVE",
"401 476 OFFCURVE",
"371 476 CURVE SMOOTH",
"364 476 OFFCURVE",
"350 476 OFFCURVE",
"344 477 CURVE",
"394 453 LINE",
"409 476 LINE",
"480 448 LINE"
);
},
{
closed = 1;
nodes = (
"138 -72 OFFCURVE",
"145 -48 OFFCURVE",
"153 -26 CURVE",
"372 -41 OFFCURVE",
"391 -63 OFFCURVE",
"391 -111 CURVE SMOOTH",
"391 -168 OFFCURVE",
"337 -203 OFFCURVE",
"257 -203 CURVE SMOOTH",
"182 -203 OFFCURVE",
"138 -155 OFFCURVE",
"138 -93 CURVE SMOOTH"
);
},
{
closed = 1;
nodes = (
"156 168 LINE",
"111 125 OFFCURVE",
"66 84 OFFCURVE",
"41 47 CURVE",
"33 13 OFFCURVE",
"92 -22 OFFCURVE",
"126 -22 CURVE SMOOTH",
"132 -22 LINE",
"86 -51 OFFCURVE",
"41 -72 OFFCURVE",
"5 -93 CURVE",
"5 -230 OFFCURVE",
"131 -241 OFFCURVE",
"241 -241 CURVE",
"302 -225 OFFCURVE",
"508 -177 OFFCURVE",
"508 -44 CURVE SMOOTH",
"508 129 OFFCURVE",
"149 40 OFFCURVE",
"149 119 CURVE SMOOTH",
"149 129 OFFCURVE",
"149 133 OFFCURVE",
"178 161 CURVE"
);
},
{
closed = 1;
nodes = (
"227 156 OFFCURVE",
"186 234 OFFCURVE",
"186 333 CURVE SMOOTH",
"186 408 OFFCURVE",
"207 463 OFFCURVE",
"241 463 CURVE SMOOTH",
"288 463 OFFCURVE",
"327 385 OFFCURVE",
"327 285 CURVE SMOOTH",
"327 214 OFFCURVE",
"308 160 OFFCURVE",
"278 158 CURVE SMOOTH"
);
},
{
closed = 1;
nodes = (
"470 435 OFFCURVE",
"383 493 OFFCURVE",
"272 493 CURVE",
"117 451 OFFCURVE",
"43 389 OFFCURVE",
"43 299 CURVE SMOOTH",
"43 195 OFFCURVE",
"132 129 OFFCURVE",
"241 129 CURVE",
"394 173 OFFCURVE",
"470 228 OFFCURVE",
"470 329 CURVE SMOOTH"
);
}
);
width = 546;
}
);
leftKerningGroup = g;
rightKerningGroup = g;
unicode = 0067;
}
{
color = 4;
glyphname = h;
layers = (
{
background = {
paths = (
{
closed = 1;
nodes = (
"237 0 LINE",
"237 5 LINE",
"171 16 LINE",
"171 749 LINE",
"159 750 LINE",
"15 740 LINE",
"15 734 LINE",
"82 727 LINE",
"82 16 LINE",
"15 5 LINE",
"15 0 LINE"
);
}
);
};
hints = (
{
origin = "{0, 7}";
type = Corner;
name = _corner.lcSerif;
},
{
origin = "{0, 8}";
scale = "{-1, 1}";
type = Corner;
name = _corner.lcSerif;
options = 1;
},
{
origin = "{1, 3}";
type = Corner;
name = _corner.topSerif;
},
{
origin = "{1, 4}";
type = Corner;
name = _corner.lcSerif;
},
{
origin = "{1, 5}";
scale = "{-1, 1}";
type = Corner;
name = _corner.lcSerif;
}
);
layerId = "33C692B7-ECA1-4228-A9DA-44701B454552";
paths = (
{
closed = 1;
nodes = (
"168 362 LINE",
"209 397 OFFCURVE",
"255 415 OFFCURVE",
"294 415 CURVE SMOOTH",
"356 415 OFFCURVE",
"387 379 OFFCURVE",
"387 284 CURVE SMOOTH",
"387 0 LINE",
"476 0 LINE",
"476 320 LINE SMOOTH",
"476 425 OFFCURVE",
"425 484 OFFCURVE",
"320 484 CURVE",
"275 463 OFFCURVE",
"211 417 OFFCURVE",
"163 368 CURVE"
);
},
{
closed = 1;
nodes = (
"173 371 LINE",
"169 371 LINE",
"169 750 LINE",
"84 750 LINE",
"84 0 LINE",
"173 0 LINE"
);
}
);
width = 561;
},
{
background = {
paths = (
{
closed = 1;
nodes = (
"44 472 LINE",
"44 0 LINE",
"188 0 LINE",
"188 364 LINE",
"213 384 OFFCURVE",
"243 405 OFFCURVE",
"280 405 CURVE SMOOTH",
"333 405 OFFCURVE",
"351 368 OFFCURVE",
"351 264 CURVE SMOOTH",
"351 0 LINE",
"495 0 LINE",
"495 300 LINE SMOOTH",
"495 414 OFFCURVE",
"453 497 OFFCURVE",
"314 484 CURVE",
"270 456 OFFCURVE",
"238 436 OFFCURVE",
"184 392 CURVE",
"180 392 LINE",
"185 479 LINE",
"173 480 LINE"
);
},
{
closed = 1;
nodes = (
"44 472 LINE",
"44 0 LINE",
"188 0 LINE",
"188 364 LINE",
"213 384 OFFCURVE",
"243 405 OFFCURVE",
"280 405 CURVE SMOOTH",
"333 405 OFFCURVE",
"351 368 OFFCURVE",
"351 264 CURVE SMOOTH",
"351 0 LINE",
"495 0 LINE",
"495 300 LINE SMOOTH",
"495 414 OFFCURVE",
"453 497 OFFCURVE",
"314 484 CURVE",
"270 456 OFFCURVE",
"238 436 OFFCURVE",
"184 392 CURVE",
"180 392 LINE",
"185 479 LINE",
"173 480 LINE"
);
}
);
};
hints = (
{
origin = "{0, 6}";
scale = "{0.9, 1}";
type = Corner;
name = _corner.lcSerif;
},
{
origin = "{0, 7}";
scale = "{-1, 1}";
type = Corner;
name = _corner.lcSerif;
},
{
origin = "{1, 2}";
type = Corner;
name = _corner.topSerif;
options = 1;
},
{
origin = "{1, 3}";
type = Corner;
name = _corner.lcSerif;
},
{
origin = "{1, 4}";
scale = "{-0.9, 1}";
type = Corner;
name = _corner.lcSerif;
}
);
layerId = "6E858C87-3851-4F0D-A4B8-5C62800DDA3D";
paths = (
{
closed = 1;
nodes = (
"240 384 OFFCURVE",
"269 400 OFFCURVE",
"299 400 CURVE SMOOTH",
"360 400 OFFCURVE",
"390 359 OFFCURVE",
"390 259 CURVE SMOOTH",
"390 0 LINE",
"534 0 LINE",
"534 330 LINE SMOOTH",
"534 446 OFFCURVE",
"484 494 OFFCURVE",
"367 494 CURVE",
"313 461 OFFCURVE",
"255 417 OFFCURVE",
"208 373 CURVE",
"208 360 LINE"
);
},
{
closed = 1;
nodes = (
"222 384 LINE",
"222 750 LINE",
"83 750 LINE",
"83 0 LINE",
"227 0 LINE",
"227 384 LINE"
);
}
);
width = 611;
}
);
leftKerningGroup = h;
leftMetricsKey = l;
rightKerningGroup = n;
rightMetricsKey = n;
unicode = 0068;
}
{
color = 4;
glyphname = p;
layers = (
{
anchors = (
{
name = bottom;
position = "{254, 0}";
},
{
name = top;
position = "{254, 470}";
}
);
background = {
paths = (
{
closed = 1;
nodes = (
"69 441 LINE",
"69 0 LINE",
"158 0 LINE",
"158 362 LINE",
"208 410 OFFCURVE",
"266 413 OFFCURVE",
"291 413 CURVE SMOOTH",
"335 413 OFFCURVE",
"372 385 OFFCURVE",
"372 282 CURVE SMOOTH",
"372 0 LINE",
"461 0 LINE",
"461 298 LINE SMOOTH",
"461 412 OFFCURVE",
"419 476 OFFCURVE",
"305 482 CURVE",
"286 481 OFFCURVE",
"204 423 OFFCURVE",
"150 369 CURVE",
"146 369 LINE",
"155 468 LINE",
"143 470 LINE",
"1 452 LINE",
"1 446 LINE"
);
}
);
};
hints = (
{
origin = "{0, 16}";
type = Corner;
name = _corner.topSerif;
},
{
origin = "{0, 0}";
scale = "{-1.3, 1}";
type = Corner;
name = _corner.lcSerif;
},
{
origin = "{0, 17}";
scale = "{1.06742, 1}";
type = Corner;
name = _corner.lcSerif;
}
);
layerId = "33C692B7-ECA1-4228-A9DA-44701B454552";
paths = (
{
closed = 1;
nodes = (
"160 -250 LINE",
"157 -3 LINE",
"182 -10 OFFCURVE",
"212 -14 OFFCURVE",
"249 -14 CURVE",
"315 7 OFFCURVE",
"487 96 OFFCURVE",
"487 252 CURVE SMOOTH",
"487 412 OFFCURVE",
"411 484 OFFCURVE",
"310 484 CURVE",
"264 466 OFFCURVE",
"203 389 OFFCURVE",
"157 330 CURVE",
"154 330 LINE",
"156 470 LINE",
"73 470 LINE",
"70 -249 LINE"
);
},
{
closed = 1;
nodes = (
"157 316 LINE",
"195 366 OFFCURVE",
"239 415 OFFCURVE",
"278 415 CURVE SMOOTH",
"334 415 OFFCURVE",
"402 336 OFFCURVE",
"402 211 CURVE SMOOTH",
"402 86 OFFCURVE",
"363 30 OFFCURVE",
"272 30 CURVE SMOOTH",
"228 30 OFFCURVE",
"157 74 OFFCURVE",
"157 109 CURVE SMOOTH"
);
}
);
width = 526;
},
{
anchors = (
{
name = bottom;
position = "{248, 0}";
},
{
name = top;
position = "{248, 480}";
}
);
background = {
annotations = (
{
position = "{21, 145}";
type = Plus;
}
);
components = (
{
name = a;
transform = "{-1, 0, 0, -1, 560, 479}";
}
);
};
hints = (
{
origin = "{0, 5}";
type = Corner;
name = _corner.topSerif;
},
{
origin = "{0, 1}";
scale = "{-1.35, 1}";
type = Corner;
name = _corner.lcSerif;
},
{
origin = "{0, 0}";
type = Corner;
name = _corner.lcSerif;
}
);
layerId = "6E858C87-3851-4F0D-A4B8-5C62800DDA3D";
paths = (
{
closed = 1;
nodes = (
"72 -270 LINE",
"213 -270 LINE",
"210 34 LINE",
"213 70 LINE",
"214 480 LINE",
"77 480 LINE"
);
},
{
closed = 1;
nodes = (
"209 350 LINE",
"239 380 OFFCURVE",
"267 394 OFFCURVE",
"298 394 CURVE SMOOTH",
"345 394 OFFCURVE",
"386 340 OFFCURVE",
"386 202 CURVE SMOOTH",
"386 86 OFFCURVE",
"354 21 OFFCURVE",
"310 21 CURVE SMOOTH",
"276 21 OFFCURVE",
"228 53 OFFCURVE",
"206 104 CURVE",
"75 38 LINE",
"110 16 OFFCURVE",
"189 -14 OFFCURVE",
"285 -14 CURVE",
"353 7 OFFCURVE",
"535 76 OFFCURVE",
"535 270 CURVE SMOOTH",
"535 387 OFFCURVE",
"452 494 OFFCURVE",
"339 494 CURVE",
"316 475 OFFCURVE",
"208 386 OFFCURVE",
"206 364 CURVE"
);
}
);
width = 570;
}
);
leftKerningGroup = p;
rightKerningGroup = o;
rightMetricsKey = o;
unicode = 0070;
}
{
color = 4;
glyphname = q;
layers = (
{
anchors = (
{
name = bottom;
position = "{267, 0}";
},
{
name = top;
position = "{267, 470}";
}
);
background = {
hints = (
{
origin = "{0, 13}";
scale = "{1.06742, 1}";
type = Corner;
name = _corner.topSerif;
}
);
paths = (
{
closed = 1;
nodes = (
"436 462 OFFCURVE",
"350 483 OFFCURVE",
"292 483 CURVE",
"233 469 OFFCURVE",
"52 382 OFFCURVE",
"52 222 CURVE SMOOTH",
"52 62 OFFCURVE",
"127 -15 OFFCURVE",
"231 -15 CURVE",
"271 1 OFFCURVE",
"331 41 OFFCURVE",
"376 94 CURVE",
"372 -281 LINE",
"462 -281 LINE",
"459 416 LINE",
"462 417 LINE",
"476 428 LINE"
);
},
{
closed = 1;
nodes = (
"137 378 OFFCURVE",
"202 450 OFFCURVE",
"269 450 CURVE SMOOTH",
"312 450 OFFCURVE",
"346 432 OFFCURVE",
"376 395 CURVE",
"375 105 LINE",
"339 64 OFFCURVE",
"297 49 OFFCURVE",
"261 49 CURVE SMOOTH",
"203 49 OFFCURVE",
"137 133 OFFCURVE",
"137 258 CURVE SMOOTH"
);
}
);
};
hints = (
{
origin = "{0, 12}";
scale = "{1.31, 1}";
type = Corner;
name = _corner.lcSerif;
},
{
origin = "{0, 13}";
scale = "{-0.94059, 1}";
type = Corner;
name = _corner.lcSerif;
}
);
layerId = "33C692B7-ECA1-4228-A9DA-44701B454552";
paths = (
{
closed = 1;
nodes = (
"435 463 OFFCURVE",
"346 484 OFFCURVE",
"288 484 CURVE",
"226 470 OFFCURVE",
"36 383 OFFCURVE",
"36 222 CURVE SMOOTH",
"36 63 OFFCURVE",
"116 -14 OFFCURVE",
"227 -14 CURVE",
"267 2 OFFCURVE",
"331 62 OFFCURVE",
"376 115 CURVE",
"370 -250 LINE",
"455 -250 LINE",
"458 417 LINE",
"461 418 LINE",
"475 429 LINE"
);
},
{
closed = 1;
nodes = (
"121 379 OFFCURVE",
"192 451 OFFCURVE",
"265 451 CURVE SMOOTH",
"308 451 OFFCURVE",
"342 433 OFFCURVE",
"372 396 CURVE",
"371 125 LINE",
"335 84 OFFCURVE",
"293 50 OFFCURVE",
"257 50 CURVE SMOOTH",
"193 50 OFFCURVE",
"121 134 OFFCURVE",
"121 258 CURVE SMOOTH"
);
}
);
width = 521;
},
{
anchors = (
{
name = bottom;
position = "{287, 0}";
},
{
name = top;
position = "{287, 480}";
}
);
background = {
components = (
{
name = a;
transform = "{1, 0, 0, 1, -2, 0}";
}
);
};
hints = (
{
origin = "{0, 13}";
scale = "{-1.02128, 1}";
type = Corner;
name = _corner.lcSerif;
},
{
origin = "{0, 12}";
scale = "{1.35, 1}";
type = Corner;
name = _corner.lcSerif;
}
);
layerId = "6E858C87-3851-4F0D-A4B8-5C62800DDA3D";
paths = (
{
closed = 1;
nodes = (
"471 470 OFFCURVE",
"390 501 OFFCURVE",
"297 494 CURVE",
"203 468 OFFCURVE",
"33 392 OFFCURVE",
"33 198 CURVE SMOOTH",
"33 75 OFFCURVE",
"107 -9 OFFCURVE",
"227 -15 CURVE",
"272 15 OFFCURVE",
"315 60 OFFCURVE",
"360 103 CURVE",
"352 -250 LINE",
"493 -250 LINE",
"491 420 LINE",
"494 421 LINE",
"508 432 LINE"
);
},
{
closed = 1;
nodes = (
"176 394 OFFCURVE",
"217 458 OFFCURVE",
"261 458 CURVE SMOOTH",
"298 458 OFFCURVE",
"333 436 OFFCURVE",
"352 413 CURVE",
"352 126 LINE",
"325 99 OFFCURVE",
"299 85 OFFCURVE",
"268 85 CURVE SMOOTH",
"217 85 OFFCURVE",
"176 151 OFFCURVE",
"176 278 CURVE SMOOTH"
);
}
);
width = 558;
}
);
leftKerningGroup = o;
leftMetricsKey = o;
rightKerningGroup = q;
unicode = 0071;
}
{
color = 4;
glyphname = r;
layers = (
{
anchors = (
{
name = bottom;
position = "{184, 0}";
},
{
name = top;
position = "{223, 470}";
}
);
background = {
components = (
{
name = c;
transform = "{1, 0, 0, 1, -59, 46}";
}
);
};
hints = (
{
origin = "{0, 3}";
type = Corner;
name = _corner.topSerif;
},
{
origin = "{0, 4}";
type = Corner;
name = _corner.lcSerif;
},
{
origin = "{0, 5}";
scale = "{-1.3, 1}";
type = Corner;
name = _corner.lcSerif;
}
);
layerId = "33C692B7-ECA1-4228-A9DA-44701B454552";
paths = (
{
closed = 1;
nodes = (
"184 375 LINE",
"180 375 LINE",
"180 470 LINE",
"95 470 LINE",
"95 0 LINE",
"184 0 LINE"
);
},
{
closed = 1;
nodes = (
"258 407 OFFCURVE",
"279 397 OFFCURVE",
"292 371 CURVE",
"321 366 LINE",
"382 418 LINE",
"359 460 OFFCURVE",
"330 480 OFFCURVE",
"285 484 CURVE",
"224 450 OFFCURVE",
"160 383 OFFCURVE",
"160 266 CURVE",
"183 360 LINE",
"197 383 OFFCURVE",
"211 407 OFFCURVE",
"240 407 CURVE SMOOTH"
);
}
);
width = 384;
},
{
anchors = (
{
name = bottom;
position = "{232, 0}";
},
{
name = top;
position = "{232, 480}";
}
);
background = {
paths = (
{
closed = 1;
nodes = (
"391 341 LINE",
"473 429 LINE",
"444 487 OFFCURVE",
"392 503 OFFCURVE",
"310 487 CURVE",
"267 446 OFFCURVE",
"223 400 OFFCURVE",
"188 352 CURVE",
"190 340 LINE",
"214 368 OFFCURVE",
"238 384 OFFCURVE",
"265 389 CURVE SMOOTH",
"305 396 OFFCURVE",
"326 383 OFFCURVE",
"346 341 CURVE"
);
}
);
};
hints = (
{
origin = "{0, 2}";
type = Corner;
name = _corner.topSerif;
options = 1;
},
{
origin = "{0, 3}";
type = Corner;
name = _corner.lcSerif;
},
{
origin = "{0, 4}";
scale = "{-1.3, 1}";
type = Corner;
name = _corner.lcSerif;
}
);
layerId = "6E858C87-3851-4F0D-A4B8-5C62800DDA3D";
paths = (
{
closed = 1;
nodes = (
"233 373 LINE",
"232 485 LINE",
"90 480 LINE",
"90 0 LINE",
"234 0 LINE",
"234 373 LINE"
);
},
{
closed = 1;
nodes = (
"302 381 OFFCURVE",
"326 370 OFFCURVE",
"337 341 CURVE",
"382 335 LINE",
"460 432 LINE",
"435 466 OFFCURVE",
"392 496 OFFCURVE",
"325 496 CURVE",
"266 453 OFFCURVE",
"235 388 OFFCURVE",
"224 367 CURVE",
"229 364 LINE",
"244 378 OFFCURVE",
"262 381 OFFCURVE",
"275 381 CURVE SMOOTH"
);
}
);
width = 463;
}
);
leftKerningGroup = n;
leftMetricsKey = n;
rightKerningGroup = r;
unicode = 0072;
}
